M48
METRIC,TZ
T1C0.400
T2C0.750
T3C0.800
T4C0.800
T5C1.000
T6C1.100
T7C1.300
%
G90
G05
T1
X107315Y-87630
X129540Y-129540
X132080Y-48895
X132080Y-51435
X134620Y-46355
X134620Y-48895
X134620Y-51435
X134620Y-53975
X137160Y-46355
X137160Y-48895
X137160Y-51435
X137160Y-53975
X139700Y-46355
X139700Y-48895
X139700Y-51435
X139700Y-53975
X142240Y-46355
X142240Y-48895
X142240Y-51435
X142240Y-53975
X144780Y-46355
X144780Y-48895
X144780Y-51435
X144780Y-53975
X147320Y-46355
X147320Y-48895
X147320Y-51435
X147320Y-53975
X149860Y-46355
X149860Y-48895
X149860Y-51435
X149860Y-53975
X152400Y-46355
X152400Y-53975
X154940Y-46355
X154940Y-53975
X157480Y-46355
X157480Y-48895
X157480Y-51435
X157480Y-53975
X160020Y-46355
X160020Y-48895
X160020Y-51435
X160020Y-53975
X162560Y-46355
X162560Y-48895
X162560Y-51435
X162560Y-53975
X165100Y-46355
X165100Y-48895
X165100Y-51435
X165100Y-53975
X180340Y-63373
T2
X180340Y-55880
X180340Y-57150
X180340Y-58420
T3
X140970Y-78105
X144780Y-76835
X144780Y-80010
T4
X101600Y-71120
X101600Y-76200
X101600Y-79375
X105410Y-83820
X105410Y-86360
X105410Y-88900
X105410Y-91440
X105410Y-93980
X105410Y-96520
X105410Y-99060
X105410Y-101600
X105410Y-104140
X105410Y-106680
X105410Y-109220
X105410Y-111760
X105410Y-114300
X105410Y-116840
X105410Y-119380
X105410Y-121920
X105410Y-124460
X105410Y-127000
X105410Y-129540
X105410Y-132080
X109220Y-71120
X109220Y-73660
X109220Y-76200
X109220Y-79375
X109220Y-86360
X109220Y-88900
X109220Y-91440
X113070Y-74930
X116840Y-86360
X116840Y-88900
X116840Y-91440
X118070Y-74930
X120650Y-83820
X120650Y-86360
X120650Y-88900
X120650Y-91440
X120650Y-93980
X120650Y-96520
X120650Y-99060
X120650Y-101600
X120650Y-104140
X120650Y-106680
X120650Y-109220
X120650Y-111760
X120650Y-114300
X120650Y-116840
X120650Y-119380
X120650Y-121920
X120650Y-124460
X120650Y-127000
X120650Y-129540
X120650Y-132080
X120690Y-77470
X121920Y-57785
X121920Y-60325
X121920Y-62865
X121920Y-65405
X121920Y-67945
X121920Y-70485
X121920Y-73025
X125690Y-77470
X125730Y-83820
X125730Y-86360
X125730Y-88900
X125730Y-91440
X125730Y-93980
X125730Y-96520
X125730Y-99060
X125730Y-101600
X125730Y-104140
X125730Y-106680
X125730Y-109220
X125730Y-111760
X125730Y-114300
X125730Y-116840
X125730Y-119380
X125730Y-121920
X125730Y-124460
X125730Y-127000
X125730Y-129540
X125730Y-132080
X129540Y-47762
X129540Y-52762
X129540Y-57785
X129540Y-60325
X129540Y-62865
X129540Y-65405
X129540Y-67945
X129540Y-70485
X129540Y-73025
X140970Y-83820
X140970Y-86360
X140970Y-88900
X140970Y-91440
X140970Y-93980
X140970Y-96520
X140970Y-99060
X140970Y-101600
X140970Y-104140
X140970Y-106680
X140970Y-109220
X140970Y-111760
X140970Y-114300
X140970Y-116840
X140970Y-119380
X140970Y-121920
X140970Y-124460
X140970Y-127000
X140970Y-129540
X140970Y-132080
X142240Y-57785
X142240Y-60325
X142240Y-62865
X142240Y-65405
X142240Y-67945
X142240Y-70485
X142240Y-73025
X149860Y-57785
X149860Y-60325
X149860Y-62865
X149860Y-65405
X149860Y-67945
X149860Y-70485
X149860Y-73025
X154940Y-62865
X154940Y-70485
X160020Y-57785
X160020Y-60325
X160020Y-62865
X160020Y-65405
X160020Y-67945
X160020Y-70485
X160020Y-73025
X160020Y-99060
X160020Y-101600
X160020Y-104140
X160020Y-106680
X160020Y-109220
X160020Y-111760
X160020Y-114300
X160020Y-116840
X160020Y-119380
X160020Y-121920
X160020Y-124460
X160020Y-127000
X160020Y-129540
X160020Y-132080
X167640Y-57785
X167640Y-60325
X167640Y-62865
X167640Y-65405
X167640Y-67945
X167640Y-70485
X167640Y-73025
X175260Y-99060
X175260Y-101600
X175260Y-104140
X175260Y-106680
X175260Y-109220
X175260Y-111760
X175260Y-114300
X175260Y-116840
X175260Y-119380
X175260Y-121920
X175260Y-124460
X175260Y-127000
X175260Y-129540
X175260Y-132080
X182880Y-45760
X182880Y-50760
T5
X99065Y-86360
X99065Y-88900
X99065Y-91440
X99065Y-93980
X99065Y-96520
X99065Y-99060
X99065Y-101600
X99065Y-104140
X99065Y-106680
X99065Y-109220
X99065Y-111760
X99065Y-114300
X99065Y-116840
X101605Y-86360
X101605Y-88900
X101605Y-91440
X101605Y-93980
X101605Y-96520
X101605Y-99060
X101605Y-101600
X101605Y-104140
X101605Y-106680
X101605Y-109220
X101605Y-111760
X101605Y-114300
X101605Y-116840
X187960Y-53340
X187960Y-55880
X187960Y-58420
X187960Y-60960
X187960Y-63500
X187960Y-66040
X187960Y-68580
X187960Y-71120
X187960Y-73660
X187960Y-76200
X187960Y-78740
X187960Y-81280
X187960Y-83820
X187960Y-86360
X187960Y-88900
X187960Y-91440
X187960Y-93980
X187960Y-96520
X187960Y-99060
X187960Y-101600
X187960Y-104140
X187960Y-106680
X187960Y-109220
X187960Y-111760
X187960Y-114300
X187960Y-116840
X187960Y-119380
X187960Y-121920
X187960Y-124460
X187960Y-127000
X187960Y-129540
X187960Y-132080
X190500Y-53340
X190500Y-55880
X190500Y-58420
X190500Y-60960
X190500Y-63500
X190500Y-66040
X190500Y-68580
X190500Y-71120
X190500Y-73660
X190500Y-76200
X190500Y-78740
X190500Y-81280
X190500Y-83820
X190500Y-86360
X190500Y-88900
X190500Y-91440
X190500Y-93980
X190500Y-96520
X190500Y-99060
X190500Y-101600
X190500Y-104140
X190500Y-106680
X190500Y-109220
X190500Y-111760
X190500Y-114300
X190500Y-116840
X190500Y-119380
X190500Y-121920
X190500Y-124460
X190500Y-127000
X190500Y-129540
X190500Y-132080
T6
X170180Y-47625
X170180Y-50165
X170180Y-52705
T7
X100965Y-53340
X105965Y-48340
X105965Y-50840
X105965Y-55840
X105965Y-58340
M30
