M48
; DRILL file {KiCad 7.0.9+1} date mar 26 dic 2023 22:59:45
; FORMAT={-:-/ absolute / inch / decimal}
; #@! TF.CreationDate,2023-12-26T22:59:45+01:00
; #@! TF.GenerationSoftware,Kicad,Pcbnew,7.0.9+1
; #@! TF.FileFunction,Plated,1,2,PTH
FMAT,2
INCH
; #@! TA.AperFunction,Plated,PTH,ViaDrill
T1C0.0157
; #@! TA.AperFunction,Plated,PTH,ComponentDrill
T2C0.0295
; #@! TA.AperFunction,Plated,PTH,ViaDrill
T3C0.0315
; #@! TA.AperFunction,Plated,PTH,ComponentDrill
T4C0.0315
; #@! TA.AperFunction,Plated,PTH,ComponentDrill
T5C0.0394
; #@! TA.AperFunction,Plated,PTH,ComponentDrill
T6C0.0433
; #@! TA.AperFunction,Plated,PTH,ComponentDrill
T7C0.0512
%
G90
G05
T1
X4.225Y-3.45
X5.1Y-5.1
X5.2Y-1.9
X5.2Y-2.0
X5.3Y-1.8
X5.3Y-1.9
X5.3Y-2.0
X5.4Y-1.8
X5.4Y-1.9
X5.4Y-2.0
X5.5Y-1.8
X5.5Y-1.9
X5.5Y-2.0
X5.6Y-1.8
X5.6Y-1.9
X5.6Y-2.0
X5.7Y-1.8
X5.7Y-1.9
X5.7Y-2.0
X5.8Y-1.8
X5.8Y-1.9
X5.8Y-2.0
X5.9Y-1.8
X5.9Y-1.9
X5.9Y-2.0
X6.0Y-1.8
X6.0Y-2.0
X6.1Y-1.8
X6.1Y-2.0
X6.2Y-1.8
X6.2Y-1.9
X6.2Y-2.0
X6.3Y-1.8
X6.3Y-1.9
X6.3Y-2.0
X6.4Y-1.8
X6.4Y-1.9
X6.4Y-2.0
X6.5Y-1.8
X6.5Y-1.9
X6.5Y-2.0
X7.1Y-2.495
T2
X7.1Y-2.2
X7.1Y-2.25
X7.1Y-2.3
T3
X5.55Y-3.075
X5.7Y-3.025
X5.7Y-3.15
T4
X4.0Y-2.8
X4.0Y-3.0
X4.0Y-3.125
X4.15Y-3.3
X4.15Y-3.4
X4.15Y-3.5
X4.15Y-3.6
X4.15Y-3.7
X4.15Y-3.8
X4.15Y-3.9
X4.15Y-4.0
X4.15Y-4.1
X4.15Y-4.2
X4.15Y-4.3
X4.15Y-4.4
X4.15Y-4.5
X4.15Y-4.6
X4.15Y-4.7
X4.15Y-4.8
X4.15Y-4.9
X4.15Y-5.0
X4.15Y-5.1
X4.15Y-5.2
X4.3Y-2.8
X4.3Y-2.9
X4.3Y-3.0
X4.3Y-3.125
X4.3Y-3.4
X4.3Y-3.5
X4.3Y-3.6
X4.4516Y-2.95
X4.6Y-3.4
X4.6Y-3.5
X4.6Y-3.6
X4.6484Y-2.95
X4.75Y-3.3
X4.75Y-3.4
X4.75Y-3.5
X4.75Y-3.6
X4.75Y-3.7
X4.75Y-3.8
X4.75Y-3.9
X4.75Y-4.0
X4.75Y-4.1
X4.75Y-4.2
X4.75Y-4.3
X4.75Y-4.4
X4.75Y-4.5
X4.75Y-4.6
X4.75Y-4.7
X4.75Y-4.8
X4.75Y-4.9
X4.75Y-5.0
X4.75Y-5.1
X4.75Y-5.2
X4.7516Y-3.05
X4.8Y-2.2
X4.8Y-2.3
X4.8Y-2.4
X4.8Y-2.5
X4.8Y-2.6
X4.8Y-2.7
X4.8Y-2.8
X4.9484Y-3.05
X4.95Y-3.3
X4.95Y-3.4
X4.95Y-3.5
X4.95Y-3.6
X4.95Y-3.7
X4.95Y-3.8
X4.95Y-3.9
X4.95Y-4.0
X4.95Y-4.1
X4.95Y-4.2
X4.95Y-4.3
X4.95Y-4.4
X4.95Y-4.5
X4.95Y-4.6
X4.95Y-4.7
X4.95Y-4.8
X4.95Y-4.9
X4.95Y-5.0
X4.95Y-5.1
X4.95Y-5.2
X5.1Y-1.8304
X5.1Y-2.0273
X5.1Y-2.2
X5.1Y-2.3
X5.1Y-2.4
X5.1Y-2.5
X5.1Y-2.6
X5.1Y-2.7
X5.1Y-2.8
X5.55Y-3.3
X5.55Y-3.4
X5.55Y-3.5
X5.55Y-3.6
X5.55Y-3.7
X5.55Y-3.8
X5.55Y-3.9
X5.55Y-4.0
X5.55Y-4.1
X5.55Y-4.2
X5.55Y-4.3
X5.55Y-4.4
X5.55Y-4.5
X5.55Y-4.6
X5.55Y-4.7
X5.55Y-4.8
X5.55Y-4.9
X5.55Y-5.0
X5.55Y-5.1
X5.55Y-5.2
X5.6Y-2.2
X5.6Y-2.3
X5.6Y-2.4
X5.6Y-2.5
X5.6Y-2.6
X5.6Y-2.7
X5.6Y-2.8
X5.9Y-2.2
X5.9Y-2.3
X5.9Y-2.4
X5.9Y-2.5
X5.9Y-2.6
X5.9Y-2.7
X5.9Y-2.8
X6.1Y-2.4
X6.1Y-2.7
X6.3Y-2.2
X6.3Y-2.3
X6.3Y-2.4
X6.3Y-2.5
X6.3Y-2.6
X6.3Y-2.7
X6.3Y-2.8
X6.3Y-3.9
X6.3Y-4.0
X6.3Y-4.1
X6.3Y-4.2
X6.3Y-4.3
X6.3Y-4.4
X6.3Y-4.5
X6.3Y-4.6
X6.3Y-4.7
X6.3Y-4.8
X6.3Y-4.9
X6.3Y-5.0
X6.3Y-5.1
X6.3Y-5.2
X6.6Y-2.2
X6.6Y-2.3
X6.6Y-2.4
X6.6Y-2.5
X6.6Y-2.6
X6.6Y-2.7
X6.6Y-2.8
X6.9Y-3.9
X6.9Y-4.0
X6.9Y-4.1
X6.9Y-4.2
X6.9Y-4.3
X6.9Y-4.4
X6.9Y-4.5
X6.9Y-4.6
X6.9Y-4.7
X6.9Y-4.8
X6.9Y-4.9
X6.9Y-5.0
X6.9Y-5.1
X6.9Y-5.2
X7.2Y-1.8016
X7.2Y-1.9984
T5
X3.9002Y-3.4
X3.9002Y-3.5
X3.9002Y-3.6
X3.9002Y-3.7
X3.9002Y-3.8
X3.9002Y-3.9
X3.9002Y-4.0
X3.9002Y-4.1
X3.9002Y-4.2
X3.9002Y-4.3
X3.9002Y-4.4
X3.9002Y-4.5
X3.9002Y-4.6
X4.0002Y-3.4
X4.0002Y-3.5
X4.0002Y-3.6
X4.0002Y-3.7
X4.0002Y-3.8
X4.0002Y-3.9
X4.0002Y-4.0
X4.0002Y-4.1
X4.0002Y-4.2
X4.0002Y-4.3
X4.0002Y-4.4
X4.0002Y-4.5
X4.0002Y-4.6
X7.4Y-2.1
X7.4Y-2.2
X7.4Y-2.3
X7.4Y-2.4
X7.4Y-2.5
X7.4Y-2.6
X7.4Y-2.7
X7.4Y-2.8
X7.4Y-2.9
X7.4Y-3.0
X7.4Y-3.1
X7.4Y-3.2
X7.4Y-3.3
X7.4Y-3.4
X7.4Y-3.5
X7.4Y-3.6
X7.4Y-3.7
X7.4Y-3.8
X7.4Y-3.9
X7.4Y-4.0
X7.4Y-4.1
X7.4Y-4.2
X7.4Y-4.3
X7.4Y-4.4
X7.4Y-4.5
X7.4Y-4.6
X7.4Y-4.7
X7.4Y-4.8
X7.4Y-4.9
X7.4Y-5.0
X7.4Y-5.1
X7.4Y-5.2
X7.5Y-2.1
X7.5Y-2.2
X7.5Y-2.3
X7.5Y-2.4
X7.5Y-2.5
X7.5Y-2.6
X7.5Y-2.7
X7.5Y-2.8
X7.5Y-2.9
X7.5Y-3.0
X7.5Y-3.1
X7.5Y-3.2
X7.5Y-3.3
X7.5Y-3.4
X7.5Y-3.5
X7.5Y-3.6
X7.5Y-3.7
X7.5Y-3.8
X7.5Y-3.9
X7.5Y-4.0
X7.5Y-4.1
X7.5Y-4.2
X7.5Y-4.3
X7.5Y-4.4
X7.5Y-4.5
X7.5Y-4.6
X7.5Y-4.7
X7.5Y-4.8
X7.5Y-4.9
X7.5Y-5.0
X7.5Y-5.1
X7.5Y-5.2
T6
X6.7Y-1.8
X6.7Y-1.9
X6.7Y-2.0
T7
X3.975Y-2.1
X4.1719Y-1.9031
X4.1719Y-2.0016
X4.1719Y-2.1984
X4.1719Y-2.2969
T0
M30
