%TF.GenerationSoftware,KiCad,Pcbnew,6.0.8-f2edbf62ab~116~ubuntu22.04.1*%
%TF.CreationDate,2022-10-11T22:44:32+02:00*%
%TF.ProjectId,QL_Qsound10x10,514c5f51-736f-4756-9e64-31307831302e,rev?*%
%TF.SameCoordinates,Original*%
%TF.FileFunction,Copper,L2,Bot*%
%TF.FilePolarity,Positive*%
%FSLAX46Y46*%
G04 Gerber Fmt 4.6, Leading zero omitted, Abs format (unit mm)*
G04 Created by KiCad (PCBNEW 6.0.8-f2edbf62ab~116~ubuntu22.04.1) date 2022-10-11 22:44:32*
%MOMM*%
%LPD*%
G01*
G04 APERTURE LIST*
G04 Aperture macros list*
%AMRoundRect*
0 Rectangle with rounded corners*
0 $1 Rounding radius*
0 $2 $3 $4 $5 $6 $7 $8 $9 X,Y pos of 4 corners*
0 Add a 4 corners polygon primitive as box body*
4,1,4,$2,$3,$4,$5,$6,$7,$8,$9,$2,$3,0*
0 Add four circle primitives for the rounded corners*
1,1,$1+$1,$2,$3*
1,1,$1+$1,$4,$5*
1,1,$1+$1,$6,$7*
1,1,$1+$1,$8,$9*
0 Add four rect primitives between the rounded corners*
20,1,$1+$1,$2,$3,$4,$5,0*
20,1,$1+$1,$4,$5,$6,$7,0*
20,1,$1+$1,$6,$7,$8,$9,0*
20,1,$1+$1,$8,$9,$2,$3,0*%
G04 Aperture macros list end*
%ADD10C,0.400000*%
%TA.AperFunction,NonConductor*%
%ADD11C,0.400000*%
%TD*%
%ADD12C,0.300000*%
%TA.AperFunction,NonConductor*%
%ADD13C,0.300000*%
%TD*%
%TA.AperFunction,ComponentPad*%
%ADD14R,2.400000X1.600000*%
%TD*%
%TA.AperFunction,ComponentPad*%
%ADD15O,2.400000X1.600000*%
%TD*%
%TA.AperFunction,ComponentPad*%
%ADD16C,1.600000*%
%TD*%
%TA.AperFunction,ComponentPad*%
%ADD17O,1.600000X1.600000*%
%TD*%
%TA.AperFunction,ComponentPad*%
%ADD18R,1.500000X1.050000*%
%TD*%
%TA.AperFunction,ComponentPad*%
%ADD19O,1.500000X1.050000*%
%TD*%
%TA.AperFunction,ComponentPad*%
%ADD20R,1.700000X1.700000*%
%TD*%
%TA.AperFunction,ComponentPad*%
%ADD21O,1.700000X1.700000*%
%TD*%
%TA.AperFunction,ComponentPad*%
%ADD22C,2.184400*%
%TD*%
%TA.AperFunction,ComponentPad*%
%ADD23O,2.000000X1.905000*%
%TD*%
%TA.AperFunction,ComponentPad*%
%ADD24R,2.000000X1.905000*%
%TD*%
%TA.AperFunction,ComponentPad*%
%ADD25C,1.550000*%
%TD*%
%TA.AperFunction,ComponentPad*%
%ADD26RoundRect,0.249999X-0.525001X0.525001X-0.525001X-0.525001X0.525001X-0.525001X0.525001X0.525001X0*%
%TD*%
%TA.AperFunction,ComponentPad*%
%ADD27R,1.600000X1.600000*%
%TD*%
%TA.AperFunction,ViaPad*%
%ADD28C,0.800000*%
%TD*%
%TA.AperFunction,ViaPad*%
%ADD29C,1.600000*%
%TD*%
%TA.AperFunction,Conductor*%
%ADD30C,0.250000*%
%TD*%
%TA.AperFunction,Conductor*%
%ADD31C,0.500000*%
%TD*%
G04 APERTURE END LIST*
D10*
D11*
X99425238Y-134365714D02*
X101425238Y-134365714D01*
X99425238Y-133127619D02*
X99520476Y-133318095D01*
X99615714Y-133413333D01*
X99806190Y-133508571D01*
X100377619Y-133508571D01*
X100568095Y-133413333D01*
X100663333Y-133318095D01*
X100758571Y-133127619D01*
X100758571Y-132841904D01*
X100663333Y-132651428D01*
X100568095Y-132556190D01*
X100377619Y-132460952D01*
X99806190Y-132460952D01*
X99615714Y-132556190D01*
X99520476Y-132651428D01*
X99425238Y-132841904D01*
X99425238Y-133127619D01*
X101425238Y-133318095D02*
X101330000Y-133222857D01*
X101234761Y-133318095D01*
X101330000Y-133413333D01*
X101425238Y-133318095D01*
X101234761Y-133318095D01*
X101425238Y-132556190D02*
X101330000Y-132460952D01*
X101234761Y-132556190D01*
X101330000Y-132651428D01*
X101425238Y-132556190D01*
X101234761Y-132556190D01*
X100758571Y-131889523D02*
X100758571Y-131127619D01*
X101425238Y-131603809D02*
X99710952Y-131603809D01*
X99520476Y-131508571D01*
X99425238Y-131318095D01*
X99425238Y-131127619D01*
X99520476Y-130556190D02*
X99425238Y-130365714D01*
X99425238Y-129984761D01*
X99520476Y-129794285D01*
X99710952Y-129699047D01*
X99806190Y-129699047D01*
X99996666Y-129794285D01*
X100091904Y-129984761D01*
X100091904Y-130270476D01*
X100187142Y-130460952D01*
X100377619Y-130556190D01*
X100472857Y-130556190D01*
X100663333Y-130460952D01*
X100758571Y-130270476D01*
X100758571Y-129984761D01*
X100663333Y-129794285D01*
D12*
D13*
X137334761Y-77533571D02*
X137334761Y-78676428D01*
X139334761Y-78105000D02*
X137334761Y-78105000D01*
D10*
D11*
X182323809Y-140604761D02*
X182990476Y-139652380D01*
X183466666Y-140604761D02*
X183466666Y-138604761D01*
X182704761Y-138604761D01*
X182514285Y-138700000D01*
X182419047Y-138795238D01*
X182323809Y-138985714D01*
X182323809Y-139271428D01*
X182419047Y-139461904D01*
X182514285Y-139557142D01*
X182704761Y-139652380D01*
X183466666Y-139652380D01*
X181466666Y-139557142D02*
X180800000Y-139557142D01*
X180514285Y-140604761D02*
X181466666Y-140604761D01*
X181466666Y-138604761D01*
X180514285Y-138604761D01*
X179657142Y-139842857D02*
X178133333Y-139842857D01*
X175847619Y-140795238D02*
X176038095Y-140700000D01*
X176228571Y-140509523D01*
X176514285Y-140223809D01*
X176704761Y-140128571D01*
X176895238Y-140128571D01*
X176800000Y-140604761D02*
X176990476Y-140509523D01*
X177180952Y-140319047D01*
X177276190Y-139938095D01*
X177276190Y-139271428D01*
X177180952Y-138890476D01*
X176990476Y-138700000D01*
X176800000Y-138604761D01*
X176419047Y-138604761D01*
X176228571Y-138700000D01*
X176038095Y-138890476D01*
X175942857Y-139271428D01*
X175942857Y-139938095D01*
X176038095Y-140319047D01*
X176228571Y-140509523D01*
X176419047Y-140604761D01*
X176800000Y-140604761D01*
X175180952Y-140509523D02*
X174895238Y-140604761D01*
X174419047Y-140604761D01*
X174228571Y-140509523D01*
X174133333Y-140414285D01*
X174038095Y-140223809D01*
X174038095Y-140033333D01*
X174133333Y-139842857D01*
X174228571Y-139747619D01*
X174419047Y-139652380D01*
X174800000Y-139557142D01*
X174990476Y-139461904D01*
X175085714Y-139366666D01*
X175180952Y-139176190D01*
X175180952Y-138985714D01*
X175085714Y-138795238D01*
X174990476Y-138700000D01*
X174800000Y-138604761D01*
X174323809Y-138604761D01*
X174038095Y-138700000D01*
X173180952Y-140604761D02*
X173180952Y-138604761D01*
X172419047Y-138604761D01*
X172228571Y-138700000D01*
X172133333Y-138795238D01*
X172038095Y-138985714D01*
X172038095Y-139271428D01*
X172133333Y-139461904D01*
X172228571Y-139557142D01*
X172419047Y-139652380D01*
X173180952Y-139652380D01*
D14*
%TO.P,U7,1,VSS*%
%TO.N,GND*%
X125730000Y-83820000D03*
D15*
%TO.P,U7,2,PA0*%
%TO.N,Net-(U6-Pad37)*%
X125730000Y-86360000D03*
%TO.P,U7,3,PA1*%
%TO.N,Net-(U6-Pad36)*%
X125730000Y-88900000D03*
%TO.P,U7,4,PA2*%
%TO.N,Net-(U6-Pad35)*%
X125730000Y-91440000D03*
%TO.P,U7,5,PA3*%
%TO.N,Net-(U6-Pad34)*%
X125730000Y-93980000D03*
%TO.P,U7,6,PA4*%
%TO.N,Net-(U6-Pad33)*%
X125730000Y-96520000D03*
%TO.P,U7,7,PA5*%
%TO.N,Net-(U6-Pad32)*%
X125730000Y-99060000D03*
%TO.P,U7,8,PA6*%
%TO.N,Net-(U6-Pad31)*%
X125730000Y-101600000D03*
%TO.P,U7,9,PA7*%
%TO.N,Net-(U6-Pad30)*%
X125730000Y-104140000D03*
%TO.P,U7,10,PB0*%
%TO.N,Net-(U6-Pad29)*%
X125730000Y-106680000D03*
%TO.P,U7,11,PB1*%
%TO.N,unconnected-(U7-Pad11)*%
X125730000Y-109220000D03*
%TO.P,U7,12,PB2*%
%TO.N,Net-(U6-Pad27)*%
X125730000Y-111760000D03*
%TO.P,U7,13,PB3*%
%TO.N,/P_Strobe*%
X125730000Y-114300000D03*
%TO.P,U7,14,PB4*%
%TO.N,/P_Busy*%
X125730000Y-116840000D03*
%TO.P,U7,15,PB5*%
%TO.N,unconnected-(U7-Pad15)*%
X125730000Y-119380000D03*
%TO.P,U7,16,PB6*%
%TO.N,unconnected-(U7-Pad16)*%
X125730000Y-121920000D03*
%TO.P,U7,17,PB7*%
%TO.N,unconnected-(U7-Pad17)*%
X125730000Y-124460000D03*
%TO.P,U7,18,CB1*%
%TO.N,unconnected-(U7-Pad18)*%
X125730000Y-127000000D03*
%TO.P,U7,19,CB2*%
%TO.N,unconnected-(U7-Pad19)*%
X125730000Y-129540000D03*
%TO.P,U7,20,VCC*%
%TO.N,VCC*%
X125730000Y-132080000D03*
%TO.P,U7,21,R/~{W}*%
%TO.N,/RW*%
X140970000Y-132080000D03*
%TO.P,U7,22,CS0*%
%TO.N,/A13*%
X140970000Y-129540000D03*
%TO.P,U7,23,~{CS2}*%
%TO.N,/CS2{slash}OE*%
X140970000Y-127000000D03*
%TO.P,U7,24,CS1*%
%TO.N,/A13*%
X140970000Y-124460000D03*
%TO.P,U7,25,ENABLE*%
%TO.N,/E*%
X140970000Y-121920000D03*
%TO.P,U7,26,D7*%
%TO.N,/D7*%
X140970000Y-119380000D03*
%TO.P,U7,27,D6*%
%TO.N,/D6*%
X140970000Y-116840000D03*
%TO.P,U7,28,D5*%
%TO.N,/D5*%
X140970000Y-114300000D03*
%TO.P,U7,29,D4*%
%TO.N,/D4*%
X140970000Y-111760000D03*
%TO.P,U7,30,D3*%
%TO.N,/D3*%
X140970000Y-109220000D03*
%TO.P,U7,31,D2*%
%TO.N,/D2*%
X140970000Y-106680000D03*
%TO.P,U7,32,D1*%
%TO.N,/D1*%
X140970000Y-104140000D03*
%TO.P,U7,33,D0*%
%TO.N,/D0*%
X140970000Y-101600000D03*
%TO.P,U7,34,~{RESET}*%
%TO.N,/RESET*%
X140970000Y-99060000D03*
%TO.P,U7,35,RS1*%
%TO.N,/A1*%
X140970000Y-96520000D03*
%TO.P,U7,36,RS0*%
%TO.N,/A0*%
X140970000Y-93980000D03*
%TO.P,U7,37,~{IRQB}*%
%TO.N,unconnected-(U7-Pad37)*%
X140970000Y-91440000D03*
%TO.P,U7,38,~{IRQA}*%
%TO.N,unconnected-(U7-Pad38)*%
X140970000Y-88900000D03*
%TO.P,U7,39,CA2*%
%TO.N,unconnected-(U7-Pad39)*%
X140970000Y-86360000D03*
%TO.P,U7,40,CA1*%
%TO.N,unconnected-(U7-Pad40)*%
X140970000Y-83820000D03*
%TD*%
D16*
%TO.P,C5,1*%
%TO.N,VCC*%
X120690000Y-77470000D03*
%TO.P,C5,2*%
%TO.N,GND*%
X125690000Y-77470000D03*
%TD*%
%TO.P,R5,1*%
%TO.N,GND*%
X109220000Y-79375000D03*
D17*
%TO.P,R5,2*%
%TO.N,Net-(R2-Pad1)*%
X101600000Y-79375000D03*
%TD*%
D18*
%TO.P,Q1,1,E*%
%TO.N,/DSMC*%
X180340000Y-58420000D03*
D19*
%TO.P,Q1,2,B*%
%TO.N,Net-(Q1-Pad2)*%
X180340000Y-57150000D03*
%TO.P,Q1,3,C*%
%TO.N,VCC*%
X180340000Y-55880000D03*
%TD*%
D16*
%TO.P,R4,1*%
%TO.N,Net-(R4-Pad1)*%
X109220000Y-88900000D03*
D17*
%TO.P,R4,2*%
%TO.N,Net-(R2-Pad1)*%
X116840000Y-88900000D03*
%TD*%
D16*
%TO.P,R6,1*%
%TO.N,Net-(R6-Pad1)*%
X109220000Y-86360000D03*
D17*
%TO.P,R6,2*%
%TO.N,Net-(R2-Pad1)*%
X116840000Y-86360000D03*
%TD*%
D14*
%TO.P,U2,1*%
%TO.N,unconnected-(U2-Pad1)*%
X149860000Y-71120000D03*
D15*
%TO.P,U2,2*%
%TO.N,unconnected-(U2-Pad2)*%
X149860000Y-68580000D03*
%TO.P,U2,3*%
%TO.N,/A19*%
X149860000Y-66040000D03*
%TO.P,U2,4*%
%TO.N,/A18*%
X149860000Y-63500000D03*
%TO.P,U2,5*%
%TO.N,Net-(R1-Pad2)*%
X149860000Y-60960000D03*
%TO.P,U2,6*%
%TO.N,/CS2{slash}OE*%
X149860000Y-58420000D03*
%TO.P,U2,7,GND*%
%TO.N,GND*%
X149860000Y-55880000D03*
%TO.P,U2,8*%
%TO.N,Net-(Q1-Pad2)*%
X142240000Y-55880000D03*
%TO.P,U2,9*%
%TO.N,/CS2{slash}OE*%
X142240000Y-58420000D03*
%TO.P,U2,10*%
X142240000Y-60960000D03*
%TO.P,U2,11*%
X142240000Y-63500000D03*
%TO.P,U2,12*%
%TO.N,unconnected-(U2-Pad12)*%
X142240000Y-66040000D03*
%TO.P,U2,13*%
%TO.N,unconnected-(U2-Pad13)*%
X142240000Y-68580000D03*
%TO.P,U2,14,VCC*%
%TO.N,VCC*%
X142240000Y-71120000D03*
%TD*%
D20*
%TO.P,J2,1,Pin_1*%
%TO.N,/P_Strobe*%
X101605000Y-116840000D03*
D21*
%TO.P,J2,2,Pin_2*%
%TO.N,GND*%
X99065000Y-116840000D03*
%TO.P,J2,3,Pin_3*%
%TO.N,Net-(J2-Pad3)*%
X101605000Y-114300000D03*
%TO.P,J2,4,Pin_4*%
%TO.N,GND*%
X99065000Y-114300000D03*
%TO.P,J2,5,Pin_5*%
%TO.N,Net-(J2-Pad5)*%
X101605000Y-111760000D03*
%TO.P,J2,6,Pin_6*%
%TO.N,GND*%
X99065000Y-111760000D03*
%TO.P,J2,7,Pin_7*%
%TO.N,Net-(J2-Pad7)*%
X101605000Y-109220000D03*
%TO.P,J2,8,Pin_8*%
%TO.N,GND*%
X99065000Y-109220000D03*
%TO.P,J2,9,Pin_9*%
%TO.N,Net-(J2-Pad9)*%
X101605000Y-106680000D03*
%TO.P,J2,10,Pin_10*%
%TO.N,GND*%
X99065000Y-106680000D03*
%TO.P,J2,11,Pin_11*%
%TO.N,Net-(J2-Pad11)*%
X101605000Y-104140000D03*
%TO.P,J2,12,Pin_12*%
%TO.N,GND*%
X99065000Y-104140000D03*
%TO.P,J2,13,Pin_13*%
%TO.N,Net-(J2-Pad13)*%
X101605000Y-101600000D03*
%TO.P,J2,14,Pin_14*%
%TO.N,GND*%
X99065000Y-101600000D03*
%TO.P,J2,15,Pin_15*%
%TO.N,Net-(J2-Pad15)*%
X101605000Y-99060000D03*
%TO.P,J2,16,Pin_16*%
%TO.N,GND*%
X99065000Y-99060000D03*
%TO.P,J2,17,Pin_17*%
%TO.N,Net-(J2-Pad17)*%
X101605000Y-96520000D03*
%TO.P,J2,18,Pin_18*%
%TO.N,GND*%
X99065000Y-96520000D03*
%TO.P,J2,19,Pin_19*%
%TO.N,unconnected-(J2-Pad19)*%
X101605000Y-93980000D03*
%TO.P,J2,20,Pin_20*%
%TO.N,GND*%
X99065000Y-93980000D03*
%TO.P,J2,21,Pin_21*%
%TO.N,/P_Busy*%
X101605000Y-91440000D03*
%TO.P,J2,22,Pin_22*%
%TO.N,GND*%
X99065000Y-91440000D03*
%TO.P,J2,23,Pin_23*%
%TO.N,unconnected-(J2-Pad23)*%
X101605000Y-88900000D03*
%TO.P,J2,24,Pin_24*%
%TO.N,GND*%
X99065000Y-88900000D03*
%TO.P,J2,25,Pin_25*%
%TO.N,unconnected-(J2-Pad25)*%
X101605000Y-86360000D03*
%TO.P,J2,26,Pin_26*%
%TO.N,GND*%
X99065000Y-86360000D03*
%TD*%
D16*
%TO.P,C3,1*%
%TO.N,VCC*%
X118070000Y-74930000D03*
%TO.P,C3,2*%
%TO.N,GND*%
X113070000Y-74930000D03*
%TD*%
%TO.P,J4,1,Pin_1*%
%TO.N,GND*%
X109220000Y-73660000D03*
%TD*%
%TO.P,R7,1*%
%TO.N,Net-(J3-PadS)*%
X101600000Y-71120000D03*
D17*
%TO.P,R7,2*%
%TO.N,Net-(J3-PadT)*%
X109220000Y-71120000D03*
%TD*%
D16*
%TO.P,R2,1*%
%TO.N,Net-(R2-Pad1)*%
X101600000Y-76200000D03*
D17*
%TO.P,R2,2*%
%TO.N,Net-(J3-PadS)*%
X109220000Y-76200000D03*
%TD*%
D16*
%TO.P,R3,1*%
%TO.N,Net-(R3-Pad1)*%
X109220000Y-91440000D03*
D17*
%TO.P,R3,2*%
%TO.N,Net-(R2-Pad1)*%
X116840000Y-91440000D03*
%TD*%
D16*
%TO.P,R1,1*%
%TO.N,VCC*%
X154940000Y-68580000D03*
D17*
%TO.P,R1,2*%
%TO.N,Net-(R1-Pad2)*%
X154940000Y-60960000D03*
%TD*%
D14*
%TO.P,U5,1*%
%TO.N,/DS*%
X129540000Y-71120000D03*
D15*
%TO.P,U5,2*%
X129540000Y-68580000D03*
%TO.P,U5,3*%
%TO.N,Net-(R1-Pad2)*%
X129540000Y-66040000D03*
%TO.P,U5,4*%
%TO.N,Net-(U5-Pad4)*%
X129540000Y-63500000D03*
%TO.P,U5,5*%
%TO.N,Net-(Q1-Pad2)*%
X129540000Y-60960000D03*
%TO.P,U5,6*%
%TO.N,/VPA*%
X129540000Y-58420000D03*
%TO.P,U5,7,GND*%
%TO.N,GND*%
X129540000Y-55880000D03*
%TO.P,U5,8*%
%TO.N,unconnected-(U5-Pad8)*%
X121920000Y-55880000D03*
%TO.P,U5,9*%
%TO.N,unconnected-(U5-Pad9)*%
X121920000Y-58420000D03*
%TO.P,U5,10*%
%TO.N,unconnected-(U5-Pad10)*%
X121920000Y-60960000D03*
%TO.P,U5,11*%
%TO.N,Net-(U5-Pad4)*%
X121920000Y-63500000D03*
%TO.P,U5,12*%
%TO.N,/E*%
X121920000Y-66040000D03*
%TO.P,U5,13*%
X121920000Y-68580000D03*
%TO.P,U5,14,VCC*%
%TO.N,VCC*%
X121920000Y-71120000D03*
%TD*%
D22*
%TO.P,J3,TN*%
%TO.N,unconnected-(J3-PadTN)*%
X105965000Y-58340000D03*
%TO.P,J3,T*%
%TO.N,Net-(J3-PadT)*%
X105965000Y-55840000D03*
%TO.P,J3,SN*%
%TO.N,unconnected-(J3-PadSN)*%
X105965000Y-50840000D03*
%TO.P,J3,S*%
%TO.N,Net-(J3-PadS)*%
X105965000Y-48340000D03*
%TO.P,J3,G*%
%TO.N,GND*%
X100965000Y-53340000D03*
%TD*%
D14*
%TO.P,U3,1*%
%TO.N,/A17*%
X167640000Y-71120000D03*
D15*
%TO.P,U3,2*%
%TO.N,/SP3*%
X167640000Y-68580000D03*
%TO.P,U3,3*%
%TO.N,Net-(R1-Pad2)*%
X167640000Y-66040000D03*
%TO.P,U3,4*%
X167640000Y-63500000D03*
%TO.P,U3,5*%
%TO.N,/SP0*%
X167640000Y-60960000D03*
%TO.P,U3,6*%
%TO.N,/A14*%
X167640000Y-58420000D03*
%TO.P,U3,7,GND*%
%TO.N,GND*%
X167640000Y-55880000D03*
%TO.P,U3,8*%
%TO.N,/SP1*%
X160020000Y-55880000D03*
%TO.P,U3,9*%
%TO.N,/A15*%
X160020000Y-58420000D03*
%TO.P,U3,10*%
%TO.N,Net-(R1-Pad2)*%
X160020000Y-60960000D03*
%TO.P,U3,11*%
X160020000Y-63500000D03*
%TO.P,U3,12*%
%TO.N,/SP2*%
X160020000Y-66040000D03*
%TO.P,U3,13*%
%TO.N,/A16*%
X160020000Y-68580000D03*
%TO.P,U3,14,VCC*%
%TO.N,VCC*%
X160020000Y-71120000D03*
%TD*%
D16*
%TO.P,C2,1*%
%TO.N,+9V*%
X182880000Y-50760000D03*
%TO.P,C2,2*%
%TO.N,GND*%
X182880000Y-45760000D03*
%TD*%
D23*
%TO.P,U1,3,OUT*%
%TO.N,VCC*%
X170180000Y-45720000D03*
%TO.P,U1,2,GND*%
%TO.N,GND*%
X170180000Y-48260000D03*
D24*
%TO.P,U1,1,IN*%
%TO.N,+9V*%
X170180000Y-50800000D03*
%TD*%
D14*
%TO.P,U6,1,Vss*%
%TO.N,GND*%
X105410000Y-83820000D03*
D15*
%TO.P,U6,2,N/C*%
%TO.N,unconnected-(U6-Pad2)*%
X105410000Y-86360000D03*
%TO.P,U6,3,ch_B*%
%TO.N,Net-(R4-Pad1)*%
X105410000Y-88900000D03*
%TO.P,U6,4,ch_A*%
%TO.N,Net-(R3-Pad1)*%
X105410000Y-91440000D03*
%TO.P,U6,5,N/C*%
%TO.N,unconnected-(U6-Pad5)*%
X105410000Y-93980000D03*
%TO.P,U6,6,IOB7*%
%TO.N,Net-(J2-Pad17)*%
X105410000Y-96520000D03*
%TO.P,U6,7,IOB6*%
%TO.N,Net-(J2-Pad15)*%
X105410000Y-99060000D03*
%TO.P,U6,8,IOB5*%
%TO.N,Net-(J2-Pad13)*%
X105410000Y-101600000D03*
%TO.P,U6,9,IOB4*%
%TO.N,Net-(J2-Pad11)*%
X105410000Y-104140000D03*
%TO.P,U6,10,IOB3*%
%TO.N,Net-(J2-Pad9)*%
X105410000Y-106680000D03*
%TO.P,U6,11,IOB2*%
%TO.N,Net-(J2-Pad7)*%
X105410000Y-109220000D03*
%TO.P,U6,12,IOB1*%
%TO.N,Net-(J2-Pad5)*%
X105410000Y-111760000D03*
%TO.P,U6,13,IOB0*%
%TO.N,Net-(J2-Pad3)*%
X105410000Y-114300000D03*
%TO.P,U6,14,IOA7*%
%TO.N,unconnected-(U6-Pad14)*%
X105410000Y-116840000D03*
%TO.P,U6,15,IOA6*%
%TO.N,unconnected-(U6-Pad15)*%
X105410000Y-119380000D03*
%TO.P,U6,16,IOA5*%
%TO.N,unconnected-(U6-Pad16)*%
X105410000Y-121920000D03*
%TO.P,U6,17,IOA4*%
%TO.N,unconnected-(U6-Pad17)*%
X105410000Y-124460000D03*
%TO.P,U6,18,IOA3*%
%TO.N,unconnected-(U6-Pad18)*%
X105410000Y-127000000D03*
%TO.P,U6,19,IOA2*%
%TO.N,unconnected-(U6-Pad19)*%
X105410000Y-129540000D03*
%TO.P,U6,20,IOA1*%
%TO.N,unconnected-(U6-Pad20)*%
X105410000Y-132080000D03*
%TO.P,U6,21,IOA0*%
%TO.N,unconnected-(U6-Pad21)*%
X120650000Y-132080000D03*
%TO.P,U6,22,CLOCK*%
%TO.N,/E*%
X120650000Y-129540000D03*
%TO.P,U6,23,~{RESET}*%
%TO.N,/RESET*%
X120650000Y-127000000D03*
%TO.P,U6,24,~{A9}*%
%TO.N,GND*%
X120650000Y-124460000D03*
%TO.P,U6,25,A8*%
%TO.N,VCC*%
X120650000Y-121920000D03*
%TO.P,U6,26,TEST2*%
%TO.N,unconnected-(U6-Pad26)*%
X120650000Y-119380000D03*
%TO.P,U6,27,BDIR*%
%TO.N,Net-(U6-Pad27)*%
X120650000Y-116840000D03*
%TO.P,U6,28,BC2*%
%TO.N,VCC*%
X120650000Y-114300000D03*
%TO.P,U6,29,BC1*%
%TO.N,Net-(U6-Pad29)*%
X120650000Y-111760000D03*
%TO.P,U6,30,D7*%
%TO.N,Net-(U6-Pad30)*%
X120650000Y-109220000D03*
%TO.P,U6,31,D6*%
%TO.N,Net-(U6-Pad31)*%
X120650000Y-106680000D03*
%TO.P,U6,32,D5*%
%TO.N,Net-(U6-Pad32)*%
X120650000Y-104140000D03*
%TO.P,U6,33,D4*%
%TO.N,Net-(U6-Pad33)*%
X120650000Y-101600000D03*
%TO.P,U6,34,D3*%
%TO.N,Net-(U6-Pad34)*%
X120650000Y-99060000D03*
%TO.P,U6,35,D2*%
%TO.N,Net-(U6-Pad35)*%
X120650000Y-96520000D03*
%TO.P,U6,36,D1*%
%TO.N,Net-(U6-Pad36)*%
X120650000Y-93980000D03*
%TO.P,U6,37,D0*%
%TO.N,Net-(U6-Pad37)*%
X120650000Y-91440000D03*
%TO.P,U6,38,ch_C*%
%TO.N,Net-(R6-Pad1)*%
X120650000Y-88900000D03*
%TO.P,U6,39,TEST1*%
%TO.N,unconnected-(U6-Pad39)*%
X120650000Y-86360000D03*
%TO.P,U6,40,Vcc*%
%TO.N,VCC*%
X120650000Y-83820000D03*
%TD*%
D25*
%TO.P,J1,b32,GND*%
%TO.N,GND*%
X187960000Y-132080000D03*
%TO.P,J1,b31,D2*%
%TO.N,/D2*%
X187960000Y-129540000D03*
%TO.P,J1,b30,D1*%
%TO.N,/D1*%
X187960000Y-127000000D03*
%TO.P,J1,b29,D0*%
%TO.N,/D0*%
X187960000Y-124460000D03*
%TO.P,J1,b28,~{AS}*%
%TO.N,unconnected-(J1-Padb28)*%
X187960000Y-121920000D03*
%TO.P,J1,b27,~{DS}*%
%TO.N,/DS*%
X187960000Y-119380000D03*
%TO.P,J1,b26,~{DRW}*%
%TO.N,/RW*%
X187960000Y-116840000D03*
%TO.P,J1,b25,~{DTACK}*%
%TO.N,/DTACK*%
X187960000Y-114300000D03*
%TO.P,J1,b24,~{BG}*%
%TO.N,unconnected-(J1-Padb24)*%
X187960000Y-111760000D03*
%TO.P,J1,b23,~{BR}*%
%TO.N,unconnected-(J1-Padb23)*%
X187960000Y-109220000D03*
%TO.P,J1,b22,A15*%
%TO.N,/A15*%
X187960000Y-106680000D03*
%TO.P,J1,b21,~{RESETCPU}*%
%TO.N,/RESET*%
X187960000Y-104140000D03*
%TO.P,J1,b20,~{CSYNC}*%
%TO.N,unconnected-(J1-Padb20)*%
X187960000Y-101600000D03*
%TO.P,J1,b19,E*%
%TO.N,/E*%
X187960000Y-99060000D03*
%TO.P,J1,b18,VSYNCH*%
%TO.N,unconnected-(J1-Padb18)*%
X187960000Y-96520000D03*
%TO.P,J1,b17,~{VPA}*%
%TO.N,/VPA*%
X187960000Y-93980000D03*
%TO.P,J1,b16,GREEN*%
%TO.N,unconnected-(J1-Padb16)*%
X187960000Y-91440000D03*
%TO.P,J1,b15,BLUE*%
%TO.N,unconnected-(J1-Padb15)*%
X187960000Y-88900000D03*
%TO.P,J1,b14,FC2*%
%TO.N,unconnected-(J1-Padb14)*%
X187960000Y-86360000D03*
%TO.P,J1,b13,FC1*%
%TO.N,unconnected-(J1-Padb13)*%
X187960000Y-83820000D03*
%TO.P,J1,b12,FC0*%
%TO.N,unconnected-(J1-Padb12)*%
X187960000Y-81280000D03*
%TO.P,J1,b11,A0*%
%TO.N,/A0*%
X187960000Y-78740000D03*
%TO.P,J1,b10,ROMOEH*%
%TO.N,unconnected-(J1-Padb10)*%
X187960000Y-76200000D03*
%TO.P,J1,b9,G9*%
%TO.N,/A1*%
X187960000Y-73660000D03*
%TO.P,J1,b8,A2*%
%TO.N,/A2*%
X187960000Y-71120000D03*
%TO.P,J1,b7,SP3*%
%TO.N,/SP3*%
X187960000Y-68580000D03*
%TO.P,J1,b6,~{IPLO}*%
%TO.N,unconnected-(J1-Padb6)*%
X187960000Y-66040000D03*
%TO.P,J1,b5,~{BERR}*%
%TO.N,unconnected-(J1-Padb5)*%
X187960000Y-63500000D03*
%TO.P,J1,b4,~{IPL1}*%
%TO.N,unconnected-(J1-Padb4)*%
X187960000Y-60960000D03*
%TO.P,J1,b3,~{EXTINT}*%
%TO.N,unconnected-(J1-Padb3)*%
X187960000Y-58420000D03*
%TO.P,J1,b2,Vin*%
%TO.N,+9V*%
X187960000Y-55880000D03*
%TO.P,J1,b1,Vin*%
X187960000Y-53340000D03*
%TO.P,J1,a32,GND*%
%TO.N,GND*%
X190500000Y-132080000D03*
%TO.P,J1,a31,D3*%
%TO.N,/D3*%
X190500000Y-129540000D03*
%TO.P,J1,a30,D4*%
%TO.N,/D4*%
X190500000Y-127000000D03*
%TO.P,J1,a29,D5*%
%TO.N,/D5*%
X190500000Y-124460000D03*
%TO.P,J1,a28,D6*%
%TO.N,/D6*%
X190500000Y-121920000D03*
%TO.P,J1,a27,D7*%
%TO.N,/D7*%
X190500000Y-119380000D03*
%TO.P,J1,a26,A19*%
%TO.N,/A19*%
X190500000Y-116840000D03*
%TO.P,J1,a25,A18*%
%TO.N,/A18*%
X190500000Y-114300000D03*
%TO.P,J1,a24,A17*%
%TO.N,/A17*%
X190500000Y-111760000D03*
%TO.P,J1,a23,A16*%
%TO.N,/A16*%
X190500000Y-109220000D03*
%TO.P,J1,a22,CLKCPU*%
%TO.N,unconnected-(J1-Pada22)*%
X190500000Y-106680000D03*
%TO.P,J1,a21,RED*%
%TO.N,unconnected-(J1-Pada21)*%
X190500000Y-104140000D03*
%TO.P,J1,a20,A14*%
%TO.N,/A14*%
X190500000Y-101600000D03*
%TO.P,J1,a19,A13*%
%TO.N,/A13*%
X190500000Y-99060000D03*
%TO.P,J1,a18,A12*%
%TO.N,/A12*%
X190500000Y-96520000D03*
%TO.P,J1,a17,A11*%
%TO.N,/A11*%
X190500000Y-93980000D03*
%TO.P,J1,a16,A10*%
%TO.N,/A10*%
X190500000Y-91440000D03*
%TO.P,J1,a15,A9*%
%TO.N,/A9*%
X190500000Y-88900000D03*
%TO.P,J1,a14,A8*%
%TO.N,/A8*%
X190500000Y-86360000D03*
%TO.P,J1,a13,A7*%
%TO.N,/A7*%
X190500000Y-83820000D03*
%TO.P,J1,a12,A6*%
%TO.N,/A6*%
X190500000Y-81280000D03*
%TO.P,J1,a11,A5*%
%TO.N,/A5*%
X190500000Y-78740000D03*
%TO.P,J1,a10,A4*%
%TO.N,/A4*%
X190500000Y-76200000D03*
%TO.P,J1,a9,A3*%
%TO.N,/A3*%
X190500000Y-73660000D03*
%TO.P,J1,a8,~{DBG}*%
%TO.N,unconnected-(J1-Pada8)*%
X190500000Y-71120000D03*
%TO.P,J1,a7,SP2*%
%TO.N,/SP2*%
X190500000Y-68580000D03*
%TO.P,J1,a6,~{DSMC}*%
%TO.N,/DSMC*%
X190500000Y-66040000D03*
%TO.P,J1,a5,SP1*%
%TO.N,/SP1*%
X190500000Y-63500000D03*
%TO.P,J1,a4,SP0*%
%TO.N,/SP0*%
X190500000Y-60960000D03*
%TO.P,J1,a3,+12V*%
%TO.N,unconnected-(J1-Pada3)*%
X190500000Y-58420000D03*
%TO.P,J1,a2,-12V*%
%TO.N,unconnected-(J1-Pada2)*%
X190500000Y-55880000D03*
D26*
%TO.P,J1,a1,Vin*%
%TO.N,+9V*%
X190500000Y-53340000D03*
%TD*%
D27*
%TO.P,C4,1*%
%TO.N,VCC*%
X134620000Y-48340000D03*
D16*
%TO.P,C4,2*%
%TO.N,GND*%
X134620000Y-53340000D03*
%TD*%
D14*
%TO.P,U4,1,A15*%
%TO.N,VCC*%
X160020000Y-99060000D03*
D15*
%TO.P,U4,2,A12*%
%TO.N,/A12*%
X160020000Y-101600000D03*
%TO.P,U4,3,A7*%
%TO.N,/A7*%
X160020000Y-104140000D03*
%TO.P,U4,4,A6*%
%TO.N,/A6*%
X160020000Y-106680000D03*
%TO.P,U4,5,A5*%
%TO.N,/A5*%
X160020000Y-109220000D03*
%TO.P,U4,6,A4*%
%TO.N,/A4*%
X160020000Y-111760000D03*
%TO.P,U4,7,A3*%
%TO.N,/A3*%
X160020000Y-114300000D03*
%TO.P,U4,8,A2*%
%TO.N,/A2*%
X160020000Y-116840000D03*
%TO.P,U4,9,A1*%
%TO.N,/A1*%
X160020000Y-119380000D03*
%TO.P,U4,10,A0*%
%TO.N,/A0*%
X160020000Y-121920000D03*
%TO.P,U4,11,D0*%
%TO.N,/D0*%
X160020000Y-124460000D03*
%TO.P,U4,12,D1*%
%TO.N,/D1*%
X160020000Y-127000000D03*
%TO.P,U4,13,D2*%
%TO.N,/D2*%
X160020000Y-129540000D03*
%TO.P,U4,14,GND*%
%TO.N,GND*%
X160020000Y-132080000D03*
%TO.P,U4,15,D3*%
%TO.N,/D3*%
X175260000Y-132080000D03*
%TO.P,U4,16,D4*%
%TO.N,/D4*%
X175260000Y-129540000D03*
%TO.P,U4,17,D5*%
%TO.N,/D5*%
X175260000Y-127000000D03*
%TO.P,U4,18,D6*%
%TO.N,/D6*%
X175260000Y-124460000D03*
%TO.P,U4,19,D7*%
%TO.N,/D7*%
X175260000Y-121920000D03*
%TO.P,U4,20,~{CE}*%
%TO.N,/CS2{slash}OE*%
X175260000Y-119380000D03*
%TO.P,U4,21,A10*%
%TO.N,/A10*%
X175260000Y-116840000D03*
%TO.P,U4,22,~{OE/Vpp}*%
%TO.N,/A13*%
X175260000Y-114300000D03*
%TO.P,U4,23,A11*%
%TO.N,/A11*%
X175260000Y-111760000D03*
%TO.P,U4,24,A9*%
%TO.N,/A9*%
X175260000Y-109220000D03*
%TO.P,U4,25,A8*%
%TO.N,/A8*%
X175260000Y-106680000D03*
%TO.P,U4,26,A13*%
%TO.N,VCC*%
X175260000Y-104140000D03*
%TO.P,U4,27,A14*%
X175260000Y-101600000D03*
%TO.P,U4,28,VCC*%
X175260000Y-99060000D03*
%TD*%
D28*
%TO.N,/CS2{slash}OE*%
X133350000Y-72390000D03*
X133350000Y-114300000D03*
%TO.N,GND*%
X149860000Y-48260000D03*
X144780000Y-50800000D03*
X162560000Y-48260000D03*
X160020000Y-48260000D03*
X139700000Y-53340000D03*
X142240000Y-45720000D03*
X157480000Y-53340000D03*
X149860000Y-50800000D03*
X139700000Y-48260000D03*
X165100000Y-50800000D03*
X149860000Y-45720000D03*
X147320000Y-48260000D03*
X137160000Y-48260000D03*
X144780000Y-53340000D03*
X165100000Y-45720000D03*
X154940000Y-53340000D03*
X147320000Y-53340000D03*
X160020000Y-45720000D03*
X139700000Y-45720000D03*
X152400000Y-50800000D03*
X162560000Y-50800000D03*
X157480000Y-50800000D03*
X162560000Y-45720000D03*
X137160000Y-50800000D03*
X154940000Y-50800000D03*
X154940000Y-45720000D03*
X157480000Y-48260000D03*
X144780000Y-48260000D03*
X157480000Y-45720000D03*
X152400000Y-45720000D03*
X160020000Y-53340000D03*
X160020000Y-50800000D03*
X142240000Y-53340000D03*
X147320000Y-50800000D03*
X144780000Y-45720000D03*
X165100000Y-53340000D03*
X139700000Y-50800000D03*
X165100000Y-48260000D03*
X147320000Y-45720000D03*
X152400000Y-53340000D03*
X142240000Y-50800000D03*
X137160000Y-53340000D03*
X142240000Y-48260000D03*
X162560000Y-53340000D03*
X149860000Y-53340000D03*
D29*
%TO.N,VCC*%
X144780000Y-80010000D03*
X140970000Y-78105000D03*
X144780000Y-76835000D03*
D28*
%TO.N,/D6*%
X171450000Y-119380000D03*
%TO.N,/A19*%
X153035000Y-72390000D03*
%TO.N,/A18*%
X153035000Y-70485000D03*
%TO.N,/A17*%
X180340000Y-99695000D03*
X180340000Y-91440000D03*
%TO.N,/A16*%
X180340000Y-88900000D03*
X177800000Y-94615000D03*
%TO.N,/A13*%
X168910000Y-118110000D03*
X168910000Y-121920000D03*
%TO.N,/A7*%
X171450000Y-85090000D03*
%TO.N,/A6*%
X170180000Y-86360000D03*
%TO.N,/A5*%
X168910000Y-87630000D03*
%TO.N,/A15*%
X182880000Y-86360000D03*
X176530000Y-91440000D03*
%TO.N,/DSMC*%
X180340000Y-63373000D03*
%TO.N,/A0*%
X152400000Y-97790000D03*
X165100000Y-88900000D03*
%TO.N,/A2*%
X185420000Y-74930000D03*
%TO.N,/CS2{slash}OE*%
X129540000Y-132080000D03*
%TO.N,Net-(R2-Pad1)*%
X107315000Y-87630000D03*
%TD*%
D30*
%TO.N,/CS2{slash}OE*%
X133350000Y-68580000D02*
X138430000Y-63500000D01*
X133350000Y-72390000D02*
X133350000Y-68580000D01*
X138430000Y-63500000D02*
X142240000Y-63500000D01*
X133350000Y-114300000D02*
X133350000Y-121920000D01*
X133350000Y-121920000D02*
X138430000Y-127000000D01*
X138430000Y-127000000D02*
X140970000Y-127000000D01*
D31*
%TO.N,+9V*%
X190500000Y-53340000D02*
X187960000Y-53340000D01*
X187960000Y-55880000D02*
X187960000Y-53340000D01*
X185380000Y-50760000D02*
X187960000Y-53340000D01*
X182880000Y-50760000D02*
X185380000Y-50760000D01*
%TO.N,GND*%
X99060000Y-56515000D02*
X99695000Y-57150000D01*
X100330000Y-74295000D02*
X99065000Y-73030000D01*
X99065000Y-86360000D02*
X99065000Y-73030000D01*
X99060000Y-55245000D02*
X99060000Y-56515000D01*
X167640000Y-53340000D02*
X165100000Y-53340000D01*
X190500000Y-132080000D02*
X187960000Y-132080000D01*
X170180000Y-48260000D02*
X168680000Y-48260000D01*
X167640000Y-55880000D02*
X167640000Y-53975000D01*
X165100000Y-53340000D02*
X162560000Y-53340000D01*
X99695000Y-69850000D02*
X99065000Y-70480000D01*
X178435000Y-133985000D02*
X180340000Y-132080000D01*
X162560000Y-53340000D02*
X160020000Y-53340000D01*
X99060000Y-86360000D02*
X99060000Y-116840000D01*
X109220000Y-79375000D02*
X104140000Y-74295000D01*
X167640000Y-53975000D02*
X167640000Y-53340000D01*
X162560000Y-132080000D02*
X164465000Y-133985000D01*
X180340000Y-132080000D02*
X187960000Y-132080000D01*
X149860000Y-55880000D02*
X149860000Y-53340000D01*
X160020000Y-132080000D02*
X162560000Y-132080000D01*
X142240000Y-53340000D02*
X139700000Y-53340000D01*
X152400000Y-53340000D02*
X147320000Y-53340000D01*
X129540000Y-55880000D02*
X129540000Y-54610000D01*
X129540000Y-54610000D02*
X130810000Y-53340000D01*
X100965000Y-53340000D02*
X99060000Y-55245000D01*
X160020000Y-53340000D02*
X157480000Y-53340000D01*
X99065000Y-70480000D02*
X99065000Y-73030000D01*
X147320000Y-53340000D02*
X144780000Y-53340000D01*
X104140000Y-74295000D02*
X100330000Y-74295000D01*
X164465000Y-133985000D02*
X178435000Y-133985000D01*
X157480000Y-53340000D02*
X154940000Y-53340000D01*
X137160000Y-53340000D02*
X134620000Y-53340000D01*
X130810000Y-53340000D02*
X134620000Y-53340000D01*
X139700000Y-53340000D02*
X137160000Y-53340000D01*
X167640000Y-49300000D02*
X167640000Y-53975000D01*
X154940000Y-53340000D02*
X152400000Y-53340000D01*
X168680000Y-48260000D02*
X167640000Y-49300000D01*
X144780000Y-53340000D02*
X142240000Y-53340000D01*
X99695000Y-57150000D02*
X99695000Y-69850000D01*
%TO.N,VCC*%
X124460000Y-73660000D02*
X125730000Y-73660000D01*
X180340000Y-50800000D02*
X175260000Y-45720000D01*
X175260000Y-99060000D02*
X160020000Y-99060000D01*
X168910000Y-44450000D02*
X138510000Y-44450000D01*
X138510000Y-44450000D02*
X134620000Y-48340000D01*
X170180000Y-45720000D02*
X168910000Y-44450000D01*
X144780000Y-73660000D02*
X144780000Y-76835000D01*
X134620000Y-48340000D02*
X128190000Y-48340000D01*
X121920000Y-71120000D02*
X121920000Y-73660000D01*
X118110000Y-134620000D02*
X125730000Y-134620000D01*
X154940000Y-73660000D02*
X157480000Y-73660000D01*
X118110000Y-114300000D02*
X118110000Y-121920000D01*
X120650000Y-83820000D02*
X118110000Y-83820000D01*
X180340000Y-55880000D02*
X180340000Y-50800000D01*
X120690000Y-73700000D02*
X120730000Y-73660000D01*
X144780000Y-73660000D02*
X154940000Y-73660000D01*
X125730000Y-73660000D02*
X140970000Y-73660000D01*
X140970000Y-73660000D02*
X142240000Y-73660000D01*
X142240000Y-71120000D02*
X142240000Y-73660000D01*
X125730000Y-50800000D02*
X125730000Y-73660000D01*
X157480000Y-73660000D02*
X160020000Y-71120000D01*
X118110000Y-114300000D02*
X120650000Y-114300000D01*
X118110000Y-83820000D02*
X118110000Y-114300000D01*
X128190000Y-48340000D02*
X125730000Y-50800000D01*
X120650000Y-83820000D02*
X120650000Y-77510000D01*
X175260000Y-45720000D02*
X170180000Y-45720000D01*
X175260000Y-104140000D02*
X175260000Y-101600000D01*
X121920000Y-73660000D02*
X124460000Y-73660000D01*
X142240000Y-73660000D02*
X144780000Y-73660000D01*
X120730000Y-73660000D02*
X121920000Y-73660000D01*
X120690000Y-77470000D02*
X120690000Y-73700000D01*
X140970000Y-73660000D02*
X140970000Y-78105000D01*
X125730000Y-134620000D02*
X125730000Y-132080000D01*
X154940000Y-68580000D02*
X154940000Y-73660000D01*
X175260000Y-101600000D02*
X175260000Y-99060000D01*
X118110000Y-121920000D02*
X120650000Y-121920000D01*
X118110000Y-121920000D02*
X118110000Y-134620000D01*
D30*
%TO.N,/D3*%
X189230000Y-130810000D02*
X179070000Y-130810000D01*
X143510000Y-109220000D02*
X140970000Y-109220000D01*
X144780000Y-110490000D02*
X143510000Y-109220000D01*
X165100000Y-130810000D02*
X158750000Y-130810000D01*
X144780000Y-116840000D02*
X144780000Y-110490000D01*
X175260000Y-132080000D02*
X166370000Y-132080000D01*
X158750000Y-130810000D02*
X144780000Y-116840000D01*
X166370000Y-132080000D02*
X165100000Y-130810000D01*
X177800000Y-132080000D02*
X175260000Y-132080000D01*
X190500000Y-129540000D02*
X189230000Y-130810000D01*
X179070000Y-130810000D02*
X177800000Y-132080000D01*
%TO.N,/D4*%
X175260000Y-129540000D02*
X177800000Y-129540000D01*
X177800000Y-129540000D02*
X179070000Y-128270000D01*
X189230000Y-128270000D02*
X179070000Y-128270000D01*
X138430000Y-106045000D02*
X138430000Y-111125000D01*
X175260000Y-129540000D02*
X166370000Y-129540000D01*
X190500000Y-127000000D02*
X189230000Y-128270000D01*
X158750000Y-128270000D02*
X147320000Y-116840000D01*
X165100000Y-128270000D02*
X158750000Y-128270000D01*
X147320000Y-106680000D02*
X146050000Y-105410000D01*
X147320000Y-116840000D02*
X147320000Y-106680000D01*
X138430000Y-111125000D02*
X139065000Y-111760000D01*
X139065000Y-105410000D02*
X138430000Y-106045000D01*
X146050000Y-105410000D02*
X139065000Y-105410000D01*
X139065000Y-111760000D02*
X140970000Y-111760000D01*
X166370000Y-129540000D02*
X165100000Y-128270000D01*
%TO.N,/D5*%
X137795000Y-104140000D02*
X137795000Y-113665000D01*
X190500000Y-124460000D02*
X189230000Y-125730000D01*
X138430000Y-114300000D02*
X140970000Y-114300000D01*
X165100000Y-125730000D02*
X158750000Y-125730000D01*
X148590000Y-102870000D02*
X139065000Y-102870000D01*
X137795000Y-113665000D02*
X138430000Y-114300000D01*
X149860000Y-116840000D02*
X149860000Y-104140000D01*
X179070000Y-125730000D02*
X177800000Y-127000000D01*
X189230000Y-125730000D02*
X179070000Y-125730000D01*
X158750000Y-125730000D02*
X149860000Y-116840000D01*
X139065000Y-102870000D02*
X137795000Y-104140000D01*
X166370000Y-127000000D02*
X165100000Y-125730000D01*
X177800000Y-127000000D02*
X175260000Y-127000000D01*
X175260000Y-127000000D02*
X166370000Y-127000000D01*
X149860000Y-104140000D02*
X148590000Y-102870000D01*
%TO.N,/D6*%
X190500000Y-121920000D02*
X189230000Y-123190000D01*
X171450000Y-119380000D02*
X171450000Y-122555000D01*
X171450000Y-122555000D02*
X173355000Y-124460000D01*
X173355000Y-124460000D02*
X175260000Y-124460000D01*
X177800000Y-124460000D02*
X175260000Y-124460000D01*
X179070000Y-123190000D02*
X177800000Y-124460000D01*
X189230000Y-123190000D02*
X179070000Y-123190000D01*
%TO.N,/D7*%
X189230000Y-120650000D02*
X190500000Y-119380000D01*
X175260000Y-121920000D02*
X177800000Y-121920000D01*
X179070000Y-120650000D02*
X189230000Y-120650000D01*
X177800000Y-121920000D02*
X179070000Y-120650000D01*
%TO.N,/A19*%
X151765000Y-71120000D02*
X153035000Y-72390000D01*
X151765000Y-67945000D02*
X151765000Y-71120000D01*
X149860000Y-66040000D02*
X151765000Y-67945000D01*
%TO.N,/A18*%
X153035000Y-70485000D02*
X153035000Y-66675000D01*
X153035000Y-66675000D02*
X149860000Y-63500000D01*
%TO.N,/A17*%
X180340000Y-91440000D02*
X180340000Y-99695000D01*
%TO.N,/A16*%
X177800000Y-91440000D02*
X177800000Y-94615000D01*
X180340000Y-88900000D02*
X177800000Y-91440000D01*
%TO.N,/A13*%
X190500000Y-99060000D02*
X189230000Y-97790000D01*
X168910000Y-118110000D02*
X168910000Y-121920000D01*
X189230000Y-97790000D02*
X186690000Y-97790000D01*
X186690000Y-97790000D02*
X184785000Y-99695000D01*
X175260000Y-114300000D02*
X176530000Y-114300000D01*
X176530000Y-114300000D02*
X184785000Y-106045000D01*
X184785000Y-106045000D02*
X184785000Y-99695000D01*
%TO.N,/A12*%
X186690000Y-100330000D02*
X191770000Y-100330000D01*
X191770000Y-100330000D02*
X192405000Y-99695000D01*
X170180000Y-111760000D02*
X170180000Y-114935000D01*
X191770000Y-96520000D02*
X190500000Y-96520000D01*
X170180000Y-114935000D02*
X173355000Y-118110000D01*
X192405000Y-97155000D02*
X191770000Y-96520000D01*
X186690000Y-100330000D02*
X185420000Y-101600000D01*
X185420000Y-101600000D02*
X185420000Y-109855000D01*
X160020000Y-101600000D02*
X170180000Y-111760000D01*
X192405000Y-99695000D02*
X192405000Y-97155000D01*
X177165000Y-118110000D02*
X185420000Y-109855000D01*
X173355000Y-118110000D02*
X177165000Y-118110000D01*
%TO.N,/A11*%
X189230000Y-95250000D02*
X190500000Y-93980000D01*
X186690000Y-95250000D02*
X189230000Y-95250000D01*
X183515000Y-105410000D02*
X183515000Y-98425000D01*
X183515000Y-98425000D02*
X186690000Y-95250000D01*
X177165000Y-111760000D02*
X183515000Y-105410000D01*
X175260000Y-111760000D02*
X177165000Y-111760000D01*
%TO.N,/A10*%
X182880000Y-95885000D02*
X186055000Y-92710000D01*
X172720000Y-111125000D02*
X173355000Y-110490000D01*
X182880000Y-104775000D02*
X182880000Y-95885000D01*
X189230000Y-92710000D02*
X190500000Y-91440000D01*
X175260000Y-116840000D02*
X173355000Y-116840000D01*
X177165000Y-110490000D02*
X182880000Y-104775000D01*
X172720000Y-116205000D02*
X172720000Y-111125000D01*
X186055000Y-92710000D02*
X189230000Y-92710000D01*
X173355000Y-110490000D02*
X177165000Y-110490000D01*
X173355000Y-116840000D02*
X172720000Y-116205000D01*
%TO.N,/A9*%
X182245000Y-94615000D02*
X186690000Y-90170000D01*
X189230000Y-90170000D02*
X190500000Y-88900000D01*
X175260000Y-109220000D02*
X176530000Y-109220000D01*
X186690000Y-90170000D02*
X189230000Y-90170000D01*
X176530000Y-109220000D02*
X182245000Y-103505000D01*
X182245000Y-103505000D02*
X182245000Y-94615000D01*
%TO.N,/A8*%
X175260000Y-106680000D02*
X176372880Y-106680000D01*
X186690000Y-87630000D02*
X181531440Y-92788560D01*
X190500000Y-86360000D02*
X189230000Y-87630000D01*
X189230000Y-87630000D02*
X186690000Y-87630000D01*
X181531440Y-92788560D02*
X181531440Y-101521440D01*
X176372880Y-106680000D02*
X181531440Y-101521440D01*
%TO.N,/A7*%
X171450000Y-85090000D02*
X189230000Y-85090000D01*
X189230000Y-85090000D02*
X190500000Y-83820000D01*
%TO.N,/A6*%
X170180000Y-86360000D02*
X170180000Y-83820000D01*
X189230000Y-82550000D02*
X190500000Y-81280000D01*
X171450000Y-82550000D02*
X189230000Y-82550000D01*
X170180000Y-83820000D02*
X171450000Y-82550000D01*
%TO.N,/A5*%
X168910000Y-87630000D02*
X168910000Y-83820000D01*
X172720000Y-80010000D02*
X189230000Y-80010000D01*
X168910000Y-83820000D02*
X172720000Y-80010000D01*
X189230000Y-80010000D02*
X190500000Y-78740000D01*
%TO.N,/A4*%
X160020000Y-111760000D02*
X158750000Y-111760000D01*
X157480000Y-91440000D02*
X171450000Y-77470000D01*
X157480000Y-110490000D02*
X157480000Y-91440000D01*
X189230000Y-77470000D02*
X190500000Y-76200000D01*
X171450000Y-77470000D02*
X189230000Y-77470000D01*
X158750000Y-111760000D02*
X157480000Y-110490000D01*
%TO.N,/A3*%
X189230000Y-74930000D02*
X190500000Y-73660000D01*
X160020000Y-114300000D02*
X158750000Y-114300000D01*
X156210000Y-91440000D02*
X171450000Y-76200000D01*
X171450000Y-76200000D02*
X185420000Y-76200000D01*
X186690000Y-74930000D02*
X189230000Y-74930000D01*
X185420000Y-76200000D02*
X186690000Y-74930000D01*
X156210000Y-111760000D02*
X156210000Y-91440000D01*
X158750000Y-114300000D02*
X156210000Y-111760000D01*
%TO.N,/SP3*%
X167640000Y-68580000D02*
X187960000Y-68580000D01*
%TO.N,/RESET*%
X131445000Y-133985000D02*
X131445000Y-101600000D01*
X122555000Y-127000000D02*
X123825000Y-128270000D01*
X189230000Y-105410000D02*
X187960000Y-104140000D01*
X120650000Y-127000000D02*
X122555000Y-127000000D01*
X131445000Y-133985000D02*
X133985000Y-136525000D01*
X193040000Y-107315000D02*
X191135000Y-105410000D01*
X123825000Y-128270000D02*
X131445000Y-128270000D01*
X193040000Y-132715000D02*
X193040000Y-107315000D01*
X180975000Y-136525000D02*
X183515000Y-133985000D01*
X133985000Y-136525000D02*
X180975000Y-136525000D01*
X133985000Y-99060000D02*
X140970000Y-99060000D01*
X183515000Y-133985000D02*
X191770000Y-133985000D01*
X131445000Y-101600000D02*
X133985000Y-99060000D01*
X191135000Y-105410000D02*
X189230000Y-105410000D01*
X191770000Y-133985000D02*
X193040000Y-132715000D01*
%TO.N,/D2*%
X158750000Y-129540000D02*
X160020000Y-129540000D01*
X144780000Y-106680000D02*
X146050000Y-107950000D01*
X166370000Y-130810000D02*
X165100000Y-129540000D01*
X177800000Y-130810000D02*
X166370000Y-130810000D01*
X165100000Y-129540000D02*
X160020000Y-129540000D01*
X179070000Y-129540000D02*
X177800000Y-130810000D01*
X146050000Y-107950000D02*
X146050000Y-116840000D01*
X187960000Y-129540000D02*
X179070000Y-129540000D01*
X146050000Y-116840000D02*
X158750000Y-129540000D01*
X140970000Y-106680000D02*
X144780000Y-106680000D01*
%TO.N,/D1*%
X165100000Y-127000000D02*
X160020000Y-127000000D01*
X166370000Y-128270000D02*
X165100000Y-127000000D01*
X160020000Y-127000000D02*
X158750000Y-127000000D01*
X148590000Y-105410000D02*
X147320000Y-104140000D01*
X158750000Y-127000000D02*
X148590000Y-116840000D01*
X187960000Y-127000000D02*
X179070000Y-127000000D01*
X179070000Y-127000000D02*
X177800000Y-128270000D01*
X148590000Y-116840000D02*
X148590000Y-105410000D01*
X147320000Y-104140000D02*
X140970000Y-104140000D01*
X177800000Y-128270000D02*
X166370000Y-128270000D01*
%TO.N,/D0*%
X179070000Y-124460000D02*
X177800000Y-125730000D01*
X166370000Y-125730000D02*
X165100000Y-124460000D01*
X149860000Y-101600000D02*
X151130000Y-102870000D01*
X151130000Y-116840000D02*
X158750000Y-124460000D01*
X158750000Y-124460000D02*
X160020000Y-124460000D01*
X187960000Y-124460000D02*
X179070000Y-124460000D01*
X177800000Y-125730000D02*
X166370000Y-125730000D01*
X140970000Y-101600000D02*
X149860000Y-101600000D01*
X151130000Y-102870000D02*
X151130000Y-116840000D01*
X165100000Y-124460000D02*
X160020000Y-124460000D01*
%TO.N,/RW*%
X140970000Y-132080000D02*
X144145000Y-132080000D01*
X191135000Y-133350000D02*
X191770000Y-132715000D01*
X191262000Y-115570000D02*
X189230000Y-115570000D01*
X144145000Y-132080000D02*
X147320000Y-135255000D01*
X191770000Y-116078000D02*
X191262000Y-115570000D01*
X180340000Y-135255000D02*
X182245000Y-133350000D01*
X182245000Y-133350000D02*
X191135000Y-133350000D01*
X191770000Y-132715000D02*
X191770000Y-116078000D01*
X189230000Y-115570000D02*
X187960000Y-116840000D01*
X147320000Y-135255000D02*
X180340000Y-135255000D01*
%TO.N,/A15*%
X180340000Y-86360000D02*
X182880000Y-86360000D01*
X176530000Y-91440000D02*
X176530000Y-90170000D01*
X176530000Y-90170000D02*
X180340000Y-86360000D01*
%TO.N,/SP0*%
X185420000Y-60960000D02*
X167640000Y-60960000D01*
X190500000Y-60960000D02*
X189230000Y-59690000D01*
X186690000Y-59690000D02*
X185420000Y-60960000D01*
X189230000Y-59690000D02*
X186690000Y-59690000D01*
%TO.N,/SP1*%
X162560000Y-55880000D02*
X165100000Y-58420000D01*
X160020000Y-55880000D02*
X162560000Y-55880000D01*
X166370000Y-62230000D02*
X189230000Y-62230000D01*
X165100000Y-58420000D02*
X165100000Y-60960000D01*
X189230000Y-62230000D02*
X190500000Y-63500000D01*
X165100000Y-60960000D02*
X166370000Y-62230000D01*
%TO.N,/DSMC*%
X181737000Y-64770000D02*
X189230000Y-64770000D01*
X189230000Y-64770000D02*
X190500000Y-66040000D01*
X180340000Y-63373000D02*
X181737000Y-64770000D01*
%TO.N,/A0*%
X140970000Y-93980000D02*
X139065000Y-93980000D01*
X165100000Y-86360000D02*
X172720000Y-78740000D01*
X152400000Y-97790000D02*
X152400000Y-115570000D01*
X165100000Y-88900000D02*
X165100000Y-86360000D01*
X187960000Y-78740000D02*
X172720000Y-78740000D01*
X158750000Y-121920000D02*
X160020000Y-121920000D01*
X138430000Y-94615000D02*
X138430000Y-97155000D01*
X138430000Y-97155000D02*
X139065000Y-97790000D01*
X152400000Y-115570000D02*
X158750000Y-121920000D01*
X139065000Y-97790000D02*
X152400000Y-97790000D01*
X139065000Y-93980000D02*
X138430000Y-94615000D01*
%TO.N,/A1*%
X140970000Y-96520000D02*
X152400000Y-96520000D01*
X152400000Y-96520000D02*
X153670000Y-95250000D01*
X160020000Y-119380000D02*
X158750000Y-119380000D01*
X187960000Y-73660000D02*
X171450000Y-73660000D01*
X153670000Y-95250000D02*
X153670000Y-91440000D01*
X171450000Y-73660000D02*
X153670000Y-91440000D01*
X158750000Y-119380000D02*
X153670000Y-114300000D01*
X153670000Y-114300000D02*
X153670000Y-95250000D01*
%TO.N,/A2*%
X158750000Y-116840000D02*
X160020000Y-116840000D01*
X171450000Y-74930000D02*
X154940000Y-91440000D01*
X185420000Y-74930000D02*
X171450000Y-74930000D01*
X154940000Y-91440000D02*
X154940000Y-113030000D01*
X154940000Y-113030000D02*
X158750000Y-116840000D01*
%TO.N,/SP2*%
X189230000Y-67310000D02*
X190500000Y-68580000D01*
X162941000Y-67310000D02*
X189230000Y-67310000D01*
X161671000Y-66040000D02*
X162941000Y-67310000D01*
X160020000Y-66040000D02*
X161671000Y-66040000D01*
%TO.N,Net-(J2-Pad3)*%
X101605000Y-114300000D02*
X105410000Y-114300000D01*
%TO.N,Net-(J2-Pad5)*%
X101605000Y-111760000D02*
X105410000Y-111760000D01*
%TO.N,Net-(J2-Pad7)*%
X101605000Y-109220000D02*
X105410000Y-109220000D01*
%TO.N,Net-(J2-Pad9)*%
X101605000Y-106680000D02*
X105410000Y-106680000D01*
%TO.N,Net-(J2-Pad11)*%
X101605000Y-104140000D02*
X105410000Y-104140000D01*
%TO.N,Net-(J2-Pad13)*%
X101605000Y-101600000D02*
X105410000Y-101600000D01*
%TO.N,Net-(J2-Pad15)*%
X101605000Y-99060000D02*
X105410000Y-99060000D01*
%TO.N,Net-(J2-Pad17)*%
X101605000Y-96520000D02*
X105410000Y-96520000D01*
%TO.N,/CS2{slash}OE*%
X184785000Y-134620000D02*
X192405000Y-134620000D01*
X129540000Y-136525000D02*
X130810000Y-137795000D01*
X177165000Y-119380000D02*
X175260000Y-119380000D01*
X191770000Y-102870000D02*
X186690000Y-102870000D01*
X181610000Y-137795000D02*
X184785000Y-134620000D01*
X186690000Y-102870000D02*
X186055000Y-103505000D01*
X186055000Y-103505000D02*
X186055000Y-110490000D01*
X194310000Y-132715000D02*
X194310000Y-105410000D01*
X130810000Y-137795000D02*
X181610000Y-137795000D01*
X194310000Y-105410000D02*
X191770000Y-102870000D01*
X186055000Y-110490000D02*
X177165000Y-119380000D01*
X142240000Y-63500000D02*
X142240000Y-60960000D01*
X192405000Y-134620000D02*
X194310000Y-132715000D01*
X129540000Y-132080000D02*
X129540000Y-136525000D01*
%TO.N,Net-(U6-Pad27)*%
X125730000Y-111760000D02*
X120650000Y-116840000D01*
%TO.N,Net-(U6-Pad29)*%
X125730000Y-106680000D02*
X120650000Y-111760000D01*
%TO.N,Net-(U6-Pad30)*%
X125730000Y-104140000D02*
X120650000Y-109220000D01*
%TO.N,Net-(U6-Pad31)*%
X125730000Y-101600000D02*
X120650000Y-106680000D01*
%TO.N,Net-(U6-Pad32)*%
X125730000Y-99060000D02*
X120650000Y-104140000D01*
%TO.N,Net-(U6-Pad33)*%
X125730000Y-96520000D02*
X120650000Y-101600000D01*
%TO.N,Net-(U6-Pad34)*%
X125730000Y-93980000D02*
X120650000Y-99060000D01*
%TO.N,Net-(U6-Pad35)*%
X125730000Y-91440000D02*
X120650000Y-96520000D01*
%TO.N,Net-(U6-Pad36)*%
X125730000Y-88900000D02*
X120650000Y-93980000D01*
%TO.N,Net-(U6-Pad37)*%
X125730000Y-86360000D02*
X120650000Y-91440000D01*
%TO.N,Net-(J3-PadS)*%
X109220000Y-76200000D02*
X111125000Y-74295000D01*
X109220000Y-76200000D02*
X104140000Y-71120000D01*
X105965000Y-48340000D02*
X108665000Y-48340000D01*
X104140000Y-71120000D02*
X101600000Y-71120000D01*
X111125000Y-50800000D02*
X111125000Y-74295000D01*
X108665000Y-48340000D02*
X111125000Y-50800000D01*
%TO.N,Net-(R2-Pad1)*%
X101600000Y-79375000D02*
X101600000Y-81280000D01*
X101600000Y-81280000D02*
X103505000Y-83185000D01*
X103505000Y-83185000D02*
X103505000Y-87630000D01*
X101600000Y-76200000D02*
X101600000Y-79375000D01*
X103505000Y-87630000D02*
X107315000Y-87630000D01*
%TO.N,Net-(J3-PadT)*%
X109220000Y-71120000D02*
X109220000Y-57150000D01*
X105965000Y-55840000D02*
X107910000Y-55840000D01*
X109220000Y-57150000D02*
X107910000Y-55840000D01*
%TO.N,Net-(R1-Pad2)*%
X160020000Y-63500000D02*
X160020000Y-60960000D01*
X154940000Y-59055000D02*
X154940000Y-60960000D01*
X153035000Y-57150000D02*
X154940000Y-59055000D01*
X154940000Y-60960000D02*
X149860000Y-60960000D01*
X137795000Y-57150000D02*
X135890000Y-59055000D01*
X133985000Y-66040000D02*
X129540000Y-66040000D01*
X167640000Y-63500000D02*
X167640000Y-66040000D01*
X135890000Y-64135000D02*
X133985000Y-66040000D01*
X160020000Y-63500000D02*
X167640000Y-63500000D01*
X135890000Y-59055000D02*
X135890000Y-64135000D01*
X137795000Y-57150000D02*
X153035000Y-57150000D01*
X154940000Y-60960000D02*
X160020000Y-60960000D01*
%TD*%
%TA.AperFunction,Conductor*%
%TO.N,GND*%
G36*
X114242121Y-43201002D02*
G01*
X114288614Y-43254658D01*
X114300000Y-43307000D01*
X114300000Y-74082319D01*
X114279998Y-74150440D01*
X114226342Y-74196933D01*
X114161027Y-74207649D01*
X114159146Y-74207454D01*
X114143566Y-74215644D01*
X113442022Y-74917188D01*
X113434408Y-74931132D01*
X113434539Y-74932965D01*
X113438790Y-74939580D01*
X114144287Y-75645077D01*
X114158232Y-75652692D01*
X114165012Y-75652207D01*
X114234386Y-75667299D01*
X114284588Y-75717501D01*
X114300000Y-75777886D01*
X114300000Y-80519000D01*
X114279998Y-80587121D01*
X114226342Y-80633614D01*
X114174000Y-80645000D01*
X110057178Y-80645000D01*
X109989057Y-80624998D01*
X109942564Y-80571342D01*
X109932460Y-80501068D01*
X109940692Y-80482053D01*
X109942545Y-80464146D01*
X109934356Y-80448566D01*
X109232812Y-79747022D01*
X109218868Y-79739408D01*
X109217035Y-79739539D01*
X109210420Y-79743790D01*
X108504923Y-80449287D01*
X108497309Y-80463231D01*
X108498494Y-80479800D01*
X108509532Y-80508019D01*
X108495542Y-80577624D01*
X108446143Y-80628616D01*
X108384011Y-80645000D01*
X102051500Y-80645000D01*
X101983379Y-80624998D01*
X101936886Y-80571342D01*
X101925500Y-80519000D01*
X101925500Y-80409043D01*
X101945502Y-80340922D01*
X101994689Y-80296577D01*
X102133195Y-80226612D01*
X102138689Y-80223837D01*
X102168515Y-80200535D01*
X102288453Y-80106829D01*
X102293303Y-80103040D01*
X102304493Y-80090077D01*
X102417485Y-79959173D01*
X102417485Y-79959172D01*
X102421509Y-79954511D01*
X102518425Y-79783909D01*
X102580358Y-79597732D01*
X102604949Y-79403071D01*
X102605265Y-79380475D01*
X107907483Y-79380475D01*
X107926472Y-79597519D01*
X107928375Y-79608312D01*
X107984764Y-79818761D01*
X107988510Y-79829053D01*
X108080586Y-80026511D01*
X108086069Y-80036006D01*
X108122509Y-80088048D01*
X108132988Y-80096424D01*
X108146434Y-80089356D01*
X108847978Y-79387812D01*
X108854356Y-79376132D01*
X109584408Y-79376132D01*
X109584539Y-79377965D01*
X109588790Y-79384580D01*
X110294287Y-80090077D01*
X110306062Y-80096507D01*
X110318077Y-80087211D01*
X110353931Y-80036006D01*
X110359414Y-80026511D01*
X110451490Y-79829053D01*
X110455236Y-79818761D01*
X110511625Y-79608312D01*
X110513528Y-79597519D01*
X110532517Y-79380475D01*
X110532517Y-79369525D01*
X110513528Y-79152481D01*
X110511625Y-79141688D01*
X110455236Y-78931239D01*
X110451490Y-78920947D01*
X110359414Y-78723489D01*
X110353931Y-78713994D01*
X110317491Y-78661952D01*
X110307012Y-78653576D01*
X110293566Y-78660644D01*
X109592022Y-79362188D01*
X109584408Y-79376132D01*
X108854356Y-79376132D01*
X108855592Y-79373868D01*
X108855461Y-79372035D01*
X108851210Y-79365420D01*
X108145713Y-78659923D01*
X108133938Y-78653493D01*
X108121923Y-78662789D01*
X108086069Y-78713994D01*
X108080586Y-78723489D01*
X107988510Y-78920947D01*
X107984764Y-78931239D01*
X107928375Y-79141688D01*
X107926472Y-79152481D01*
X107907483Y-79369525D01*
X107907483Y-79380475D01*
X102605265Y-79380475D01*
X102605341Y-79375000D01*
X102586194Y-79179728D01*
X102584413Y-79173829D01*
X102584412Y-79173824D01*
X102531265Y-78997793D01*
X102529484Y-78991894D01*
X102437370Y-78818653D01*
X102313361Y-78666602D01*
X102162180Y-78541535D01*
X101991571Y-78449287D01*
X101941162Y-78399292D01*
X101925500Y-78338451D01*
X101925500Y-78287988D01*
X108498576Y-78287988D01*
X108505644Y-78301434D01*
X109207188Y-79002978D01*
X109221132Y-79010592D01*
X109222965Y-79010461D01*
X109229580Y-79006210D01*
X109935077Y-78300713D01*
X109941507Y-78288938D01*
X109932211Y-78276923D01*
X109881006Y-78241069D01*
X109871511Y-78235586D01*
X109674053Y-78143510D01*
X109663761Y-78139764D01*
X109453312Y-78083375D01*
X109442519Y-78081472D01*
X109225475Y-78062483D01*
X109214525Y-78062483D01*
X108997481Y-78081472D01*
X108986688Y-78083375D01*
X108776239Y-78139764D01*
X108765947Y-78143510D01*
X108568489Y-78235586D01*
X108558994Y-78241069D01*
X108506952Y-78277509D01*
X108498576Y-78287988D01*
X101925500Y-78287988D01*
X101925500Y-77234043D01*
X101945502Y-77165922D01*
X101994689Y-77121577D01*
X102133195Y-77051612D01*
X102138689Y-77048837D01*
X102168515Y-77025535D01*
X102288453Y-76931829D01*
X102293303Y-76928040D01*
X102323084Y-76893539D01*
X102417485Y-76784173D01*
X102417485Y-76784172D01*
X102421509Y-76779511D01*
X102518425Y-76608909D01*
X102580358Y-76422732D01*
X102604949Y-76228071D01*
X102605341Y-76200000D01*
X102586194Y-76004728D01*
X102584413Y-75998829D01*
X102584412Y-75998824D01*
X102531265Y-75822793D01*
X102529484Y-75816894D01*
X102437370Y-75643653D01*
X102313361Y-75491602D01*
X102162180Y-75366535D01*
X101989585Y-75273213D01*
X101871795Y-75236751D01*
X101808039Y-75217015D01*
X101808036Y-75217014D01*
X101802152Y-75215193D01*
X101796027Y-75214549D01*
X101796026Y-75214549D01*
X101613147Y-75195327D01*
X101613146Y-75195327D01*
X101607019Y-75194683D01*
X101484383Y-75205844D01*
X101417759Y-75211907D01*
X101417758Y-75211907D01*
X101411618Y-75212466D01*
X101405704Y-75214207D01*
X101405702Y-75214207D01*
X101329105Y-75236751D01*
X101223393Y-75267864D01*
X101217928Y-75270721D01*
X101054972Y-75355912D01*
X101054968Y-75355915D01*
X101049512Y-75358767D01*
X101044712Y-75362627D01*
X101044711Y-75362627D01*
X101030863Y-75373761D01*
X100896600Y-75481711D01*
X100770480Y-75632016D01*
X100767516Y-75637408D01*
X100767513Y-75637412D01*
X100723484Y-75717501D01*
X100675956Y-75803954D01*
X100616628Y-75990978D01*
X100594757Y-76185963D01*
X100611175Y-76381483D01*
X100665258Y-76570091D01*
X100668076Y-76575574D01*
X100752123Y-76739113D01*
X100752126Y-76739117D01*
X100754944Y-76744601D01*
X100876818Y-76898369D01*
X101026238Y-77025535D01*
X101031616Y-77028541D01*
X101031618Y-77028542D01*
X101067932Y-77048837D01*
X101197513Y-77121257D01*
X101199913Y-77122037D01*
X101253363Y-77166832D01*
X101274500Y-77236688D01*
X101274500Y-78339837D01*
X101254498Y-78407958D01*
X101206876Y-78451498D01*
X101054976Y-78530910D01*
X101054972Y-78530912D01*
X101049512Y-78533767D01*
X101044712Y-78537627D01*
X101044711Y-78537627D01*
X101010326Y-78565273D01*
X100896600Y-78656711D01*
X100770480Y-78807016D01*
X100767516Y-78812408D01*
X100767513Y-78812412D01*
X100707846Y-78920947D01*
X100675956Y-78978954D01*
X100616628Y-79165978D01*
X100594757Y-79360963D01*
X100611175Y-79556483D01*
X100665258Y-79745091D01*
X100668076Y-79750574D01*
X100752123Y-79914113D01*
X100752126Y-79914117D01*
X100754944Y-79919601D01*
X100876818Y-80073369D01*
X100881511Y-80077363D01*
X100881512Y-80077364D01*
X100903908Y-80096424D01*
X101026238Y-80200535D01*
X101031616Y-80203541D01*
X101031618Y-80203542D01*
X101067932Y-80223837D01*
X101197513Y-80296257D01*
X101199913Y-80297037D01*
X101253363Y-80341832D01*
X101274500Y-80411688D01*
X101274500Y-80519000D01*
X101254498Y-80587121D01*
X101200842Y-80633614D01*
X101148500Y-80645000D01*
X96647000Y-80645000D01*
X96578879Y-80624998D01*
X96532386Y-80571342D01*
X96521000Y-80519000D01*
X96521000Y-71105963D01*
X100594757Y-71105963D01*
X100611175Y-71301483D01*
X100665258Y-71490091D01*
X100668076Y-71495574D01*
X100752123Y-71659113D01*
X100752126Y-71659117D01*
X100754944Y-71664601D01*
X100876818Y-71818369D01*
X101026238Y-71945535D01*
X101031616Y-71948541D01*
X101031618Y-71948542D01*
X101067932Y-71968837D01*
X101197513Y-72041257D01*
X101384118Y-72101889D01*
X101578946Y-72125121D01*
X101585081Y-72124649D01*
X101585083Y-72124649D01*
X101768434Y-72110541D01*
X101768438Y-72110540D01*
X101774576Y-72110068D01*
X101963556Y-72057303D01*
X102138689Y-71968837D01*
X102168515Y-71945535D01*
X102288453Y-71851829D01*
X102293303Y-71848040D01*
X102323084Y-71813539D01*
X102417485Y-71704173D01*
X102417485Y-71704172D01*
X102421509Y-71699511D01*
X102441341Y-71664601D01*
X102515379Y-71534272D01*
X102515381Y-71534267D01*
X102518425Y-71528909D01*
X102520372Y-71523056D01*
X102521621Y-71520251D01*
X102567601Y-71466155D01*
X102636728Y-71445500D01*
X103952984Y-71445500D01*
X104021105Y-71465502D01*
X104042079Y-71482405D01*
X108258082Y-75698408D01*
X108292108Y-75760720D01*
X108289089Y-75825601D01*
X108236628Y-75990978D01*
X108214757Y-76185963D01*
X108231175Y-76381483D01*
X108285258Y-76570091D01*
X108288076Y-76575574D01*
X108372123Y-76739113D01*
X108372126Y-76739117D01*
X108374944Y-76744601D01*
X108496818Y-76898369D01*
X108646238Y-77025535D01*
X108651616Y-77028541D01*
X108651618Y-77028542D01*
X108687932Y-77048837D01*
X108817513Y-77121257D01*
X109004118Y-77181889D01*
X109198946Y-77205121D01*
X109205081Y-77204649D01*
X109205083Y-77204649D01*
X109388434Y-77190541D01*
X109388438Y-77190540D01*
X109394576Y-77190068D01*
X109583556Y-77137303D01*
X109758689Y-77048837D01*
X109788515Y-77025535D01*
X109908453Y-76931829D01*
X109913303Y-76928040D01*
X109943084Y-76893539D01*
X110037485Y-76784173D01*
X110037485Y-76784172D01*
X110041509Y-76779511D01*
X110138425Y-76608909D01*
X110200358Y-76422732D01*
X110224949Y-76228071D01*
X110225341Y-76200000D01*
X110207305Y-76016062D01*
X112348493Y-76016062D01*
X112357789Y-76028077D01*
X112408994Y-76063931D01*
X112418489Y-76069414D01*
X112615947Y-76161490D01*
X112626239Y-76165236D01*
X112836688Y-76221625D01*
X112847481Y-76223528D01*
X113064525Y-76242517D01*
X113075475Y-76242517D01*
X113292519Y-76223528D01*
X113303312Y-76221625D01*
X113513761Y-76165236D01*
X113524053Y-76161490D01*
X113721511Y-76069414D01*
X113731006Y-76063931D01*
X113783048Y-76027491D01*
X113791424Y-76017012D01*
X113784356Y-76003566D01*
X113082812Y-75302022D01*
X113068868Y-75294408D01*
X113067035Y-75294539D01*
X113060420Y-75298790D01*
X112354923Y-76004287D01*
X112348493Y-76016062D01*
X110207305Y-76016062D01*
X110206194Y-76004728D01*
X110204413Y-75998829D01*
X110204412Y-75998824D01*
X110151324Y-75822988D01*
X110150783Y-75751993D01*
X110182851Y-75697475D01*
X110944851Y-74935475D01*
X111757483Y-74935475D01*
X111776472Y-75152519D01*
X111778375Y-75163312D01*
X111834764Y-75373761D01*
X111838510Y-75384053D01*
X111930586Y-75581511D01*
X111936069Y-75591006D01*
X111972509Y-75643048D01*
X111982988Y-75651424D01*
X111996434Y-75644356D01*
X112697978Y-74942812D01*
X112705592Y-74928868D01*
X112705461Y-74927035D01*
X112701210Y-74920420D01*
X111995713Y-74214923D01*
X111983938Y-74208493D01*
X111971923Y-74217789D01*
X111936069Y-74268994D01*
X111930586Y-74278489D01*
X111838510Y-74475947D01*
X111834764Y-74486239D01*
X111778375Y-74696688D01*
X111776472Y-74707481D01*
X111757483Y-74924525D01*
X111757483Y-74935475D01*
X110944851Y-74935475D01*
X111341215Y-74539111D01*
X111349319Y-74531684D01*
X111369749Y-74514541D01*
X111378194Y-74507455D01*
X111396385Y-74475947D01*
X111397039Y-74474815D01*
X111402945Y-74465544D01*
X111418230Y-74443715D01*
X111424554Y-74434684D01*
X111427408Y-74424034D01*
X111428885Y-74420866D01*
X111430077Y-74417590D01*
X111435588Y-74408045D01*
X111442130Y-74370942D01*
X111444509Y-74360210D01*
X111454264Y-74323807D01*
X111450979Y-74286257D01*
X111450500Y-74275276D01*
X111450500Y-73842988D01*
X112348576Y-73842988D01*
X112355644Y-73856434D01*
X113057188Y-74557978D01*
X113071132Y-74565592D01*
X113072965Y-74565461D01*
X113079580Y-74561210D01*
X113785077Y-73855713D01*
X113791507Y-73843938D01*
X113782211Y-73831923D01*
X113731006Y-73796069D01*
X113721511Y-73790586D01*
X113524053Y-73698510D01*
X113513761Y-73694764D01*
X113303312Y-73638375D01*
X113292519Y-73636472D01*
X113075475Y-73617483D01*
X113064525Y-73617483D01*
X112847481Y-73636472D01*
X112836688Y-73638375D01*
X112626239Y-73694764D01*
X112615947Y-73698510D01*
X112418489Y-73790586D01*
X112408994Y-73796069D01*
X112356952Y-73832509D01*
X112348576Y-73842988D01*
X111450500Y-73842988D01*
X111450500Y-50819710D01*
X111450980Y-50808728D01*
X111453303Y-50782175D01*
X111453303Y-50782170D01*
X111454263Y-50771193D01*
X111444508Y-50734783D01*
X111442133Y-50724072D01*
X111437501Y-50697806D01*
X111435588Y-50686955D01*
X111430078Y-50677411D01*
X111428886Y-50674135D01*
X111427407Y-50670964D01*
X111424554Y-50660316D01*
X111402940Y-50629448D01*
X111397036Y-50620179D01*
X111383707Y-50597092D01*
X111383704Y-50597088D01*
X111378194Y-50587545D01*
X111349323Y-50563320D01*
X111341218Y-50555892D01*
X108909111Y-48123785D01*
X108901684Y-48115681D01*
X108884541Y-48095251D01*
X108884542Y-48095251D01*
X108877455Y-48086806D01*
X108867906Y-48081293D01*
X108844815Y-48067961D01*
X108835544Y-48062055D01*
X108813715Y-48046770D01*
X108804684Y-48040446D01*
X108794034Y-48037592D01*
X108790866Y-48036115D01*
X108787590Y-48034923D01*
X108778045Y-48029412D01*
X108744301Y-48023462D01*
X108740942Y-48022870D01*
X108730215Y-48020492D01*
X108693807Y-48010736D01*
X108682822Y-48011697D01*
X108682820Y-48011697D01*
X108656272Y-48014020D01*
X108645290Y-48014500D01*
X107312768Y-48014500D01*
X107244647Y-47994498D01*
X107198154Y-47940842D01*
X107191062Y-47921113D01*
X107185806Y-47901497D01*
X107185803Y-47901488D01*
X107184381Y-47896182D01*
X107157722Y-47839011D01*
X107091110Y-47696162D01*
X107091108Y-47696159D01*
X107088787Y-47691181D01*
X106959048Y-47505894D01*
X106799106Y-47345952D01*
X106613819Y-47216213D01*
X106608841Y-47213892D01*
X106608838Y-47213890D01*
X106413800Y-47122942D01*
X106413798Y-47122941D01*
X106408818Y-47120619D01*
X106403510Y-47119197D01*
X106403508Y-47119196D01*
X106195647Y-47063500D01*
X106195645Y-47063500D01*
X106190332Y-47062076D01*
X105965000Y-47042362D01*
X105739668Y-47062076D01*
X105734355Y-47063500D01*
X105734353Y-47063500D01*
X105526492Y-47119196D01*
X105526490Y-47119197D01*
X105521182Y-47120619D01*
X105516202Y-47122941D01*
X105516200Y-47122942D01*
X105321162Y-47213890D01*
X105321159Y-47213892D01*
X105316181Y-47216213D01*
X105130894Y-47345952D01*
X104970952Y-47505894D01*
X104841213Y-47691181D01*
X104838892Y-47696159D01*
X104838890Y-47696162D01*
X104772278Y-47839011D01*
X104745619Y-47896182D01*
X104744197Y-47901490D01*
X104744196Y-47901492D01*
X104692279Y-48095251D01*
X104687076Y-48114668D01*
X104667362Y-48340000D01*
X104687076Y-48565332D01*
X104688500Y-48570645D01*
X104688500Y-48570647D01*
X104723805Y-48702405D01*
X104745619Y-48783818D01*
X104747941Y-48788798D01*
X104747942Y-48788800D01*
X104829765Y-48964268D01*
X104841213Y-48988819D01*
X104970952Y-49174106D01*
X105130894Y-49334048D01*
X105316181Y-49463787D01*
X105321162Y-49466110D01*
X105321166Y-49466112D01*
X105341953Y-49475805D01*
X105395239Y-49522722D01*
X105414700Y-49590999D01*
X105394159Y-49658959D01*
X105341953Y-49704195D01*
X105321166Y-49713888D01*
X105321162Y-49713890D01*
X105316181Y-49716213D01*
X105130894Y-49845952D01*
X104970952Y-50005894D01*
X104841213Y-50191181D01*
X104745619Y-50396182D01*
X104744197Y-50401490D01*
X104744196Y-50401492D01*
X104691785Y-50597092D01*
X104687076Y-50614668D01*
X104667362Y-50840000D01*
X104687076Y-51065332D01*
X104745619Y-51283818D01*
X104841213Y-51488819D01*
X104970952Y-51674106D01*
X105130894Y-51834048D01*
X105316181Y-51963787D01*
X105321159Y-51966108D01*
X105321162Y-51966110D01*
X105516200Y-52057058D01*
X105521182Y-52059381D01*
X105526490Y-52060803D01*
X105526492Y-52060804D01*
X105734353Y-52116500D01*
X105734355Y-52116500D01*
X105739668Y-52117924D01*
X105965000Y-52137638D01*
X106190332Y-52117924D01*
X106195645Y-52116500D01*
X106195647Y-52116500D01*
X106403508Y-52060804D01*
X106403510Y-52060803D01*
X106408818Y-52059381D01*
X106413800Y-52057058D01*
X106608838Y-51966110D01*
X106608841Y-51966108D01*
X106613819Y-51963787D01*
X106799106Y-51834048D01*
X106959048Y-51674106D01*
X107088787Y-51488819D01*
X107184381Y-51283818D01*
X107242924Y-51065332D01*
X107262638Y-50840000D01*
X107242924Y-50614668D01*
X107238215Y-50597092D01*
X107185804Y-50401492D01*
X107185803Y-50401490D01*
X107184381Y-50396182D01*
X107088787Y-50191181D01*
X106959048Y-50005894D01*
X106799106Y-49845952D01*
X106613819Y-49716213D01*
X106608838Y-49713890D01*
X106608834Y-49713888D01*
X106588047Y-49704195D01*
X106534761Y-49657278D01*
X106515300Y-49589001D01*
X106535841Y-49521041D01*
X106588047Y-49475805D01*
X106608834Y-49466112D01*
X106608838Y-49466110D01*
X106613819Y-49463787D01*
X106799106Y-49334048D01*
X106959048Y-49174106D01*
X107088787Y-48988819D01*
X107100236Y-48964268D01*
X107182058Y-48788800D01*
X107182059Y-48788798D01*
X107184381Y-48783818D01*
X107185804Y-48778508D01*
X107185806Y-48778503D01*
X107191062Y-48758887D01*
X107228014Y-48698265D01*
X107291875Y-48667244D01*
X107312768Y-48665500D01*
X108477984Y-48665500D01*
X108546105Y-48685502D01*
X108567079Y-48702405D01*
X110762595Y-50897922D01*
X110796621Y-50960234D01*
X110799500Y-50987017D01*
X110799500Y-74107984D01*
X110779498Y-74176105D01*
X110762595Y-74197079D01*
X110612407Y-74347267D01*
X110550095Y-74381293D01*
X110479280Y-74376228D01*
X110422444Y-74333681D01*
X110397633Y-74267161D01*
X110409117Y-74204922D01*
X110451490Y-74114053D01*
X110455236Y-74103761D01*
X110511625Y-73893312D01*
X110513528Y-73882519D01*
X110532517Y-73665475D01*
X110532517Y-73654525D01*
X110513528Y-73437481D01*
X110511625Y-73426688D01*
X110455236Y-73216239D01*
X110451490Y-73205947D01*
X110359414Y-73008489D01*
X110353931Y-72998994D01*
X110317491Y-72946952D01*
X110307012Y-72938576D01*
X110293566Y-72945644D01*
X109309095Y-73930115D01*
X109246783Y-73964141D01*
X109175968Y-73959076D01*
X109130905Y-73930115D01*
X108145713Y-72944923D01*
X108133938Y-72938493D01*
X108121923Y-72947789D01*
X108086069Y-72998994D01*
X108080586Y-73008489D01*
X107988510Y-73205947D01*
X107984764Y-73216239D01*
X107928375Y-73426688D01*
X107926472Y-73437481D01*
X107907483Y-73654525D01*
X107907483Y-73665475D01*
X107926472Y-73882519D01*
X107928375Y-73893312D01*
X107984764Y-74103761D01*
X107988510Y-74114053D01*
X108030883Y-74204922D01*
X108041544Y-74275114D01*
X108012564Y-74339926D01*
X107953144Y-74378783D01*
X107882150Y-74379346D01*
X107827593Y-74347267D01*
X104384111Y-70903785D01*
X104376684Y-70895681D01*
X104359541Y-70875251D01*
X104359542Y-70875251D01*
X104352455Y-70866806D01*
X104342906Y-70861293D01*
X104319815Y-70847961D01*
X104310544Y-70842055D01*
X104288715Y-70826770D01*
X104279684Y-70820446D01*
X104269034Y-70817592D01*
X104265866Y-70816115D01*
X104262590Y-70814923D01*
X104253045Y-70809412D01*
X104219301Y-70803462D01*
X104215942Y-70802870D01*
X104205215Y-70800492D01*
X104168807Y-70790736D01*
X104157822Y-70791697D01*
X104157820Y-70791697D01*
X104131272Y-70794020D01*
X104120290Y-70794500D01*
X102635821Y-70794500D01*
X102567700Y-70774498D01*
X102524570Y-70727653D01*
X102522604Y-70723954D01*
X102437370Y-70563653D01*
X102313361Y-70411602D01*
X102162180Y-70286535D01*
X101989585Y-70193213D01*
X101859542Y-70152958D01*
X101808039Y-70137015D01*
X101808036Y-70137014D01*
X101802152Y-70135193D01*
X101796027Y-70134549D01*
X101796026Y-70134549D01*
X101613147Y-70115327D01*
X101613146Y-70115327D01*
X101607019Y-70114683D01*
X101484383Y-70125844D01*
X101417759Y-70131907D01*
X101417758Y-70131907D01*
X101411618Y-70132466D01*
X101405704Y-70134207D01*
X101405702Y-70134207D01*
X101276734Y-70172165D01*
X101223393Y-70187864D01*
X101217928Y-70190721D01*
X101054972Y-70275912D01*
X101054968Y-70275915D01*
X101049512Y-70278767D01*
X101044712Y-70282627D01*
X101044711Y-70282627D01*
X101010326Y-70310273D01*
X100896600Y-70401711D01*
X100770480Y-70552016D01*
X100767516Y-70557408D01*
X100767513Y-70557412D01*
X100688813Y-70700567D01*
X100675956Y-70723954D01*
X100616628Y-70910978D01*
X100594757Y-71105963D01*
X96521000Y-71105963D01*
X96521000Y-58334376D01*
X97659455Y-58334376D01*
X97660191Y-58341379D01*
X97660191Y-58341380D01*
X97660622Y-58345475D01*
X97678227Y-58512983D01*
X97736103Y-58682993D01*
X97830206Y-58835955D01*
X97835132Y-58840986D01*
X97835135Y-58840989D01*
X97838838Y-58844770D01*
X97955859Y-58964268D01*
X97961784Y-58968087D01*
X97961786Y-58968088D01*
X98000945Y-58993324D01*
X98106817Y-59061554D01*
X98113437Y-59063963D01*
X98113440Y-59063965D01*
X98268961Y-59120570D01*
X98268964Y-59120571D01*
X98275578Y-59122978D01*
X98302121Y-59126331D01*
X98410355Y-59140004D01*
X98410358Y-59140004D01*
X98414283Y-59140500D01*
X98510155Y-59140500D01*
X98643472Y-59125546D01*
X98650847Y-59122978D01*
X98718451Y-59099436D01*
X98813073Y-59066485D01*
X98820965Y-59061554D01*
X98959401Y-58975049D01*
X98965375Y-58971316D01*
X99029365Y-58907771D01*
X99087810Y-58849733D01*
X99087813Y-58849729D01*
X99092807Y-58844770D01*
X99189037Y-58693136D01*
X99199643Y-58663352D01*
X99246919Y-58530586D01*
X99246920Y-58530581D01*
X99249281Y-58523951D01*
X99250114Y-58516965D01*
X99250115Y-58516961D01*
X99269711Y-58352617D01*
X99270545Y-58345624D01*
X99269809Y-58338620D01*
X99269363Y-58334376D01*
X100159455Y-58334376D01*
X100160191Y-58341379D01*
X100160191Y-58341380D01*
X100160622Y-58345475D01*
X100178227Y-58512983D01*
X100236103Y-58682993D01*
X100330206Y-58835955D01*
X100335132Y-58840986D01*
X100335135Y-58840989D01*
X100338838Y-58844770D01*
X100455859Y-58964268D01*
X100461784Y-58968087D01*
X100461786Y-58968088D01*
X100500945Y-58993324D01*
X100606817Y-59061554D01*
X100613437Y-59063963D01*
X100613440Y-59063965D01*
X100768961Y-59120570D01*
X100768964Y-59120571D01*
X100775578Y-59122978D01*
X100802121Y-59126331D01*
X100910355Y-59140004D01*
X100910358Y-59140004D01*
X100914283Y-59140500D01*
X101010155Y-59140500D01*
X101143472Y-59125546D01*
X101150847Y-59122978D01*
X101218451Y-59099436D01*
X101313073Y-59066485D01*
X101320965Y-59061554D01*
X101459401Y-58975049D01*
X101465375Y-58971316D01*
X101529365Y-58907771D01*
X101587810Y-58849733D01*
X101587813Y-58849729D01*
X101592807Y-58844770D01*
X101689037Y-58693136D01*
X101699643Y-58663352D01*
X101746919Y-58530586D01*
X101746920Y-58530581D01*
X101749281Y-58523951D01*
X101750114Y-58516965D01*
X101750115Y-58516961D01*
X101769711Y-58352617D01*
X101770545Y-58345624D01*
X101769954Y-58340000D01*
X104667362Y-58340000D01*
X104687076Y-58565332D01*
X104745619Y-58783818D01*
X104747941Y-58788798D01*
X104747942Y-58788800D01*
X104829765Y-58964268D01*
X104841213Y-58988819D01*
X104970952Y-59174106D01*
X105130894Y-59334048D01*
X105316181Y-59463787D01*
X105321159Y-59466108D01*
X105321162Y-59466110D01*
X105516200Y-59557058D01*
X105521182Y-59559381D01*
X105526490Y-59560803D01*
X105526492Y-59560804D01*
X105734353Y-59616500D01*
X105734355Y-59616500D01*
X105739668Y-59617924D01*
X105965000Y-59637638D01*
X106190332Y-59617924D01*
X106195645Y-59616500D01*
X106195647Y-59616500D01*
X106403508Y-59560804D01*
X106403510Y-59560803D01*
X106408818Y-59559381D01*
X106413800Y-59557058D01*
X106608838Y-59466110D01*
X106608841Y-59466108D01*
X106613819Y-59463787D01*
X106799106Y-59334048D01*
X106959048Y-59174106D01*
X107088787Y-58988819D01*
X107100236Y-58964268D01*
X107182058Y-58788800D01*
X107182059Y-58788798D01*
X107184381Y-58783818D01*
X107242924Y-58565332D01*
X107262638Y-58340000D01*
X107242924Y-58114668D01*
X107184381Y-57896182D01*
X107157722Y-57839011D01*
X107091110Y-57696162D01*
X107091108Y-57696159D01*
X107088787Y-57691181D01*
X106959048Y-57505894D01*
X106799106Y-57345952D01*
X106613819Y-57216213D01*
X106608838Y-57213890D01*
X106608834Y-57213888D01*
X106588047Y-57204195D01*
X106534761Y-57157278D01*
X106515300Y-57089001D01*
X106535841Y-57021041D01*
X106588047Y-56975805D01*
X106608834Y-56966112D01*
X106608838Y-56966110D01*
X106613819Y-56963787D01*
X106799106Y-56834048D01*
X106959048Y-56674106D01*
X107088787Y-56488819D01*
X107184381Y-56283818D01*
X107185804Y-56278508D01*
X107185806Y-56278503D01*
X107191062Y-56258887D01*
X107228014Y-56198265D01*
X107291875Y-56167244D01*
X107312768Y-56165500D01*
X107722984Y-56165500D01*
X107791105Y-56185502D01*
X107812079Y-56202405D01*
X108857595Y-57247921D01*
X108891621Y-57310233D01*
X108894500Y-57337016D01*
X108894500Y-70084837D01*
X108874498Y-70152958D01*
X108826876Y-70196498D01*
X108674976Y-70275910D01*
X108674972Y-70275912D01*
X108669512Y-70278767D01*
X108664712Y-70282627D01*
X108664711Y-70282627D01*
X108630326Y-70310273D01*
X108516600Y-70401711D01*
X108390480Y-70552016D01*
X108387516Y-70557408D01*
X108387513Y-70557412D01*
X108308813Y-70700567D01*
X108295956Y-70723954D01*
X108236628Y-70910978D01*
X108214757Y-71105963D01*
X108231175Y-71301483D01*
X108285258Y-71490091D01*
X108288076Y-71495574D01*
X108372123Y-71659113D01*
X108372126Y-71659117D01*
X108374944Y-71664601D01*
X108496818Y-71818369D01*
X108646238Y-71945535D01*
X108651616Y-71948541D01*
X108651618Y-71948542D01*
X108687932Y-71968837D01*
X108817513Y-72041257D01*
X109004118Y-72101889D01*
X109041162Y-72106306D01*
X109070443Y-72109798D01*
X109135716Y-72137726D01*
X109175529Y-72196509D01*
X109177241Y-72267485D01*
X109140308Y-72328119D01*
X109076458Y-72359161D01*
X109066505Y-72360433D01*
X108997480Y-72366472D01*
X108986688Y-72368375D01*
X108776239Y-72424764D01*
X108765947Y-72428510D01*
X108568489Y-72520586D01*
X108558994Y-72526069D01*
X108506952Y-72562509D01*
X108498576Y-72572988D01*
X108505644Y-72586434D01*
X109207188Y-73287978D01*
X109221132Y-73295592D01*
X109222965Y-73295461D01*
X109229580Y-73291210D01*
X109935077Y-72585713D01*
X109941507Y-72573938D01*
X109932211Y-72561923D01*
X109881006Y-72526069D01*
X109871511Y-72520586D01*
X109674053Y-72428510D01*
X109663761Y-72424764D01*
X109453312Y-72368375D01*
X109442520Y-72366472D01*
X109387520Y-72361660D01*
X109321402Y-72335797D01*
X109279762Y-72278293D01*
X109275821Y-72207406D01*
X109310830Y-72145642D01*
X109373674Y-72112609D01*
X109387766Y-72110658D01*
X109388430Y-72110541D01*
X109394576Y-72110068D01*
X109583556Y-72057303D01*
X109758689Y-71968837D01*
X109788515Y-71945535D01*
X109908453Y-71851829D01*
X109913303Y-71848040D01*
X109943084Y-71813539D01*
X110037485Y-71704173D01*
X110037485Y-71704172D01*
X110041509Y-71699511D01*
X110138425Y-71528909D01*
X110200358Y-71342732D01*
X110224949Y-71148071D01*
X110225341Y-71120000D01*
X110206194Y-70924728D01*
X110204413Y-70918829D01*
X110204412Y-70918824D01*
X110151265Y-70742793D01*
X110149484Y-70736894D01*
X110057370Y-70563653D01*
X109933361Y-70411602D01*
X109782180Y-70286535D01*
X109611571Y-70194287D01*
X109561162Y-70144292D01*
X109545500Y-70083451D01*
X109545500Y-57169710D01*
X109545980Y-57158728D01*
X109548303Y-57132180D01*
X109548303Y-57132178D01*
X109549264Y-57121193D01*
X109539508Y-57084785D01*
X109537130Y-57074058D01*
X109534542Y-57059381D01*
X109530588Y-57036955D01*
X109525077Y-57027410D01*
X109523885Y-57024134D01*
X109522408Y-57020966D01*
X109519554Y-57010316D01*
X109497945Y-56979456D01*
X109492039Y-56970185D01*
X109478707Y-56947094D01*
X109473194Y-56937545D01*
X109444317Y-56913315D01*
X109436215Y-56905889D01*
X108154111Y-55623785D01*
X108146684Y-55615681D01*
X108129541Y-55595251D01*
X108129542Y-55595251D01*
X108122455Y-55586806D01*
X108112906Y-55581293D01*
X108089815Y-55567961D01*
X108080544Y-55562055D01*
X108058715Y-55546770D01*
X108049684Y-55540446D01*
X108039034Y-55537592D01*
X108035866Y-55536115D01*
X108032590Y-55534923D01*
X108023045Y-55529412D01*
X107989301Y-55523462D01*
X107985942Y-55522870D01*
X107975215Y-55520492D01*
X107938807Y-55510736D01*
X107927822Y-55511697D01*
X107927820Y-55511697D01*
X107901272Y-55514020D01*
X107890290Y-55514500D01*
X107312768Y-55514500D01*
X107244647Y-55494498D01*
X107198154Y-55440842D01*
X107191062Y-55421113D01*
X107185806Y-55401497D01*
X107185803Y-55401488D01*
X107184381Y-55396182D01*
X107088787Y-55191181D01*
X106959048Y-55005894D01*
X106799106Y-54845952D01*
X106613819Y-54716213D01*
X106608841Y-54713892D01*
X106608838Y-54713890D01*
X106413800Y-54622942D01*
X106413798Y-54622941D01*
X106408818Y-54620619D01*
X106403510Y-54619197D01*
X106403508Y-54619196D01*
X106195647Y-54563500D01*
X106195645Y-54563500D01*
X106190332Y-54562076D01*
X105965000Y-54542362D01*
X105739668Y-54562076D01*
X105734355Y-54563500D01*
X105734353Y-54563500D01*
X105526492Y-54619196D01*
X105526490Y-54619197D01*
X105521182Y-54620619D01*
X105516202Y-54622941D01*
X105516200Y-54622942D01*
X105321162Y-54713890D01*
X105321159Y-54713892D01*
X105316181Y-54716213D01*
X105130894Y-54845952D01*
X104970952Y-55005894D01*
X104841213Y-55191181D01*
X104745619Y-55396182D01*
X104744197Y-55401490D01*
X104744196Y-55401492D01*
X104692279Y-55595251D01*
X104687076Y-55614668D01*
X104667362Y-55840000D01*
X104687076Y-56065332D01*
X104688500Y-56070645D01*
X104688500Y-56070647D01*
X104723805Y-56202405D01*
X104745619Y-56283818D01*
X104841213Y-56488819D01*
X104970952Y-56674106D01*
X105130894Y-56834048D01*
X105316181Y-56963787D01*
X105321162Y-56966110D01*
X105321166Y-56966112D01*
X105341953Y-56975805D01*
X105395239Y-57022722D01*
X105414700Y-57090999D01*
X105394159Y-57158959D01*
X105341953Y-57204195D01*
X105321166Y-57213888D01*
X105321162Y-57213890D01*
X105316181Y-57216213D01*
X105130894Y-57345952D01*
X104970952Y-57505894D01*
X104841213Y-57691181D01*
X104838892Y-57696159D01*
X104838890Y-57696162D01*
X104772278Y-57839011D01*
X104745619Y-57896182D01*
X104687076Y-58114668D01*
X104667362Y-58340000D01*
X101769954Y-58340000D01*
X101769809Y-58338620D01*
X101752510Y-58174025D01*
X101752509Y-58174021D01*
X101751773Y-58167017D01*
X101693897Y-57997007D01*
X101599794Y-57844045D01*
X101594868Y-57839014D01*
X101594865Y-57839011D01*
X101534024Y-57776883D01*
X101474141Y-57715732D01*
X101457413Y-57704951D01*
X101329109Y-57622265D01*
X101323183Y-57618446D01*
X101316563Y-57616037D01*
X101316560Y-57616035D01*
X101161039Y-57559430D01*
X101161036Y-57559429D01*
X101154422Y-57557022D01*
X101097692Y-57549856D01*
X101019645Y-57539996D01*
X101019642Y-57539996D01*
X101015717Y-57539500D01*
X100919845Y-57539500D01*
X100786528Y-57554454D01*
X100779875Y-57556771D01*
X100779874Y-57556771D01*
X100711549Y-57580564D01*
X100616927Y-57613515D01*
X100610953Y-57617248D01*
X100610951Y-57617249D01*
X100602924Y-57622265D01*
X100464625Y-57708684D01*
X100400635Y-57772229D01*
X100342190Y-57830267D01*
X100342187Y-57830271D01*
X100337193Y-57835230D01*
X100240963Y-57986864D01*
X100238598Y-57993506D01*
X100183081Y-58149414D01*
X100183080Y-58149419D01*
X100180719Y-58156049D01*
X100179886Y-58163035D01*
X100179885Y-58163039D01*
X100164648Y-58290823D01*
X100159455Y-58334376D01*
X99269363Y-58334376D01*
X99252510Y-58174025D01*
X99252509Y-58174021D01*
X99251773Y-58167017D01*
X99193897Y-57997007D01*
X99099794Y-57844045D01*
X99094868Y-57839014D01*
X99094865Y-57839011D01*
X99034024Y-57776883D01*
X98974141Y-57715732D01*
X98957413Y-57704951D01*
X98829109Y-57622265D01*
X98823183Y-57618446D01*
X98816563Y-57616037D01*
X98816560Y-57616035D01*
X98661039Y-57559430D01*
X98661036Y-57559429D01*
X98654422Y-57557022D01*
X98597692Y-57549856D01*
X98519645Y-57539996D01*
X98519642Y-57539996D01*
X98515717Y-57539500D01*
X98419845Y-57539500D01*
X98286528Y-57554454D01*
X98279875Y-57556771D01*
X98279874Y-57556771D01*
X98211549Y-57580564D01*
X98116927Y-57613515D01*
X98110953Y-57617248D01*
X98110951Y-57617249D01*
X98102924Y-57622265D01*
X97964625Y-57708684D01*
X97900635Y-57772229D01*
X97842190Y-57830267D01*
X97842187Y-57830271D01*
X97837193Y-57835230D01*
X97740963Y-57986864D01*
X97738598Y-57993506D01*
X97683081Y-58149414D01*
X97683080Y-58149419D01*
X97680719Y-58156049D01*
X97679886Y-58163035D01*
X97679885Y-58163039D01*
X97664648Y-58290823D01*
X97659455Y-58334376D01*
X96521000Y-58334376D01*
X96521000Y-54639717D01*
X100030112Y-54639717D01*
X100035839Y-54647368D01*
X100232058Y-54767611D01*
X100240852Y-54772092D01*
X100464409Y-54864692D01*
X100473794Y-54867741D01*
X100709087Y-54924231D01*
X100718834Y-54925774D01*
X100960070Y-54944760D01*
X100969930Y-54944760D01*
X101211166Y-54925774D01*
X101220913Y-54924231D01*
X101456206Y-54867741D01*
X101465591Y-54864692D01*
X101689148Y-54772092D01*
X101697942Y-54767611D01*
X101890494Y-54649615D01*
X101899954Y-54639159D01*
X101896170Y-54630381D01*
X100977811Y-53712021D01*
X100963868Y-53704408D01*
X100962034Y-53704539D01*
X100955420Y-53708790D01*
X100036869Y-54627342D01*
X100030112Y-54639717D01*
X96521000Y-54639717D01*
X96521000Y-53344930D01*
X99360240Y-53344930D01*
X99379226Y-53586166D01*
X99380769Y-53595913D01*
X99437259Y-53831206D01*
X99440308Y-53840591D01*
X99532908Y-54064148D01*
X99537389Y-54072942D01*
X99655385Y-54265494D01*
X99665841Y-54274954D01*
X99674619Y-54271170D01*
X100592979Y-53352811D01*
X100599356Y-53341132D01*
X101329408Y-53341132D01*
X101329539Y-53342966D01*
X101333790Y-53349580D01*
X102252342Y-54268131D01*
X102264717Y-54274888D01*
X102272368Y-54269161D01*
X102392611Y-54072942D01*
X102397092Y-54064148D01*
X102489692Y-53840591D01*
X102492741Y-53831206D01*
X102549231Y-53595913D01*
X102550774Y-53586166D01*
X102569760Y-53344930D01*
X102569760Y-53335070D01*
X102569705Y-53334376D01*
X105159455Y-53334376D01*
X105160191Y-53341379D01*
X105160191Y-53341380D01*
X105161393Y-53352811D01*
X105178227Y-53512983D01*
X105180498Y-53519654D01*
X105206459Y-53595913D01*
X105236103Y-53682993D01*
X105239793Y-53688991D01*
X105239794Y-53688993D01*
X105249358Y-53704539D01*
X105330206Y-53835955D01*
X105335132Y-53840986D01*
X105335135Y-53840989D01*
X105338838Y-53844770D01*
X105455859Y-53964268D01*
X105461784Y-53968087D01*
X105461786Y-53968088D01*
X105600891Y-54057735D01*
X105606817Y-54061554D01*
X105613437Y-54063963D01*
X105613440Y-54063965D01*
X105768961Y-54120570D01*
X105768964Y-54120571D01*
X105775578Y-54122978D01*
X105802121Y-54126331D01*
X105910355Y-54140004D01*
X105910358Y-54140004D01*
X105914283Y-54140500D01*
X106010155Y-54140500D01*
X106143472Y-54125546D01*
X106150847Y-54122978D01*
X106218451Y-54099436D01*
X106313073Y-54066485D01*
X106320965Y-54061554D01*
X106459401Y-53975049D01*
X106465375Y-53971316D01*
X106529365Y-53907771D01*
X106587810Y-53849733D01*
X106587813Y-53849729D01*
X106592807Y-53844770D01*
X106689037Y-53693136D01*
X106723657Y-53595913D01*
X106746919Y-53530586D01*
X106746920Y-53530581D01*
X106749281Y-53523951D01*
X106750114Y-53516965D01*
X106750115Y-53516961D01*
X106769711Y-53352617D01*
X106770545Y-53345624D01*
X106768628Y-53327383D01*
X106752510Y-53174025D01*
X106752509Y-53174021D01*
X106751773Y-53167017D01*
X106726860Y-53093834D01*
X106696168Y-53003677D01*
X106696167Y-53003674D01*
X106693897Y-52997007D01*
X106680723Y-52975592D01*
X106603485Y-52850045D01*
X106599794Y-52844045D01*
X106594868Y-52839014D01*
X106594865Y-52839011D01*
X106534024Y-52776883D01*
X106474141Y-52715732D01*
X106457413Y-52704951D01*
X106329109Y-52622265D01*
X106323183Y-52618446D01*
X106316563Y-52616037D01*
X106316560Y-52616035D01*
X106161039Y-52559430D01*
X106161036Y-52559429D01*
X106154422Y-52557022D01*
X106097692Y-52549856D01*
X106019645Y-52539996D01*
X106019642Y-52539996D01*
X106015717Y-52539500D01*
X105919845Y-52539500D01*
X105786528Y-52554454D01*
X105779875Y-52556771D01*
X105779874Y-52556771D01*
X105711549Y-52580564D01*
X105616927Y-52613515D01*
X105610953Y-52617248D01*
X105610951Y-52617249D01*
X105602924Y-52622265D01*
X105464625Y-52708684D01*
X105400635Y-52772229D01*
X105342190Y-52830267D01*
X105342187Y-52830271D01*
X105337193Y-52835230D01*
X105240963Y-52986864D01*
X105238598Y-52993506D01*
X105183081Y-53149414D01*
X105183080Y-53149419D01*
X105180719Y-53156049D01*
X105179886Y-53163035D01*
X105179885Y-53163039D01*
X105164648Y-53290823D01*
X105159455Y-53334376D01*
X102569705Y-53334376D01*
X102550774Y-53093834D01*
X102549231Y-53084087D01*
X102492741Y-52848794D01*
X102489692Y-52839409D01*
X102397092Y-52615852D01*
X102392611Y-52607058D01*
X102274615Y-52414506D01*
X102264159Y-52405046D01*
X102255381Y-52408830D01*
X101337021Y-53327189D01*
X101329408Y-53341132D01*
X100599356Y-53341132D01*
X100600592Y-53338868D01*
X100600461Y-53337034D01*
X100596210Y-53330420D01*
X99677658Y-52411869D01*
X99665283Y-52405112D01*
X99657632Y-52410839D01*
X99537389Y-52607058D01*
X99532908Y-52615852D01*
X99440308Y-52839409D01*
X99437259Y-52848794D01*
X99380769Y-53084087D01*
X99379226Y-53093834D01*
X99360240Y-53335070D01*
X99360240Y-53344930D01*
X96521000Y-53344930D01*
X96521000Y-52040841D01*
X100030046Y-52040841D01*
X100033830Y-52049619D01*
X100952189Y-52967979D01*
X100966132Y-52975592D01*
X100967966Y-52975461D01*
X100974580Y-52971210D01*
X101893131Y-52052658D01*
X101899888Y-52040283D01*
X101894161Y-52032632D01*
X101697942Y-51912389D01*
X101689148Y-51907908D01*
X101465591Y-51815308D01*
X101456206Y-51812259D01*
X101220913Y-51755769D01*
X101211166Y-51754226D01*
X100969930Y-51735240D01*
X100960070Y-51735240D01*
X100718834Y-51754226D01*
X100709087Y-51755769D01*
X100473794Y-51812259D01*
X100464409Y-51815308D01*
X100240852Y-51907908D01*
X100232058Y-51912389D01*
X100039506Y-52030385D01*
X100030046Y-52040841D01*
X96521000Y-52040841D01*
X96521000Y-48334376D01*
X97659455Y-48334376D01*
X97660191Y-48341379D01*
X97660191Y-48341380D01*
X97660622Y-48345475D01*
X97678227Y-48512983D01*
X97680498Y-48519654D01*
X97730742Y-48667244D01*
X97736103Y-48682993D01*
X97830206Y-48835955D01*
X97835132Y-48840986D01*
X97835135Y-48840989D01*
X97838838Y-48844770D01*
X97955859Y-48964268D01*
X97961784Y-48968087D01*
X97961786Y-48968088D01*
X98000945Y-48993324D01*
X98106817Y-49061554D01*
X98113437Y-49063963D01*
X98113440Y-49063965D01*
X98268961Y-49120570D01*
X98268964Y-49120571D01*
X98275578Y-49122978D01*
X98302121Y-49126331D01*
X98410355Y-49140004D01*
X98410358Y-49140004D01*
X98414283Y-49140500D01*
X98510155Y-49140500D01*
X98643472Y-49125546D01*
X98650847Y-49122978D01*
X98718451Y-49099436D01*
X98813073Y-49066485D01*
X98820965Y-49061554D01*
X98959401Y-48975049D01*
X98965375Y-48971316D01*
X99029365Y-48907771D01*
X99087810Y-48849733D01*
X99087813Y-48849729D01*
X99092807Y-48844770D01*
X99189037Y-48693136D01*
X99199643Y-48663352D01*
X99246919Y-48530586D01*
X99246920Y-48530581D01*
X99249281Y-48523951D01*
X99250114Y-48516965D01*
X99250115Y-48516961D01*
X99269711Y-48352617D01*
X99270545Y-48345624D01*
X99269809Y-48338620D01*
X99269363Y-48334376D01*
X100159455Y-48334376D01*
X100160191Y-48341379D01*
X100160191Y-48341380D01*
X100160622Y-48345475D01*
X100178227Y-48512983D01*
X100180498Y-48519654D01*
X100230742Y-48667244D01*
X100236103Y-48682993D01*
X100330206Y-48835955D01*
X100335132Y-48840986D01*
X100335135Y-48840989D01*
X100338838Y-48844770D01*
X100455859Y-48964268D01*
X100461784Y-48968087D01*
X100461786Y-48968088D01*
X100500945Y-48993324D01*
X100606817Y-49061554D01*
X100613437Y-49063963D01*
X100613440Y-49063965D01*
X100768961Y-49120570D01*
X100768964Y-49120571D01*
X100775578Y-49122978D01*
X100802121Y-49126331D01*
X100910355Y-49140004D01*
X100910358Y-49140004D01*
X100914283Y-49140500D01*
X101010155Y-49140500D01*
X101143472Y-49125546D01*
X101150847Y-49122978D01*
X101218451Y-49099436D01*
X101313073Y-49066485D01*
X101320965Y-49061554D01*
X101459401Y-48975049D01*
X101465375Y-48971316D01*
X101529365Y-48907771D01*
X101587810Y-48849733D01*
X101587813Y-48849729D01*
X101592807Y-48844770D01*
X101689037Y-48693136D01*
X101699643Y-48663352D01*
X101746919Y-48530586D01*
X101746920Y-48530581D01*
X101749281Y-48523951D01*
X101750114Y-48516965D01*
X101750115Y-48516961D01*
X101769711Y-48352617D01*
X101770545Y-48345624D01*
X101769809Y-48338620D01*
X101752510Y-48174025D01*
X101752509Y-48174021D01*
X101751773Y-48167017D01*
X101708685Y-48040446D01*
X101696168Y-48003677D01*
X101696167Y-48003674D01*
X101693897Y-47997007D01*
X101599794Y-47844045D01*
X101594868Y-47839014D01*
X101594865Y-47839011D01*
X101534024Y-47776883D01*
X101474141Y-47715732D01*
X101457413Y-47704951D01*
X101329109Y-47622265D01*
X101323183Y-47618446D01*
X101316563Y-47616037D01*
X101316560Y-47616035D01*
X101161039Y-47559430D01*
X101161036Y-47559429D01*
X101154422Y-47557022D01*
X101097692Y-47549856D01*
X101019645Y-47539996D01*
X101019642Y-47539996D01*
X101015717Y-47539500D01*
X100919845Y-47539500D01*
X100786528Y-47554454D01*
X100779875Y-47556771D01*
X100779874Y-47556771D01*
X100711549Y-47580564D01*
X100616927Y-47613515D01*
X100610953Y-47617248D01*
X100610951Y-47617249D01*
X100602924Y-47622265D01*
X100464625Y-47708684D01*
X100400635Y-47772229D01*
X100342190Y-47830267D01*
X100342187Y-47830271D01*
X100337193Y-47835230D01*
X100240963Y-47986864D01*
X100238598Y-47993506D01*
X100183081Y-48149414D01*
X100183080Y-48149419D01*
X100180719Y-48156049D01*
X100179886Y-48163035D01*
X100179885Y-48163039D01*
X100164648Y-48290823D01*
X100159455Y-48334376D01*
X99269363Y-48334376D01*
X99252510Y-48174025D01*
X99252509Y-48174021D01*
X99251773Y-48167017D01*
X99208685Y-48040446D01*
X99196168Y-48003677D01*
X99196167Y-48003674D01*
X99193897Y-47997007D01*
X99099794Y-47844045D01*
X99094868Y-47839014D01*
X99094865Y-47839011D01*
X99034024Y-47776883D01*
X98974141Y-47715732D01*
X98957413Y-47704951D01*
X98829109Y-47622265D01*
X98823183Y-47618446D01*
X98816563Y-47616037D01*
X98816560Y-47616035D01*
X98661039Y-47559430D01*
X98661036Y-47559429D01*
X98654422Y-47557022D01*
X98597692Y-47549856D01*
X98519645Y-47539996D01*
X98519642Y-47539996D01*
X98515717Y-47539500D01*
X98419845Y-47539500D01*
X98286528Y-47554454D01*
X98279875Y-47556771D01*
X98279874Y-47556771D01*
X98211549Y-47580564D01*
X98116927Y-47613515D01*
X98110953Y-47617248D01*
X98110951Y-47617249D01*
X98102924Y-47622265D01*
X97964625Y-47708684D01*
X97900635Y-47772229D01*
X97842190Y-47830267D01*
X97842187Y-47830271D01*
X97837193Y-47835230D01*
X97740963Y-47986864D01*
X97738598Y-47993506D01*
X97683081Y-48149414D01*
X97683080Y-48149419D01*
X97680719Y-48156049D01*
X97679886Y-48163035D01*
X97679885Y-48163039D01*
X97664648Y-48290823D01*
X97659455Y-48334376D01*
X96521000Y-48334376D01*
X96521000Y-43307000D01*
X96541002Y-43238879D01*
X96594658Y-43192386D01*
X96647000Y-43181000D01*
X114174000Y-43181000D01*
X114242121Y-43201002D01*
G37*
%TD.AperFunction*%
%TD*%
%TA.AperFunction,Conductor*%
%TO.N,GND*%
G36*
X167582121Y-45105002D02*
G01*
X167628614Y-45158658D01*
X167640000Y-45211000D01*
X167640000Y-53849000D01*
X167619998Y-53917121D01*
X167566342Y-53963614D01*
X167514000Y-53975000D01*
X136016000Y-53975000D01*
X135947879Y-53954998D01*
X135901386Y-53901342D01*
X135890000Y-53849000D01*
X135890000Y-53670608D01*
X135894293Y-53637997D01*
X135911625Y-53573312D01*
X135913528Y-53562519D01*
X135932517Y-53345475D01*
X135932517Y-53334525D01*
X135913528Y-53117481D01*
X135911625Y-53106688D01*
X135894293Y-53042003D01*
X135890000Y-53009392D01*
X135890000Y-48312190D01*
X135910002Y-48244069D01*
X135926905Y-48223095D01*
X135951423Y-48198577D01*
X151565483Y-48198577D01*
X151565658Y-48203029D01*
X151573004Y-48389994D01*
X151576327Y-48474583D01*
X151625953Y-48746309D01*
X151713370Y-49008331D01*
X151715363Y-49012319D01*
X151798550Y-49178802D01*
X151836834Y-49255421D01*
X151993882Y-49482651D01*
X152181380Y-49685485D01*
X152184834Y-49688297D01*
X152392131Y-49857063D01*
X152392135Y-49857066D01*
X152395588Y-49859877D01*
X152399410Y-49862178D01*
X152562761Y-49960523D01*
X152632230Y-50002347D01*
X152730747Y-50044064D01*
X152882482Y-50108316D01*
X152882487Y-50108318D01*
X152886585Y-50110053D01*
X152890882Y-50111192D01*
X152890887Y-50111194D01*
X153020082Y-50145449D01*
X153153579Y-50180845D01*
X153427884Y-50213311D01*
X153704027Y-50206804D01*
X153789587Y-50192563D01*
X153972108Y-50162183D01*
X153972112Y-50162182D01*
X153976498Y-50161452D01*
X153980739Y-50160111D01*
X153980742Y-50160110D01*
X154235615Y-50079504D01*
X154235617Y-50079503D01*
X154239861Y-50078161D01*
X154243872Y-50076235D01*
X154243877Y-50076233D01*
X154484842Y-49960523D01*
X154484843Y-49960522D01*
X154488861Y-49958593D01*
X154492567Y-49956117D01*
X154714821Y-49807612D01*
X154714825Y-49807609D01*
X154718529Y-49805134D01*
X154924283Y-49620845D01*
X155102018Y-49409403D01*
X155248188Y-49175028D01*
X155359875Y-48922396D01*
X155434853Y-48656547D01*
X155440036Y-48617955D01*
X155471196Y-48385968D01*
X155471197Y-48385961D01*
X155471623Y-48382786D01*
X155475482Y-48260000D01*
X155455973Y-47984470D01*
X155442911Y-47923796D01*
X155398773Y-47718785D01*
X155398773Y-47718783D01*
X155397837Y-47714438D01*
X155302233Y-47455291D01*
X155171068Y-47212200D01*
X155006960Y-46990016D01*
X154813183Y-46793171D01*
X154593604Y-46625594D01*
X154539448Y-46595265D01*
X154356490Y-46492803D01*
X154356487Y-46492802D01*
X154352604Y-46490627D01*
X154348459Y-46489023D01*
X154348456Y-46489022D01*
X154099134Y-46392567D01*
X154094991Y-46390964D01*
X154090666Y-46389961D01*
X154090661Y-46389960D01*
X153942567Y-46355634D01*
X153825905Y-46328593D01*
X153550715Y-46304759D01*
X153546280Y-46305003D01*
X153546276Y-46305003D01*
X153279356Y-46319693D01*
X153279349Y-46319694D01*
X153274913Y-46319938D01*
X153087848Y-46357147D01*
X153008364Y-46372957D01*
X153008362Y-46372958D01*
X153004001Y-46373825D01*
X152743384Y-46465347D01*
X152498263Y-46592678D01*
X152494648Y-46595261D01*
X152494642Y-46595265D01*
X152277150Y-46750687D01*
X152277146Y-46750690D01*
X152273529Y-46753275D01*
X152073665Y-46943936D01*
X151902659Y-47160856D01*
X151837294Y-47273391D01*
X151766161Y-47395853D01*
X151766158Y-47395859D01*
X151763923Y-47399707D01*
X151660226Y-47655723D01*
X151659155Y-47660036D01*
X151659153Y-47660041D01*
X151645641Y-47714438D01*
X151593636Y-47923796D01*
X151593182Y-47928224D01*
X151593182Y-47928226D01*
X151572835Y-48126816D01*
X151565483Y-48198577D01*
X135951423Y-48198577D01*
X139028095Y-45121905D01*
X139090407Y-45087879D01*
X139117190Y-45085000D01*
X167514000Y-45085000D01*
X167582121Y-45105002D01*
G37*
%TD.AperFunction*%
%TD*%
%TA.AperFunction,Conductor*%
%TO.N,VCC*%
G36*
X126942121Y-45740002D02*
G01*
X126988614Y-45793658D01*
X127000000Y-45846000D01*
X127000000Y-73534000D01*
X126979998Y-73602121D01*
X126926342Y-73648614D01*
X126874000Y-73660000D01*
X124586000Y-73660000D01*
X124517879Y-73639998D01*
X124471386Y-73586342D01*
X124460000Y-73534000D01*
X124460000Y-45846000D01*
X124480002Y-45777879D01*
X124533658Y-45731386D01*
X124586000Y-45720000D01*
X126874000Y-45720000D01*
X126942121Y-45740002D01*
G37*
%TD.AperFunction*%
%TD*%
%TA.AperFunction,Conductor*%
%TO.N,VCC*%
G36*
X120592121Y-81300002D02*
G01*
X120638614Y-81353658D01*
X120650000Y-81406000D01*
X120650000Y-82386000D01*
X120629998Y-82454121D01*
X120576342Y-82500614D01*
X120524000Y-82512000D01*
X120195635Y-82512000D01*
X120190170Y-82512238D01*
X120027481Y-82526472D01*
X120016688Y-82528375D01*
X119806239Y-82584764D01*
X119795947Y-82588510D01*
X119598489Y-82680586D01*
X119588993Y-82686069D01*
X119410533Y-82811028D01*
X119402125Y-82818084D01*
X119248084Y-82972125D01*
X119241028Y-82980533D01*
X119116069Y-83158993D01*
X119110586Y-83168489D01*
X119018510Y-83365947D01*
X119014764Y-83376239D01*
X118958375Y-83586688D01*
X118956472Y-83597480D01*
X118947067Y-83704981D01*
X118921204Y-83771099D01*
X118863700Y-83812739D01*
X118821546Y-83820000D01*
X118110000Y-83820000D01*
X118110000Y-134620000D01*
X125858000Y-134620000D01*
X125926121Y-134640002D01*
X125972614Y-134693658D01*
X125984000Y-134746000D01*
X125984000Y-137034000D01*
X125963998Y-137102121D01*
X125910342Y-137148614D01*
X125858000Y-137160000D01*
X108076000Y-137160000D01*
X108007879Y-137139998D01*
X107961386Y-137086342D01*
X107950000Y-137034000D01*
X107950000Y-91425963D01*
X108214757Y-91425963D01*
X108231175Y-91621483D01*
X108285258Y-91810091D01*
X108288076Y-91815574D01*
X108372123Y-91979113D01*
X108372126Y-91979117D01*
X108374944Y-91984601D01*
X108496818Y-92138369D01*
X108646238Y-92265535D01*
X108651616Y-92268541D01*
X108651618Y-92268542D01*
X108687932Y-92288837D01*
X108817513Y-92361257D01*
X109004118Y-92421889D01*
X109198946Y-92445121D01*
X109205081Y-92444649D01*
X109205083Y-92444649D01*
X109388434Y-92430541D01*
X109388438Y-92430540D01*
X109394576Y-92430068D01*
X109583556Y-92377303D01*
X109758689Y-92288837D01*
X109788515Y-92265535D01*
X109908453Y-92171829D01*
X109913303Y-92168040D01*
X109943084Y-92133539D01*
X110037485Y-92024173D01*
X110037485Y-92024172D01*
X110041509Y-92019511D01*
X110138425Y-91848909D01*
X110200358Y-91662732D01*
X110224949Y-91468071D01*
X110225341Y-91440000D01*
X110223965Y-91425963D01*
X115834757Y-91425963D01*
X115851175Y-91621483D01*
X115905258Y-91810091D01*
X115908076Y-91815574D01*
X115992123Y-91979113D01*
X115992126Y-91979117D01*
X115994944Y-91984601D01*
X116116818Y-92138369D01*
X116266238Y-92265535D01*
X116271616Y-92268541D01*
X116271618Y-92268542D01*
X116307932Y-92288837D01*
X116437513Y-92361257D01*
X116624118Y-92421889D01*
X116818946Y-92445121D01*
X116825081Y-92444649D01*
X116825083Y-92444649D01*
X117008434Y-92430541D01*
X117008438Y-92430540D01*
X117014576Y-92430068D01*
X117203556Y-92377303D01*
X117378689Y-92288837D01*
X117408515Y-92265535D01*
X117528453Y-92171829D01*
X117533303Y-92168040D01*
X117563084Y-92133539D01*
X117657485Y-92024173D01*
X117657485Y-92024172D01*
X117661509Y-92019511D01*
X117758425Y-91848909D01*
X117820358Y-91662732D01*
X117844949Y-91468071D01*
X117845341Y-91440000D01*
X117826194Y-91244728D01*
X117824413Y-91238829D01*
X117824412Y-91238824D01*
X117771265Y-91062793D01*
X117769484Y-91056894D01*
X117677370Y-90883653D01*
X117553361Y-90731602D01*
X117402180Y-90606535D01*
X117229585Y-90513213D01*
X117126859Y-90481414D01*
X117048039Y-90457015D01*
X117048036Y-90457014D01*
X117042152Y-90455193D01*
X117036027Y-90454549D01*
X117036026Y-90454549D01*
X116853147Y-90435327D01*
X116853146Y-90435327D01*
X116847019Y-90434683D01*
X116724383Y-90445844D01*
X116657759Y-90451907D01*
X116657758Y-90451907D01*
X116651618Y-90452466D01*
X116645704Y-90454207D01*
X116645702Y-90454207D01*
X116553262Y-90481414D01*
X116463393Y-90507864D01*
X116457928Y-90510721D01*
X116294972Y-90595912D01*
X116294968Y-90595915D01*
X116289512Y-90598767D01*
X116284712Y-90602627D01*
X116284711Y-90602627D01*
X116270313Y-90614203D01*
X116136600Y-90721711D01*
X116010480Y-90872016D01*
X116007516Y-90877408D01*
X116007513Y-90877412D01*
X115940588Y-90999148D01*
X115915956Y-91043954D01*
X115856628Y-91230978D01*
X115834757Y-91425963D01*
X110223965Y-91425963D01*
X110206194Y-91244728D01*
X110204413Y-91238829D01*
X110204412Y-91238824D01*
X110151265Y-91062793D01*
X110149484Y-91056894D01*
X110057370Y-90883653D01*
X109933361Y-90731602D01*
X109782180Y-90606535D01*
X109609585Y-90513213D01*
X109506859Y-90481414D01*
X109428039Y-90457015D01*
X109428036Y-90457014D01*
X109422152Y-90455193D01*
X109416027Y-90454549D01*
X109416026Y-90454549D01*
X109233147Y-90435327D01*
X109233146Y-90435327D01*
X109227019Y-90434683D01*
X109104383Y-90445844D01*
X109037759Y-90451907D01*
X109037758Y-90451907D01*
X109031618Y-90452466D01*
X109025704Y-90454207D01*
X109025702Y-90454207D01*
X108933262Y-90481414D01*
X108843393Y-90507864D01*
X108837928Y-90510721D01*
X108674972Y-90595912D01*
X108674968Y-90595915D01*
X108669512Y-90598767D01*
X108664712Y-90602627D01*
X108664711Y-90602627D01*
X108650313Y-90614203D01*
X108516600Y-90721711D01*
X108390480Y-90872016D01*
X108387516Y-90877408D01*
X108387513Y-90877412D01*
X108320588Y-90999148D01*
X108295956Y-91043954D01*
X108236628Y-91230978D01*
X108214757Y-91425963D01*
X107950000Y-91425963D01*
X107950000Y-88885963D01*
X108214757Y-88885963D01*
X108231175Y-89081483D01*
X108285258Y-89270091D01*
X108288076Y-89275574D01*
X108372123Y-89439113D01*
X108372126Y-89439117D01*
X108374944Y-89444601D01*
X108496818Y-89598369D01*
X108646238Y-89725535D01*
X108651616Y-89728541D01*
X108651618Y-89728542D01*
X108687932Y-89748837D01*
X108817513Y-89821257D01*
X109004118Y-89881889D01*
X109198946Y-89905121D01*
X109205081Y-89904649D01*
X109205083Y-89904649D01*
X109388434Y-89890541D01*
X109388438Y-89890540D01*
X109394576Y-89890068D01*
X109583556Y-89837303D01*
X109758689Y-89748837D01*
X109788515Y-89725535D01*
X109908453Y-89631829D01*
X109913303Y-89628040D01*
X109943084Y-89593539D01*
X110037485Y-89484173D01*
X110037485Y-89484172D01*
X110041509Y-89479511D01*
X110138425Y-89308909D01*
X110200358Y-89122732D01*
X110224949Y-88928071D01*
X110225341Y-88900000D01*
X110223965Y-88885963D01*
X115834757Y-88885963D01*
X115851175Y-89081483D01*
X115905258Y-89270091D01*
X115908076Y-89275574D01*
X115992123Y-89439113D01*
X115992126Y-89439117D01*
X115994944Y-89444601D01*
X116116818Y-89598369D01*
X116266238Y-89725535D01*
X116271616Y-89728541D01*
X116271618Y-89728542D01*
X116307932Y-89748837D01*
X116437513Y-89821257D01*
X116624118Y-89881889D01*
X116818946Y-89905121D01*
X116825081Y-89904649D01*
X116825083Y-89904649D01*
X117008434Y-89890541D01*
X117008438Y-89890540D01*
X117014576Y-89890068D01*
X117203556Y-89837303D01*
X117378689Y-89748837D01*
X117408515Y-89725535D01*
X117528453Y-89631829D01*
X117533303Y-89628040D01*
X117563084Y-89593539D01*
X117657485Y-89484173D01*
X117657485Y-89484172D01*
X117661509Y-89479511D01*
X117758425Y-89308909D01*
X117820358Y-89122732D01*
X117844949Y-88928071D01*
X117845341Y-88900000D01*
X117826194Y-88704728D01*
X117824413Y-88698829D01*
X117824412Y-88698824D01*
X117771265Y-88522793D01*
X117769484Y-88516894D01*
X117677370Y-88343653D01*
X117553361Y-88191602D01*
X117402180Y-88066535D01*
X117229585Y-87973213D01*
X117126859Y-87941414D01*
X117048039Y-87917015D01*
X117048036Y-87917014D01*
X117042152Y-87915193D01*
X117036027Y-87914549D01*
X117036026Y-87914549D01*
X116853147Y-87895327D01*
X116853146Y-87895327D01*
X116847019Y-87894683D01*
X116724383Y-87905844D01*
X116657759Y-87911907D01*
X116657758Y-87911907D01*
X116651618Y-87912466D01*
X116645704Y-87914207D01*
X116645702Y-87914207D01*
X116553262Y-87941414D01*
X116463393Y-87967864D01*
X116457928Y-87970721D01*
X116294972Y-88055912D01*
X116294968Y-88055915D01*
X116289512Y-88058767D01*
X116284712Y-88062627D01*
X116284711Y-88062627D01*
X116270313Y-88074203D01*
X116136600Y-88181711D01*
X116010480Y-88332016D01*
X116007516Y-88337408D01*
X116007513Y-88337412D01*
X115940588Y-88459148D01*
X115915956Y-88503954D01*
X115856628Y-88690978D01*
X115834757Y-88885963D01*
X110223965Y-88885963D01*
X110206194Y-88704728D01*
X110204413Y-88698829D01*
X110204412Y-88698824D01*
X110151265Y-88522793D01*
X110149484Y-88516894D01*
X110057370Y-88343653D01*
X109933361Y-88191602D01*
X109782180Y-88066535D01*
X109609585Y-87973213D01*
X109506859Y-87941414D01*
X109428039Y-87917015D01*
X109428036Y-87917014D01*
X109422152Y-87915193D01*
X109416027Y-87914549D01*
X109416026Y-87914549D01*
X109233147Y-87895327D01*
X109233146Y-87895327D01*
X109227019Y-87894683D01*
X109104383Y-87905844D01*
X109037759Y-87911907D01*
X109037758Y-87911907D01*
X109031618Y-87912466D01*
X109025704Y-87914207D01*
X109025702Y-87914207D01*
X108933262Y-87941414D01*
X108843393Y-87967864D01*
X108837928Y-87970721D01*
X108674972Y-88055912D01*
X108674968Y-88055915D01*
X108669512Y-88058767D01*
X108664712Y-88062627D01*
X108664711Y-88062627D01*
X108650313Y-88074203D01*
X108516600Y-88181711D01*
X108390480Y-88332016D01*
X108387516Y-88337408D01*
X108387513Y-88337412D01*
X108320588Y-88459148D01*
X108295956Y-88503954D01*
X108236628Y-88690978D01*
X108214757Y-88885963D01*
X107950000Y-88885963D01*
X107950000Y-86345963D01*
X108214757Y-86345963D01*
X108231175Y-86541483D01*
X108285258Y-86730091D01*
X108288076Y-86735574D01*
X108372123Y-86899113D01*
X108372126Y-86899117D01*
X108374944Y-86904601D01*
X108496818Y-87058369D01*
X108646238Y-87185535D01*
X108651616Y-87188541D01*
X108651618Y-87188542D01*
X108687932Y-87208837D01*
X108817513Y-87281257D01*
X109004118Y-87341889D01*
X109198946Y-87365121D01*
X109205081Y-87364649D01*
X109205083Y-87364649D01*
X109388434Y-87350541D01*
X109388438Y-87350540D01*
X109394576Y-87350068D01*
X109583556Y-87297303D01*
X109758689Y-87208837D01*
X109788515Y-87185535D01*
X109908453Y-87091829D01*
X109913303Y-87088040D01*
X109943084Y-87053539D01*
X110037485Y-86944173D01*
X110037485Y-86944172D01*
X110041509Y-86939511D01*
X110138425Y-86768909D01*
X110200358Y-86582732D01*
X110224949Y-86388071D01*
X110225341Y-86360000D01*
X110223965Y-86345963D01*
X115834757Y-86345963D01*
X115851175Y-86541483D01*
X115905258Y-86730091D01*
X115908076Y-86735574D01*
X115992123Y-86899113D01*
X115992126Y-86899117D01*
X115994944Y-86904601D01*
X116116818Y-87058369D01*
X116266238Y-87185535D01*
X116271616Y-87188541D01*
X116271618Y-87188542D01*
X116307932Y-87208837D01*
X116437513Y-87281257D01*
X116624118Y-87341889D01*
X116818946Y-87365121D01*
X116825081Y-87364649D01*
X116825083Y-87364649D01*
X117008434Y-87350541D01*
X117008438Y-87350540D01*
X117014576Y-87350068D01*
X117203556Y-87297303D01*
X117378689Y-87208837D01*
X117408515Y-87185535D01*
X117528453Y-87091829D01*
X117533303Y-87088040D01*
X117563084Y-87053539D01*
X117657485Y-86944173D01*
X117657485Y-86944172D01*
X117661509Y-86939511D01*
X117758425Y-86768909D01*
X117820358Y-86582732D01*
X117844949Y-86388071D01*
X117845341Y-86360000D01*
X117826194Y-86164728D01*
X117824413Y-86158829D01*
X117824412Y-86158824D01*
X117771265Y-85982793D01*
X117769484Y-85976894D01*
X117677370Y-85803653D01*
X117553361Y-85651602D01*
X117402180Y-85526535D01*
X117229585Y-85433213D01*
X117126859Y-85401414D01*
X117048039Y-85377015D01*
X117048036Y-85377014D01*
X117042152Y-85375193D01*
X117036027Y-85374549D01*
X117036026Y-85374549D01*
X116853147Y-85355327D01*
X116853146Y-85355327D01*
X116847019Y-85354683D01*
X116724383Y-85365844D01*
X116657759Y-85371907D01*
X116657758Y-85371907D01*
X116651618Y-85372466D01*
X116645704Y-85374207D01*
X116645702Y-85374207D01*
X116553262Y-85401414D01*
X116463393Y-85427864D01*
X116457928Y-85430721D01*
X116294972Y-85515912D01*
X116294968Y-85515915D01*
X116289512Y-85518767D01*
X116284712Y-85522627D01*
X116284711Y-85522627D01*
X116270313Y-85534203D01*
X116136600Y-85641711D01*
X116010480Y-85792016D01*
X116007516Y-85797408D01*
X116007513Y-85797412D01*
X115940588Y-85919148D01*
X115915956Y-85963954D01*
X115856628Y-86150978D01*
X115834757Y-86345963D01*
X110223965Y-86345963D01*
X110206194Y-86164728D01*
X110204413Y-86158829D01*
X110204412Y-86158824D01*
X110151265Y-85982793D01*
X110149484Y-85976894D01*
X110057370Y-85803653D01*
X109933361Y-85651602D01*
X109782180Y-85526535D01*
X109609585Y-85433213D01*
X109506859Y-85401414D01*
X109428039Y-85377015D01*
X109428036Y-85377014D01*
X109422152Y-85375193D01*
X109416027Y-85374549D01*
X109416026Y-85374549D01*
X109233147Y-85355327D01*
X109233146Y-85355327D01*
X109227019Y-85354683D01*
X109104383Y-85365844D01*
X109037759Y-85371907D01*
X109037758Y-85371907D01*
X109031618Y-85372466D01*
X109025704Y-85374207D01*
X109025702Y-85374207D01*
X108933262Y-85401414D01*
X108843393Y-85427864D01*
X108837928Y-85430721D01*
X108674972Y-85515912D01*
X108674968Y-85515915D01*
X108669512Y-85518767D01*
X108664712Y-85522627D01*
X108664711Y-85522627D01*
X108650313Y-85534203D01*
X108516600Y-85641711D01*
X108390480Y-85792016D01*
X108387516Y-85797408D01*
X108387513Y-85797412D01*
X108320588Y-85919148D01*
X108295956Y-85963954D01*
X108236628Y-86150978D01*
X108214757Y-86345963D01*
X107950000Y-86345963D01*
X107950000Y-81406000D01*
X107970002Y-81337879D01*
X108023658Y-81291386D01*
X108076000Y-81280000D01*
X120524000Y-81280000D01*
X120592121Y-81300002D01*
G37*
%TD.AperFunction*%
%TD*%
M02*
