%TF.GenerationSoftware,KiCad,Pcbnew,7.0.8+1*%
%TF.CreationDate,2023-11-19T13:01:46+01:00*%
%TF.ProjectId,QL_Qsound10x10,514c5f51-736f-4756-9e64-31307831302e,rev?*%
%TF.SameCoordinates,Original*%
%TF.FileFunction,Copper,L1,Top*%
%TF.FilePolarity,Positive*%
%FSLAX46Y46*%
G04 Gerber Fmt 4.6, Leading zero omitted, Abs format (unit mm)*
G04 Created by KiCad (PCBNEW 7.0.8+1) date 2023-11-19 13:01:46*
%MOMM*%
%LPD*%
G01*
G04 APERTURE LIST*
G04 Aperture macros list*
%AMRoundRect*
0 Rectangle with rounded corners*
0 $1 Rounding radius*
0 $2 $3 $4 $5 $6 $7 $8 $9 X,Y pos of 4 corners*
0 Add a 4 corners polygon primitive as box body*
4,1,4,$2,$3,$4,$5,$6,$7,$8,$9,$2,$3,0*
0 Add four circle primitives for the rounded corners*
1,1,$1+$1,$2,$3*
1,1,$1+$1,$4,$5*
1,1,$1+$1,$6,$7*
1,1,$1+$1,$8,$9*
0 Add four rect primitives between the rounded corners*
20,1,$1+$1,$2,$3,$4,$5,0*
20,1,$1+$1,$4,$5,$6,$7,0*
20,1,$1+$1,$6,$7,$8,$9,0*
20,1,$1+$1,$8,$9,$2,$3,0*%
G04 Aperture macros list end*
%ADD10C,0.300000*%
%TA.AperFunction,NonConductor*%
%ADD11C,0.300000*%
%TD*%
%ADD12C,0.500000*%
%TA.AperFunction,NonConductor*%
%ADD13C,0.500000*%
%TD*%
%ADD14C,1.000000*%
%TA.AperFunction,NonConductor*%
%ADD15C,1.000000*%
%TD*%
%ADD16C,0.400000*%
%TA.AperFunction,NonConductor*%
%ADD17C,0.400000*%
%TD*%
%TA.AperFunction,ComponentPad*%
%ADD18C,2.184400*%
%TD*%
%TA.AperFunction,ComponentPad*%
%ADD19R,2.400000X1.600000*%
%TD*%
%TA.AperFunction,ComponentPad*%
%ADD20O,2.400000X1.600000*%
%TD*%
%TA.AperFunction,ComponentPad*%
%ADD21C,1.600000*%
%TD*%
%TA.AperFunction,ComponentPad*%
%ADD22O,1.600000X1.600000*%
%TD*%
%TA.AperFunction,ComponentPad*%
%ADD23R,1.500000X1.050000*%
%TD*%
%TA.AperFunction,ComponentPad*%
%ADD24O,1.500000X1.050000*%
%TD*%
%TA.AperFunction,ComponentPad*%
%ADD25R,1.700000X1.700000*%
%TD*%
%TA.AperFunction,ComponentPad*%
%ADD26O,1.700000X1.700000*%
%TD*%
%TA.AperFunction,ComponentPad*%
%ADD27R,2.000000X1.905000*%
%TD*%
%TA.AperFunction,ComponentPad*%
%ADD28O,2.000000X1.905000*%
%TD*%
%TA.AperFunction,ComponentPad*%
%ADD29RoundRect,0.249999X-0.525001X0.525001X-0.525001X-0.525001X0.525001X-0.525001X0.525001X0.525001X0*%
%TD*%
%TA.AperFunction,ComponentPad*%
%ADD30C,1.550000*%
%TD*%
%TA.AperFunction,ComponentPad*%
%ADD31R,1.600000X1.600000*%
%TD*%
%TA.AperFunction,ViaPad*%
%ADD32C,0.800000*%
%TD*%
%TA.AperFunction,ViaPad*%
%ADD33C,1.600000*%
%TD*%
%TA.AperFunction,Conductor*%
%ADD34C,0.500000*%
%TD*%
%TA.AperFunction,Conductor*%
%ADD35C,0.250000*%
%TD*%
G04 APERTURE END LIST*
D10*
D11*
X151822857Y-136695471D02*
X151680000Y-136624042D01*
X151680000Y-136624042D02*
X151394286Y-136624042D01*
X151394286Y-136624042D02*
X151251429Y-136695471D01*
X151251429Y-136695471D02*
X151108571Y-136838328D01*
X151108571Y-136838328D02*
X151037143Y-136981185D01*
X151037143Y-136981185D02*
X151037143Y-137266900D01*
X151037143Y-137266900D02*
X151108571Y-137409757D01*
X151108571Y-137409757D02*
X151251429Y-137552614D01*
X151251429Y-137552614D02*
X151394286Y-137624042D01*
X151394286Y-137624042D02*
X151680000Y-137624042D01*
X151680000Y-137624042D02*
X151822857Y-137552614D01*
X151537143Y-136124042D02*
X151180000Y-136195471D01*
X151180000Y-136195471D02*
X150822857Y-136409757D01*
X150822857Y-136409757D02*
X150608571Y-136766900D01*
X150608571Y-136766900D02*
X150537143Y-137124042D01*
X150537143Y-137124042D02*
X150608571Y-137481185D01*
X150608571Y-137481185D02*
X150822857Y-137838328D01*
X150822857Y-137838328D02*
X151180000Y-138052614D01*
X151180000Y-138052614D02*
X151537143Y-138124042D01*
X151537143Y-138124042D02*
X151894286Y-138052614D01*
X151894286Y-138052614D02*
X152251429Y-137838328D01*
X152251429Y-137838328D02*
X152465714Y-137481185D01*
X152465714Y-137481185D02*
X152537143Y-137124042D01*
X152537143Y-137124042D02*
X152465714Y-136766900D01*
X152465714Y-136766900D02*
X152251429Y-136409757D01*
X152251429Y-136409757D02*
X151894286Y-136195471D01*
X151894286Y-136195471D02*
X151537143Y-136124042D01*
X154322857Y-137838328D02*
X154322857Y-136338328D01*
X154322857Y-136338328D02*
X154822857Y-137409757D01*
X154822857Y-137409757D02*
X155322857Y-136338328D01*
X155322857Y-136338328D02*
X155322857Y-137838328D01*
X156894286Y-137695471D02*
X156822858Y-137766900D01*
X156822858Y-137766900D02*
X156608572Y-137838328D01*
X156608572Y-137838328D02*
X156465715Y-137838328D01*
X156465715Y-137838328D02*
X156251429Y-137766900D01*
X156251429Y-137766900D02*
X156108572Y-137624042D01*
X156108572Y-137624042D02*
X156037143Y-137481185D01*
X156037143Y-137481185D02*
X155965715Y-137195471D01*
X155965715Y-137195471D02*
X155965715Y-136981185D01*
X155965715Y-136981185D02*
X156037143Y-136695471D01*
X156037143Y-136695471D02*
X156108572Y-136552614D01*
X156108572Y-136552614D02*
X156251429Y-136409757D01*
X156251429Y-136409757D02*
X156465715Y-136338328D01*
X156465715Y-136338328D02*
X156608572Y-136338328D01*
X156608572Y-136338328D02*
X156822858Y-136409757D01*
X156822858Y-136409757D02*
X156894286Y-136481185D01*
X157537143Y-137838328D02*
X157537143Y-136338328D01*
X157537143Y-136338328D02*
X158037143Y-137409757D01*
X158037143Y-137409757D02*
X158537143Y-136338328D01*
X158537143Y-136338328D02*
X158537143Y-137838328D01*
X159965715Y-137838328D02*
X159251429Y-137838328D01*
X159251429Y-137838328D02*
X159251429Y-136338328D01*
X160322858Y-136338328D02*
X161322858Y-137838328D01*
X161322858Y-136338328D02*
X160322858Y-137838328D01*
X161751429Y-136338328D02*
X162751429Y-137838328D01*
X162751429Y-136338328D02*
X161751429Y-137838328D01*
X163180000Y-136338328D02*
X164180000Y-137838328D01*
X164180000Y-136338328D02*
X163180000Y-137838328D01*
X164537143Y-136338328D02*
X165037143Y-137838328D01*
X165037143Y-137838328D02*
X165537143Y-136338328D01*
X166037142Y-137838328D02*
X166037142Y-136338328D01*
X168322857Y-136338328D02*
X168322857Y-137409757D01*
X168322857Y-137409757D02*
X168251428Y-137624042D01*
X168251428Y-137624042D02*
X168108571Y-137766900D01*
X168108571Y-137766900D02*
X167894285Y-137838328D01*
X167894285Y-137838328D02*
X167751428Y-137838328D01*
X169037142Y-137695471D02*
X169108571Y-137766900D01*
X169108571Y-137766900D02*
X169037142Y-137838328D01*
X169037142Y-137838328D02*
X168965714Y-137766900D01*
X168965714Y-137766900D02*
X169037142Y-137695471D01*
X169037142Y-137695471D02*
X169037142Y-137838328D01*
X169751428Y-137838328D02*
X169751428Y-136338328D01*
X169751428Y-136338328D02*
X170251428Y-137409757D01*
X170251428Y-137409757D02*
X170751428Y-136338328D01*
X170751428Y-136338328D02*
X170751428Y-137838328D01*
X172037143Y-137766900D02*
X171894286Y-137838328D01*
X171894286Y-137838328D02*
X171608572Y-137838328D01*
X171608572Y-137838328D02*
X171465714Y-137766900D01*
X171465714Y-137766900D02*
X171394286Y-137624042D01*
X171394286Y-137624042D02*
X171394286Y-137052614D01*
X171394286Y-137052614D02*
X171465714Y-136909757D01*
X171465714Y-136909757D02*
X171608572Y-136838328D01*
X171608572Y-136838328D02*
X171894286Y-136838328D01*
X171894286Y-136838328D02*
X172037143Y-136909757D01*
X172037143Y-136909757D02*
X172108572Y-137052614D01*
X172108572Y-137052614D02*
X172108572Y-137195471D01*
X172108572Y-137195471D02*
X171394286Y-137338328D01*
X172751428Y-137838328D02*
X172751428Y-136838328D01*
X172751428Y-137124042D02*
X172822857Y-136981185D01*
X172822857Y-136981185D02*
X172894286Y-136909757D01*
X172894286Y-136909757D02*
X173037143Y-136838328D01*
X173037143Y-136838328D02*
X173180000Y-136838328D01*
X173537142Y-136838328D02*
X174322857Y-136838328D01*
X174322857Y-136838328D02*
X173537142Y-137838328D01*
X173537142Y-137838328D02*
X174322857Y-137838328D01*
X176037142Y-137266900D02*
X177180000Y-137266900D01*
X176608571Y-137838328D02*
X176608571Y-136695471D01*
X179465714Y-136338328D02*
X179465714Y-137409757D01*
X179465714Y-137409757D02*
X179394285Y-137624042D01*
X179394285Y-137624042D02*
X179251428Y-137766900D01*
X179251428Y-137766900D02*
X179037142Y-137838328D01*
X179037142Y-137838328D02*
X178894285Y-137838328D01*
X180179999Y-137695471D02*
X180251428Y-137766900D01*
X180251428Y-137766900D02*
X180179999Y-137838328D01*
X180179999Y-137838328D02*
X180108571Y-137766900D01*
X180108571Y-137766900D02*
X180179999Y-137695471D01*
X180179999Y-137695471D02*
X180179999Y-137838328D01*
X181751428Y-137838328D02*
X181251428Y-137124042D01*
X180894285Y-137838328D02*
X180894285Y-136338328D01*
X180894285Y-136338328D02*
X181465714Y-136338328D01*
X181465714Y-136338328D02*
X181608571Y-136409757D01*
X181608571Y-136409757D02*
X181680000Y-136481185D01*
X181680000Y-136481185D02*
X181751428Y-136624042D01*
X181751428Y-136624042D02*
X181751428Y-136838328D01*
X181751428Y-136838328D02*
X181680000Y-136981185D01*
X181680000Y-136981185D02*
X181608571Y-137052614D01*
X181608571Y-137052614D02*
X181465714Y-137124042D01*
X181465714Y-137124042D02*
X180894285Y-137124042D01*
X182965714Y-137766900D02*
X182822857Y-137838328D01*
X182822857Y-137838328D02*
X182537143Y-137838328D01*
X182537143Y-137838328D02*
X182394285Y-137766900D01*
X182394285Y-137766900D02*
X182322857Y-137624042D01*
X182322857Y-137624042D02*
X182322857Y-137052614D01*
X182322857Y-137052614D02*
X182394285Y-136909757D01*
X182394285Y-136909757D02*
X182537143Y-136838328D01*
X182537143Y-136838328D02*
X182822857Y-136838328D01*
X182822857Y-136838328D02*
X182965714Y-136909757D01*
X182965714Y-136909757D02*
X183037143Y-137052614D01*
X183037143Y-137052614D02*
X183037143Y-137195471D01*
X183037143Y-137195471D02*
X182322857Y-137338328D01*
X183679999Y-137838328D02*
X183679999Y-136838328D01*
X183679999Y-136338328D02*
X183608571Y-136409757D01*
X183608571Y-136409757D02*
X183679999Y-136481185D01*
X183679999Y-136481185D02*
X183751428Y-136409757D01*
X183751428Y-136409757D02*
X183679999Y-136338328D01*
X183679999Y-136338328D02*
X183679999Y-136481185D01*
X184394285Y-136838328D02*
X184394285Y-137838328D01*
X184394285Y-136981185D02*
X184465714Y-136909757D01*
X184465714Y-136909757D02*
X184608571Y-136838328D01*
X184608571Y-136838328D02*
X184822857Y-136838328D01*
X184822857Y-136838328D02*
X184965714Y-136909757D01*
X184965714Y-136909757D02*
X185037143Y-137052614D01*
X185037143Y-137052614D02*
X185037143Y-137838328D01*
X185537143Y-136838328D02*
X186108571Y-136838328D01*
X185751428Y-136338328D02*
X185751428Y-137624042D01*
X185751428Y-137624042D02*
X185822857Y-137766900D01*
X185822857Y-137766900D02*
X185965714Y-137838328D01*
X185965714Y-137838328D02*
X186108571Y-137838328D01*
X186537143Y-137766900D02*
X186680000Y-137838328D01*
X186680000Y-137838328D02*
X186965714Y-137838328D01*
X186965714Y-137838328D02*
X187108571Y-137766900D01*
X187108571Y-137766900D02*
X187180000Y-137624042D01*
X187180000Y-137624042D02*
X187180000Y-137552614D01*
X187180000Y-137552614D02*
X187108571Y-137409757D01*
X187108571Y-137409757D02*
X186965714Y-137338328D01*
X186965714Y-137338328D02*
X186751429Y-137338328D01*
X186751429Y-137338328D02*
X186608571Y-137266900D01*
X186608571Y-137266900D02*
X186537143Y-137124042D01*
X186537143Y-137124042D02*
X186537143Y-137052614D01*
X186537143Y-137052614D02*
X186608571Y-136909757D01*
X186608571Y-136909757D02*
X186751429Y-136838328D01*
X186751429Y-136838328D02*
X186965714Y-136838328D01*
X186965714Y-136838328D02*
X187108571Y-136909757D01*
X188465715Y-137766900D02*
X188322857Y-137838328D01*
X188322857Y-137838328D02*
X188037143Y-137838328D01*
X188037143Y-137838328D02*
X187894286Y-137766900D01*
X187894286Y-137766900D02*
X187822857Y-137695471D01*
X187822857Y-137695471D02*
X187751429Y-137552614D01*
X187751429Y-137552614D02*
X187751429Y-137124042D01*
X187751429Y-137124042D02*
X187822857Y-136981185D01*
X187822857Y-136981185D02*
X187894286Y-136909757D01*
X187894286Y-136909757D02*
X188037143Y-136838328D01*
X188037143Y-136838328D02*
X188322857Y-136838328D01*
X188322857Y-136838328D02*
X188465715Y-136909757D01*
X189108571Y-137838328D02*
X189108571Y-136338328D01*
X189751429Y-137838328D02*
X189751429Y-137052614D01*
X189751429Y-137052614D02*
X189680000Y-136909757D01*
X189680000Y-136909757D02*
X189537143Y-136838328D01*
X189537143Y-136838328D02*
X189322857Y-136838328D01*
X189322857Y-136838328D02*
X189180000Y-136909757D01*
X189180000Y-136909757D02*
X189108571Y-136981185D01*
D10*
D11*
X105054287Y-136481185D02*
X105125715Y-136409757D01*
X105125715Y-136409757D02*
X105268573Y-136338328D01*
X105268573Y-136338328D02*
X105625715Y-136338328D01*
X105625715Y-136338328D02*
X105768573Y-136409757D01*
X105768573Y-136409757D02*
X105840001Y-136481185D01*
X105840001Y-136481185D02*
X105911430Y-136624042D01*
X105911430Y-136624042D02*
X105911430Y-136766900D01*
X105911430Y-136766900D02*
X105840001Y-136981185D01*
X105840001Y-136981185D02*
X104982858Y-137838328D01*
X104982858Y-137838328D02*
X105911430Y-137838328D01*
X106840001Y-136338328D02*
X106982858Y-136338328D01*
X106982858Y-136338328D02*
X107125715Y-136409757D01*
X107125715Y-136409757D02*
X107197144Y-136481185D01*
X107197144Y-136481185D02*
X107268572Y-136624042D01*
X107268572Y-136624042D02*
X107340001Y-136909757D01*
X107340001Y-136909757D02*
X107340001Y-137266900D01*
X107340001Y-137266900D02*
X107268572Y-137552614D01*
X107268572Y-137552614D02*
X107197144Y-137695471D01*
X107197144Y-137695471D02*
X107125715Y-137766900D01*
X107125715Y-137766900D02*
X106982858Y-137838328D01*
X106982858Y-137838328D02*
X106840001Y-137838328D01*
X106840001Y-137838328D02*
X106697144Y-137766900D01*
X106697144Y-137766900D02*
X106625715Y-137695471D01*
X106625715Y-137695471D02*
X106554286Y-137552614D01*
X106554286Y-137552614D02*
X106482858Y-137266900D01*
X106482858Y-137266900D02*
X106482858Y-136909757D01*
X106482858Y-136909757D02*
X106554286Y-136624042D01*
X106554286Y-136624042D02*
X106625715Y-136481185D01*
X106625715Y-136481185D02*
X106697144Y-136409757D01*
X106697144Y-136409757D02*
X106840001Y-136338328D01*
X107911429Y-136481185D02*
X107982857Y-136409757D01*
X107982857Y-136409757D02*
X108125715Y-136338328D01*
X108125715Y-136338328D02*
X108482857Y-136338328D01*
X108482857Y-136338328D02*
X108625715Y-136409757D01*
X108625715Y-136409757D02*
X108697143Y-136481185D01*
X108697143Y-136481185D02*
X108768572Y-136624042D01*
X108768572Y-136624042D02*
X108768572Y-136766900D01*
X108768572Y-136766900D02*
X108697143Y-136981185D01*
X108697143Y-136981185D02*
X107840000Y-137838328D01*
X107840000Y-137838328D02*
X108768572Y-137838328D01*
X109340000Y-136481185D02*
X109411428Y-136409757D01*
X109411428Y-136409757D02*
X109554286Y-136338328D01*
X109554286Y-136338328D02*
X109911428Y-136338328D01*
X109911428Y-136338328D02*
X110054286Y-136409757D01*
X110054286Y-136409757D02*
X110125714Y-136481185D01*
X110125714Y-136481185D02*
X110197143Y-136624042D01*
X110197143Y-136624042D02*
X110197143Y-136766900D01*
X110197143Y-136766900D02*
X110125714Y-136981185D01*
X110125714Y-136981185D02*
X109268571Y-137838328D01*
X109268571Y-137838328D02*
X110197143Y-137838328D01*
X112839999Y-137838328D02*
X112339999Y-137124042D01*
X111982856Y-137838328D02*
X111982856Y-136338328D01*
X111982856Y-136338328D02*
X112554285Y-136338328D01*
X112554285Y-136338328D02*
X112697142Y-136409757D01*
X112697142Y-136409757D02*
X112768571Y-136481185D01*
X112768571Y-136481185D02*
X112839999Y-136624042D01*
X112839999Y-136624042D02*
X112839999Y-136838328D01*
X112839999Y-136838328D02*
X112768571Y-136981185D01*
X112768571Y-136981185D02*
X112697142Y-137052614D01*
X112697142Y-137052614D02*
X112554285Y-137124042D01*
X112554285Y-137124042D02*
X111982856Y-137124042D01*
X113482856Y-137052614D02*
X113982856Y-137052614D01*
X114197142Y-137838328D02*
X113482856Y-137838328D01*
X113482856Y-137838328D02*
X113482856Y-136338328D01*
X113482856Y-136338328D02*
X114197142Y-136338328D01*
X114839999Y-137838328D02*
X114839999Y-136338328D01*
X114839999Y-136338328D02*
X115411428Y-136338328D01*
X115411428Y-136338328D02*
X115554285Y-136409757D01*
X115554285Y-136409757D02*
X115625714Y-136481185D01*
X115625714Y-136481185D02*
X115697142Y-136624042D01*
X115697142Y-136624042D02*
X115697142Y-136838328D01*
X115697142Y-136838328D02*
X115625714Y-136981185D01*
X115625714Y-136981185D02*
X115554285Y-137052614D01*
X115554285Y-137052614D02*
X115411428Y-137124042D01*
X115411428Y-137124042D02*
X114839999Y-137124042D01*
X116625714Y-136338328D02*
X116911428Y-136338328D01*
X116911428Y-136338328D02*
X117054285Y-136409757D01*
X117054285Y-136409757D02*
X117197142Y-136552614D01*
X117197142Y-136552614D02*
X117268571Y-136838328D01*
X117268571Y-136838328D02*
X117268571Y-137338328D01*
X117268571Y-137338328D02*
X117197142Y-137624042D01*
X117197142Y-137624042D02*
X117054285Y-137766900D01*
X117054285Y-137766900D02*
X116911428Y-137838328D01*
X116911428Y-137838328D02*
X116625714Y-137838328D01*
X116625714Y-137838328D02*
X116482857Y-137766900D01*
X116482857Y-137766900D02*
X116339999Y-137624042D01*
X116339999Y-137624042D02*
X116268571Y-137338328D01*
X116268571Y-137338328D02*
X116268571Y-136838328D01*
X116268571Y-136838328D02*
X116339999Y-136552614D01*
X116339999Y-136552614D02*
X116482857Y-136409757D01*
X116482857Y-136409757D02*
X116625714Y-136338328D01*
X119554285Y-137052614D02*
X119768571Y-137124042D01*
X119768571Y-137124042D02*
X119840000Y-137195471D01*
X119840000Y-137195471D02*
X119911428Y-137338328D01*
X119911428Y-137338328D02*
X119911428Y-137552614D01*
X119911428Y-137552614D02*
X119840000Y-137695471D01*
X119840000Y-137695471D02*
X119768571Y-137766900D01*
X119768571Y-137766900D02*
X119625714Y-137838328D01*
X119625714Y-137838328D02*
X119054285Y-137838328D01*
X119054285Y-137838328D02*
X119054285Y-136338328D01*
X119054285Y-136338328D02*
X119554285Y-136338328D01*
X119554285Y-136338328D02*
X119697143Y-136409757D01*
X119697143Y-136409757D02*
X119768571Y-136481185D01*
X119768571Y-136481185D02*
X119840000Y-136624042D01*
X119840000Y-136624042D02*
X119840000Y-136766900D01*
X119840000Y-136766900D02*
X119768571Y-136909757D01*
X119768571Y-136909757D02*
X119697143Y-136981185D01*
X119697143Y-136981185D02*
X119554285Y-137052614D01*
X119554285Y-137052614D02*
X119054285Y-137052614D01*
X120840000Y-137124042D02*
X120840000Y-137838328D01*
X120340000Y-136338328D02*
X120840000Y-137124042D01*
X120840000Y-137124042D02*
X121340000Y-136338328D01*
X122911428Y-137409757D02*
X123625714Y-137409757D01*
X122768571Y-137838328D02*
X123268571Y-136338328D01*
X123268571Y-136338328D02*
X123768571Y-137838328D01*
X124982856Y-137838328D02*
X124268570Y-137838328D01*
X124268570Y-137838328D02*
X124268570Y-136338328D01*
X125482856Y-137052614D02*
X125982856Y-137052614D01*
X126197142Y-137838328D02*
X125482856Y-137838328D01*
X125482856Y-137838328D02*
X125482856Y-136338328D01*
X125482856Y-136338328D02*
X126197142Y-136338328D01*
X126768571Y-137409757D02*
X127482857Y-137409757D01*
X126625714Y-137838328D02*
X127125714Y-136338328D01*
X127125714Y-136338328D02*
X127625714Y-137838328D01*
D12*
D13*
X160695000Y-94071857D02*
X159695000Y-92643285D01*
X158980714Y-94071857D02*
X158980714Y-91071857D01*
X158980714Y-91071857D02*
X160123571Y-91071857D01*
X160123571Y-91071857D02*
X160409286Y-91214714D01*
X160409286Y-91214714D02*
X160552143Y-91357571D01*
X160552143Y-91357571D02*
X160695000Y-91643285D01*
X160695000Y-91643285D02*
X160695000Y-92071857D01*
X160695000Y-92071857D02*
X160552143Y-92357571D01*
X160552143Y-92357571D02*
X160409286Y-92500428D01*
X160409286Y-92500428D02*
X160123571Y-92643285D01*
X160123571Y-92643285D02*
X158980714Y-92643285D01*
X161980714Y-94071857D02*
X161980714Y-91071857D01*
X163409285Y-94071857D02*
X163409285Y-91071857D01*
X163409285Y-91071857D02*
X165123571Y-94071857D01*
X165123571Y-94071857D02*
X165123571Y-91071857D01*
X166123571Y-91071857D02*
X167837857Y-91071857D01*
X166980714Y-94071857D02*
X166980714Y-91071857D01*
D12*
D13*
X159536429Y-83451857D02*
X160107857Y-83451857D01*
X160107857Y-83451857D02*
X160393572Y-83594714D01*
X160393572Y-83594714D02*
X160679286Y-83880428D01*
X160679286Y-83880428D02*
X160822143Y-84451857D01*
X160822143Y-84451857D02*
X160822143Y-85451857D01*
X160822143Y-85451857D02*
X160679286Y-86023285D01*
X160679286Y-86023285D02*
X160393572Y-86309000D01*
X160393572Y-86309000D02*
X160107857Y-86451857D01*
X160107857Y-86451857D02*
X159536429Y-86451857D01*
X159536429Y-86451857D02*
X159250715Y-86309000D01*
X159250715Y-86309000D02*
X158965000Y-86023285D01*
X158965000Y-86023285D02*
X158822143Y-85451857D01*
X158822143Y-85451857D02*
X158822143Y-84451857D01*
X158822143Y-84451857D02*
X158965000Y-83880428D01*
X158965000Y-83880428D02*
X159250715Y-83594714D01*
X159250715Y-83594714D02*
X159536429Y-83451857D01*
X162107857Y-83451857D02*
X162107857Y-85880428D01*
X162107857Y-85880428D02*
X162250714Y-86166142D01*
X162250714Y-86166142D02*
X162393572Y-86309000D01*
X162393572Y-86309000D02*
X162679286Y-86451857D01*
X162679286Y-86451857D02*
X163250714Y-86451857D01*
X163250714Y-86451857D02*
X163536429Y-86309000D01*
X163536429Y-86309000D02*
X163679286Y-86166142D01*
X163679286Y-86166142D02*
X163822143Y-85880428D01*
X163822143Y-85880428D02*
X163822143Y-83451857D01*
X165250714Y-86451857D02*
X165250714Y-83451857D01*
X165250714Y-83451857D02*
X166965000Y-86451857D01*
X166965000Y-86451857D02*
X166965000Y-83451857D01*
X168393571Y-86451857D02*
X168393571Y-83451857D01*
X168393571Y-83451857D02*
X169107857Y-83451857D01*
X169107857Y-83451857D02*
X169536428Y-83594714D01*
X169536428Y-83594714D02*
X169822143Y-83880428D01*
X169822143Y-83880428D02*
X169965000Y-84166142D01*
X169965000Y-84166142D02*
X170107857Y-84737571D01*
X170107857Y-84737571D02*
X170107857Y-85166142D01*
X170107857Y-85166142D02*
X169965000Y-85737571D01*
X169965000Y-85737571D02*
X169822143Y-86023285D01*
X169822143Y-86023285D02*
X169536428Y-86309000D01*
X169536428Y-86309000D02*
X169107857Y-86451857D01*
X169107857Y-86451857D02*
X168393571Y-86451857D01*
D14*
D15*
X153193809Y-86342285D02*
X152717619Y-86104190D01*
X152717619Y-86104190D02*
X152241428Y-85628000D01*
X152241428Y-85628000D02*
X151527142Y-84913714D01*
X151527142Y-84913714D02*
X151050952Y-84675619D01*
X151050952Y-84675619D02*
X150574761Y-84675619D01*
X150812857Y-85866095D02*
X150336666Y-85628000D01*
X150336666Y-85628000D02*
X149860476Y-85151809D01*
X149860476Y-85151809D02*
X149622380Y-84199428D01*
X149622380Y-84199428D02*
X149622380Y-82532761D01*
X149622380Y-82532761D02*
X149860476Y-81580380D01*
X149860476Y-81580380D02*
X150336666Y-81104190D01*
X150336666Y-81104190D02*
X150812857Y-80866095D01*
X150812857Y-80866095D02*
X151765238Y-80866095D01*
X151765238Y-80866095D02*
X152241428Y-81104190D01*
X152241428Y-81104190D02*
X152717619Y-81580380D01*
X152717619Y-81580380D02*
X152955714Y-82532761D01*
X152955714Y-82532761D02*
X152955714Y-84199428D01*
X152955714Y-84199428D02*
X152717619Y-85151809D01*
X152717619Y-85151809D02*
X152241428Y-85628000D01*
X152241428Y-85628000D02*
X151765238Y-85866095D01*
X151765238Y-85866095D02*
X150812857Y-85866095D01*
X154860475Y-85628000D02*
X155574761Y-85866095D01*
X155574761Y-85866095D02*
X156765237Y-85866095D01*
X156765237Y-85866095D02*
X157241428Y-85628000D01*
X157241428Y-85628000D02*
X157479523Y-85389904D01*
X157479523Y-85389904D02*
X157717618Y-84913714D01*
X157717618Y-84913714D02*
X157717618Y-84437523D01*
X157717618Y-84437523D02*
X157479523Y-83961333D01*
X157479523Y-83961333D02*
X157241428Y-83723238D01*
X157241428Y-83723238D02*
X156765237Y-83485142D01*
X156765237Y-83485142D02*
X155812856Y-83247047D01*
X155812856Y-83247047D02*
X155336666Y-83008952D01*
X155336666Y-83008952D02*
X155098571Y-82770857D01*
X155098571Y-82770857D02*
X154860475Y-82294666D01*
X154860475Y-82294666D02*
X154860475Y-81818476D01*
X154860475Y-81818476D02*
X155098571Y-81342285D01*
X155098571Y-81342285D02*
X155336666Y-81104190D01*
X155336666Y-81104190D02*
X155812856Y-80866095D01*
X155812856Y-80866095D02*
X157003333Y-80866095D01*
X157003333Y-80866095D02*
X157717618Y-81104190D01*
X153074762Y-94392285D02*
X152598572Y-94154190D01*
X152598572Y-94154190D02*
X152122381Y-93678000D01*
X152122381Y-93678000D02*
X151408095Y-92963714D01*
X151408095Y-92963714D02*
X150931905Y-92725619D01*
X150931905Y-92725619D02*
X150455714Y-92725619D01*
X150693810Y-93916095D02*
X150217619Y-93678000D01*
X150217619Y-93678000D02*
X149741429Y-93201809D01*
X149741429Y-93201809D02*
X149503333Y-92249428D01*
X149503333Y-92249428D02*
X149503333Y-90582761D01*
X149503333Y-90582761D02*
X149741429Y-89630380D01*
X149741429Y-89630380D02*
X150217619Y-89154190D01*
X150217619Y-89154190D02*
X150693810Y-88916095D01*
X150693810Y-88916095D02*
X151646191Y-88916095D01*
X151646191Y-88916095D02*
X152122381Y-89154190D01*
X152122381Y-89154190D02*
X152598572Y-89630380D01*
X152598572Y-89630380D02*
X152836667Y-90582761D01*
X152836667Y-90582761D02*
X152836667Y-92249428D01*
X152836667Y-92249428D02*
X152598572Y-93201809D01*
X152598572Y-93201809D02*
X152122381Y-93678000D01*
X152122381Y-93678000D02*
X151646191Y-93916095D01*
X151646191Y-93916095D02*
X150693810Y-93916095D01*
X154979524Y-93916095D02*
X154979524Y-88916095D01*
X154979524Y-88916095D02*
X156884286Y-88916095D01*
X156884286Y-88916095D02*
X157360476Y-89154190D01*
X157360476Y-89154190D02*
X157598571Y-89392285D01*
X157598571Y-89392285D02*
X157836667Y-89868476D01*
X157836667Y-89868476D02*
X157836667Y-90582761D01*
X157836667Y-90582761D02*
X157598571Y-91058952D01*
X157598571Y-91058952D02*
X157360476Y-91297047D01*
X157360476Y-91297047D02*
X156884286Y-91535142D01*
X156884286Y-91535142D02*
X154979524Y-91535142D01*
D16*
D17*
X100473180Y-124412857D02*
X100377942Y-124698571D01*
X100377942Y-124698571D02*
X100282704Y-124793809D01*
X100282704Y-124793809D02*
X100092228Y-124889047D01*
X100092228Y-124889047D02*
X99806514Y-124889047D01*
X99806514Y-124889047D02*
X99616038Y-124793809D01*
X99616038Y-124793809D02*
X99520800Y-124698571D01*
X99520800Y-124698571D02*
X99425561Y-124508095D01*
X99425561Y-124508095D02*
X99425561Y-123746190D01*
X99425561Y-123746190D02*
X101425561Y-123746190D01*
X101425561Y-123746190D02*
X101425561Y-124412857D01*
X101425561Y-124412857D02*
X101330323Y-124603333D01*
X101330323Y-124603333D02*
X101235085Y-124698571D01*
X101235085Y-124698571D02*
X101044609Y-124793809D01*
X101044609Y-124793809D02*
X100854133Y-124793809D01*
X100854133Y-124793809D02*
X100663657Y-124698571D01*
X100663657Y-124698571D02*
X100568419Y-124603333D01*
X100568419Y-124603333D02*
X100473180Y-124412857D01*
X100473180Y-124412857D02*
X100473180Y-123746190D01*
X99520800Y-125650952D02*
X99425561Y-125936666D01*
X99425561Y-125936666D02*
X99425561Y-126412857D01*
X99425561Y-126412857D02*
X99520800Y-126603333D01*
X99520800Y-126603333D02*
X99616038Y-126698571D01*
X99616038Y-126698571D02*
X99806514Y-126793809D01*
X99806514Y-126793809D02*
X99996990Y-126793809D01*
X99996990Y-126793809D02*
X100187466Y-126698571D01*
X100187466Y-126698571D02*
X100282704Y-126603333D01*
X100282704Y-126603333D02*
X100377942Y-126412857D01*
X100377942Y-126412857D02*
X100473180Y-126031904D01*
X100473180Y-126031904D02*
X100568419Y-125841428D01*
X100568419Y-125841428D02*
X100663657Y-125746190D01*
X100663657Y-125746190D02*
X100854133Y-125650952D01*
X100854133Y-125650952D02*
X101044609Y-125650952D01*
X101044609Y-125650952D02*
X101235085Y-125746190D01*
X101235085Y-125746190D02*
X101330323Y-125841428D01*
X101330323Y-125841428D02*
X101425561Y-126031904D01*
X101425561Y-126031904D02*
X101425561Y-126508095D01*
X101425561Y-126508095D02*
X101330323Y-126793809D01*
X100473180Y-127650952D02*
X100473180Y-128317619D01*
X99425561Y-128603333D02*
X99425561Y-127650952D01*
X99425561Y-127650952D02*
X101425561Y-127650952D01*
X101425561Y-127650952D02*
X101425561Y-128603333D01*
X99425561Y-129460476D02*
X101425561Y-129460476D01*
X101425561Y-130127143D02*
X101425561Y-131270000D01*
X99425561Y-130698571D02*
X101425561Y-130698571D01*
X100473180Y-131936667D02*
X100473180Y-132603334D01*
X99425561Y-132889048D02*
X99425561Y-131936667D01*
X99425561Y-131936667D02*
X101425561Y-131936667D01*
X101425561Y-131936667D02*
X101425561Y-132889048D01*
D18*
%TO.P,J3,G*%
%TO.N,GND*%
X100965000Y-53340000D03*
%TO.P,J3,S*%
%TO.N,Net-(J3-PadS)*%
X105965000Y-48340000D03*
%TO.P,J3,SN*%
%TO.N,unconnected-(J3-PadSN)*%
X105965000Y-50840000D03*
%TO.P,J3,T*%
%TO.N,Net-(J3-PadT)*%
X105965000Y-58340000D03*
%TO.P,J3,TN*%
%TO.N,unconnected-(J3-PadTN)*%
X105965000Y-55840000D03*
%TD*%
D19*
%TO.P,U7,1,VSS*%
%TO.N,GND*%
X125730000Y-83820000D03*
D20*
%TO.P,U7,2,PA0*%
%TO.N,Net-(U6-Pad37)*%
X125730000Y-86360000D03*
%TO.P,U7,3,PA1*%
%TO.N,Net-(U6-Pad36)*%
X125730000Y-88900000D03*
%TO.P,U7,4,PA2*%
%TO.N,Net-(U6-Pad35)*%
X125730000Y-91440000D03*
%TO.P,U7,5,PA3*%
%TO.N,Net-(U6-Pad34)*%
X125730000Y-93980000D03*
%TO.P,U7,6,PA4*%
%TO.N,Net-(U6-Pad33)*%
X125730000Y-96520000D03*
%TO.P,U7,7,PA5*%
%TO.N,Net-(U6-Pad32)*%
X125730000Y-99060000D03*
%TO.P,U7,8,PA6*%
%TO.N,Net-(U6-Pad31)*%
X125730000Y-101600000D03*
%TO.P,U7,9,PA7*%
%TO.N,Net-(U6-Pad30)*%
X125730000Y-104140000D03*
%TO.P,U7,10,PB0*%
%TO.N,Net-(U6-Pad29)*%
X125730000Y-106680000D03*
%TO.P,U7,11,PB1*%
%TO.N,unconnected-(U7-Pad11)*%
X125730000Y-109220000D03*
%TO.P,U7,12,PB2*%
%TO.N,Net-(U6-Pad27)*%
X125730000Y-111760000D03*
%TO.P,U7,13,PB3*%
%TO.N,/P_Strobe*%
X125730000Y-114300000D03*
%TO.P,U7,14,PB4*%
%TO.N,/P_Busy*%
X125730000Y-116840000D03*
%TO.P,U7,15,PB5*%
%TO.N,unconnected-(U7-Pad15)*%
X125730000Y-119380000D03*
%TO.P,U7,16,PB6*%
%TO.N,unconnected-(U7-Pad16)*%
X125730000Y-121920000D03*
%TO.P,U7,17,PB7*%
%TO.N,unconnected-(U7-Pad17)*%
X125730000Y-124460000D03*
%TO.P,U7,18,CB1*%
%TO.N,unconnected-(U7-Pad18)*%
X125730000Y-127000000D03*
%TO.P,U7,19,CB2*%
%TO.N,unconnected-(U7-Pad19)*%
X125730000Y-129540000D03*
%TO.P,U7,20,VCC*%
%TO.N,VCC*%
X125730000Y-132080000D03*
%TO.P,U7,21,R/~{W}*%
%TO.N,/RW*%
X140970000Y-132080000D03*
%TO.P,U7,22,CS0*%
%TO.N,/A13*%
X140970000Y-129540000D03*
%TO.P,U7,23,~{CS2}*%
%TO.N,/CS2{slash}OE*%
X140970000Y-127000000D03*
%TO.P,U7,24,CS1*%
%TO.N,/A13*%
X140970000Y-124460000D03*
%TO.P,U7,25,ENABLE*%
%TO.N,/E*%
X140970000Y-121920000D03*
%TO.P,U7,26,D7*%
%TO.N,/D7*%
X140970000Y-119380000D03*
%TO.P,U7,27,D6*%
%TO.N,/D6*%
X140970000Y-116840000D03*
%TO.P,U7,28,D5*%
%TO.N,/D5*%
X140970000Y-114300000D03*
%TO.P,U7,29,D4*%
%TO.N,/D4*%
X140970000Y-111760000D03*
%TO.P,U7,30,D3*%
%TO.N,/D3*%
X140970000Y-109220000D03*
%TO.P,U7,31,D2*%
%TO.N,/D2*%
X140970000Y-106680000D03*
%TO.P,U7,32,D1*%
%TO.N,/D1*%
X140970000Y-104140000D03*
%TO.P,U7,33,D0*%
%TO.N,/D0*%
X140970000Y-101600000D03*
%TO.P,U7,34,~{RESET}*%
%TO.N,/RESET*%
X140970000Y-99060000D03*
%TO.P,U7,35,RS1*%
%TO.N,/A1*%
X140970000Y-96520000D03*
%TO.P,U7,36,RS0*%
%TO.N,/A0*%
X140970000Y-93980000D03*
%TO.P,U7,37,~{IRQB}*%
%TO.N,unconnected-(U7-Pad37)*%
X140970000Y-91440000D03*
%TO.P,U7,38,~{IRQA}*%
%TO.N,unconnected-(U7-Pad38)*%
X140970000Y-88900000D03*
%TO.P,U7,39,CA2*%
%TO.N,unconnected-(U7-Pad39)*%
X140970000Y-86360000D03*
%TO.P,U7,40,CA1*%
%TO.N,unconnected-(U7-Pad40)*%
X140970000Y-83820000D03*
%TD*%
D21*
%TO.P,C5,1*%
%TO.N,VCC*%
X120690000Y-77470000D03*
%TO.P,C5,2*%
%TO.N,GND*%
X125690000Y-77470000D03*
%TD*%
%TO.P,R5,1*%
%TO.N,GND*%
X109220000Y-79375000D03*
D22*
%TO.P,R5,2*%
%TO.N,Net-(R2-Pad1)*%
X101600000Y-79375000D03*
%TD*%
D23*
%TO.P,Q1,1,E*%
%TO.N,/DSMC*%
X180340000Y-58420000D03*
D24*
%TO.P,Q1,2,B*%
%TO.N,Net-(Q1-Pad2)*%
X180340000Y-57150000D03*
%TO.P,Q1,3,C*%
%TO.N,VCC*%
X180340000Y-55880000D03*
%TD*%
D21*
%TO.P,R4,1*%
%TO.N,Net-(R4-Pad1)*%
X109220000Y-88900000D03*
D22*
%TO.P,R4,2*%
%TO.N,Net-(R2-Pad1)*%
X116840000Y-88900000D03*
%TD*%
D21*
%TO.P,R6,1*%
%TO.N,Net-(R6-Pad1)*%
X109220000Y-86360000D03*
D22*
%TO.P,R6,2*%
%TO.N,Net-(R2-Pad1)*%
X116840000Y-86360000D03*
%TD*%
D19*
%TO.P,U2,1*%
%TO.N,unconnected-(U2-Pad1)*%
X149860000Y-71120000D03*
D20*
%TO.P,U2,2*%
%TO.N,unconnected-(U2-Pad2)*%
X149860000Y-68580000D03*
%TO.P,U2,3*%
%TO.N,/A19*%
X149860000Y-66040000D03*
%TO.P,U2,4*%
%TO.N,/A18*%
X149860000Y-63500000D03*
%TO.P,U2,5*%
%TO.N,Net-(R1-Pad2)*%
X149860000Y-60960000D03*
%TO.P,U2,6*%
%TO.N,/CS2{slash}OE*%
X149860000Y-58420000D03*
%TO.P,U2,7,GND*%
%TO.N,GND*%
X149860000Y-55880000D03*
%TO.P,U2,8*%
%TO.N,Net-(Q1-Pad2)*%
X142240000Y-55880000D03*
%TO.P,U2,9*%
%TO.N,/CS2{slash}OE*%
X142240000Y-58420000D03*
%TO.P,U2,10*%
X142240000Y-60960000D03*
%TO.P,U2,11*%
X142240000Y-63500000D03*
%TO.P,U2,12*%
%TO.N,unconnected-(U2-Pad12)*%
X142240000Y-66040000D03*
%TO.P,U2,13*%
%TO.N,unconnected-(U2-Pad13)*%
X142240000Y-68580000D03*
%TO.P,U2,14,VCC*%
%TO.N,VCC*%
X142240000Y-71120000D03*
%TD*%
D25*
%TO.P,J2,1,Pin_1*%
%TO.N,/P_Strobe*%
X101605000Y-116840000D03*
D26*
%TO.P,J2,2,Pin_2*%
%TO.N,GND*%
X99065000Y-116840000D03*
%TO.P,J2,3,Pin_3*%
%TO.N,Net-(J2-Pad3)*%
X101605000Y-114300000D03*
%TO.P,J2,4,Pin_4*%
%TO.N,GND*%
X99065000Y-114300000D03*
%TO.P,J2,5,Pin_5*%
%TO.N,Net-(J2-Pad5)*%
X101605000Y-111760000D03*
%TO.P,J2,6,Pin_6*%
%TO.N,GND*%
X99065000Y-111760000D03*
%TO.P,J2,7,Pin_7*%
%TO.N,Net-(J2-Pad7)*%
X101605000Y-109220000D03*
%TO.P,J2,8,Pin_8*%
%TO.N,GND*%
X99065000Y-109220000D03*
%TO.P,J2,9,Pin_9*%
%TO.N,Net-(J2-Pad9)*%
X101605000Y-106680000D03*
%TO.P,J2,10,Pin_10*%
%TO.N,GND*%
X99065000Y-106680000D03*
%TO.P,J2,11,Pin_11*%
%TO.N,Net-(J2-Pad11)*%
X101605000Y-104140000D03*
%TO.P,J2,12,Pin_12*%
%TO.N,GND*%
X99065000Y-104140000D03*
%TO.P,J2,13,Pin_13*%
%TO.N,Net-(J2-Pad13)*%
X101605000Y-101600000D03*
%TO.P,J2,14,Pin_14*%
%TO.N,GND*%
X99065000Y-101600000D03*
%TO.P,J2,15,Pin_15*%
%TO.N,Net-(J2-Pad15)*%
X101605000Y-99060000D03*
%TO.P,J2,16,Pin_16*%
%TO.N,GND*%
X99065000Y-99060000D03*
%TO.P,J2,17,Pin_17*%
%TO.N,Net-(J2-Pad17)*%
X101605000Y-96520000D03*
%TO.P,J2,18,Pin_18*%
%TO.N,GND*%
X99065000Y-96520000D03*
%TO.P,J2,19,Pin_19*%
%TO.N,unconnected-(J2-Pad19)*%
X101605000Y-93980000D03*
%TO.P,J2,20,Pin_20*%
%TO.N,GND*%
X99065000Y-93980000D03*
%TO.P,J2,21,Pin_21*%
%TO.N,/P_Busy*%
X101605000Y-91440000D03*
%TO.P,J2,22,Pin_22*%
%TO.N,GND*%
X99065000Y-91440000D03*
%TO.P,J2,23,Pin_23*%
%TO.N,unconnected-(J2-Pad23)*%
X101605000Y-88900000D03*
%TO.P,J2,24,Pin_24*%
%TO.N,GND*%
X99065000Y-88900000D03*
%TO.P,J2,25,Pin_25*%
%TO.N,unconnected-(J2-Pad25)*%
X101605000Y-86360000D03*
%TO.P,J2,26,Pin_26*%
%TO.N,GND*%
X99065000Y-86360000D03*
%TD*%
D21*
%TO.P,C3,1*%
%TO.N,VCC*%
X118070000Y-74930000D03*
%TO.P,C3,2*%
%TO.N,GND*%
X113070000Y-74930000D03*
%TD*%
%TO.P,J4,1,Pin_1*%
%TO.N,GND*%
X109220000Y-73660000D03*
%TD*%
%TO.P,R7,1*%
%TO.N,Net-(J3-PadS)*%
X101600000Y-71120000D03*
D22*
%TO.P,R7,2*%
%TO.N,Net-(J3-PadT)*%
X109220000Y-71120000D03*
%TD*%
D21*
%TO.P,R2,1*%
%TO.N,Net-(R2-Pad1)*%
X101600000Y-76200000D03*
D22*
%TO.P,R2,2*%
%TO.N,Net-(J3-PadS)*%
X109220000Y-76200000D03*
%TD*%
D21*
%TO.P,R3,1*%
%TO.N,Net-(R3-Pad1)*%
X109220000Y-91440000D03*
D22*
%TO.P,R3,2*%
%TO.N,Net-(R2-Pad1)*%
X116840000Y-91440000D03*
%TD*%
D21*
%TO.P,R1,1*%
%TO.N,VCC*%
X154940000Y-68580000D03*
D22*
%TO.P,R1,2*%
%TO.N,Net-(R1-Pad2)*%
X154940000Y-60960000D03*
%TD*%
D19*
%TO.P,U5,1*%
%TO.N,/DS*%
X129540000Y-71120000D03*
D20*
%TO.P,U5,2*%
X129540000Y-68580000D03*
%TO.P,U5,3*%
%TO.N,Net-(R1-Pad2)*%
X129540000Y-66040000D03*
%TO.P,U5,4*%
%TO.N,Net-(U5-Pad11)*%
X129540000Y-63500000D03*
%TO.P,U5,5*%
%TO.N,Net-(Q1-Pad2)*%
X129540000Y-60960000D03*
%TO.P,U5,6*%
%TO.N,/VPA*%
X129540000Y-58420000D03*
%TO.P,U5,7,GND*%
%TO.N,GND*%
X129540000Y-55880000D03*
%TO.P,U5,8*%
%TO.N,unconnected-(U5-Pad8)*%
X121920000Y-55880000D03*
%TO.P,U5,9*%
%TO.N,unconnected-(U5-Pad9)*%
X121920000Y-58420000D03*
%TO.P,U5,10*%
%TO.N,unconnected-(U5-Pad10)*%
X121920000Y-60960000D03*
%TO.P,U5,11*%
%TO.N,Net-(U5-Pad11)*%
X121920000Y-63500000D03*
%TO.P,U5,12*%
%TO.N,/E*%
X121920000Y-66040000D03*
%TO.P,U5,13*%
X121920000Y-68580000D03*
%TO.P,U5,14,VCC*%
%TO.N,VCC*%
X121920000Y-71120000D03*
%TD*%
D19*
%TO.P,U3,1*%
%TO.N,/A16*%
X167640000Y-71120000D03*
D20*
%TO.P,U3,2*%
%TO.N,/SP2*%
X167640000Y-68580000D03*
%TO.P,U3,3*%
%TO.N,Net-(R1-Pad2)*%
X167640000Y-66040000D03*
%TO.P,U3,4*%
X167640000Y-63500000D03*
%TO.P,U3,5*%
%TO.N,/A14*%
X167640000Y-60960000D03*
%TO.P,U3,6*%
%TO.N,/SP0*%
X167640000Y-58420000D03*
%TO.P,U3,7,GND*%
%TO.N,GND*%
X167640000Y-55880000D03*
%TO.P,U3,8*%
%TO.N,/SP1*%
X160020000Y-55880000D03*
%TO.P,U3,9*%
%TO.N,/A15*%
X160020000Y-58420000D03*
%TO.P,U3,10*%
%TO.N,Net-(R1-Pad2)*%
X160020000Y-60960000D03*
%TO.P,U3,11*%
X160020000Y-63500000D03*
%TO.P,U3,12*%
%TO.N,/SP3*%
X160020000Y-66040000D03*
%TO.P,U3,13*%
%TO.N,/A17*%
X160020000Y-68580000D03*
%TO.P,U3,14,VCC*%
%TO.N,VCC*%
X160020000Y-71120000D03*
%TD*%
D21*
%TO.P,C2,1*%
%TO.N,+9V*%
X182880000Y-50760000D03*
%TO.P,C2,2*%
%TO.N,GND*%
X182880000Y-45760000D03*
%TD*%
D27*
%TO.P,U1,1,IN*%
%TO.N,+9V*%
X170180000Y-50800000D03*
D28*
%TO.P,U1,2,GND*%
%TO.N,GND*%
X170180000Y-48260000D03*
%TO.P,U1,3,OUT*%
%TO.N,VCC*%
X170180000Y-45720000D03*
%TD*%
D19*
%TO.P,U6,1,Vss*%
%TO.N,GND*%
X105410000Y-83820000D03*
D20*
%TO.P,U6,2,N/C*%
%TO.N,unconnected-(U6-Pad2)*%
X105410000Y-86360000D03*
%TO.P,U6,3,ch_B*%
%TO.N,Net-(R4-Pad1)*%
X105410000Y-88900000D03*
%TO.P,U6,4,ch_A*%
%TO.N,Net-(R3-Pad1)*%
X105410000Y-91440000D03*
%TO.P,U6,5,N/C*%
%TO.N,unconnected-(U6-Pad5)*%
X105410000Y-93980000D03*
%TO.P,U6,6,IOB7*%
%TO.N,Net-(J2-Pad17)*%
X105410000Y-96520000D03*
%TO.P,U6,7,IOB6*%
%TO.N,Net-(J2-Pad15)*%
X105410000Y-99060000D03*
%TO.P,U6,8,IOB5*%
%TO.N,Net-(J2-Pad13)*%
X105410000Y-101600000D03*
%TO.P,U6,9,IOB4*%
%TO.N,Net-(J2-Pad11)*%
X105410000Y-104140000D03*
%TO.P,U6,10,IOB3*%
%TO.N,Net-(J2-Pad9)*%
X105410000Y-106680000D03*
%TO.P,U6,11,IOB2*%
%TO.N,Net-(J2-Pad7)*%
X105410000Y-109220000D03*
%TO.P,U6,12,IOB1*%
%TO.N,Net-(J2-Pad5)*%
X105410000Y-111760000D03*
%TO.P,U6,13,IOB0*%
%TO.N,Net-(J2-Pad3)*%
X105410000Y-114300000D03*
%TO.P,U6,14,IOA7*%
%TO.N,unconnected-(U6-Pad14)*%
X105410000Y-116840000D03*
%TO.P,U6,15,IOA6*%
%TO.N,unconnected-(U6-Pad15)*%
X105410000Y-119380000D03*
%TO.P,U6,16,IOA5*%
%TO.N,unconnected-(U6-Pad16)*%
X105410000Y-121920000D03*
%TO.P,U6,17,IOA4*%
%TO.N,unconnected-(U6-Pad17)*%
X105410000Y-124460000D03*
%TO.P,U6,18,IOA3*%
%TO.N,unconnected-(U6-Pad18)*%
X105410000Y-127000000D03*
%TO.P,U6,19,IOA2*%
%TO.N,unconnected-(U6-Pad19)*%
X105410000Y-129540000D03*
%TO.P,U6,20,IOA1*%
%TO.N,unconnected-(U6-Pad20)*%
X105410000Y-132080000D03*
%TO.P,U6,21,IOA0*%
%TO.N,unconnected-(U6-Pad21)*%
X120650000Y-132080000D03*
%TO.P,U6,22,CLOCK*%
%TO.N,/E*%
X120650000Y-129540000D03*
%TO.P,U6,23,~{RESET}*%
%TO.N,/RESET*%
X120650000Y-127000000D03*
%TO.P,U6,24,~{A9}*%
%TO.N,GND*%
X120650000Y-124460000D03*
%TO.P,U6,25,A8*%
%TO.N,VCC*%
X120650000Y-121920000D03*
%TO.P,U6,26,TEST2*%
%TO.N,unconnected-(U6-Pad26)*%
X120650000Y-119380000D03*
%TO.P,U6,27,BDIR*%
%TO.N,Net-(U6-Pad27)*%
X120650000Y-116840000D03*
%TO.P,U6,28,BC2*%
%TO.N,VCC*%
X120650000Y-114300000D03*
%TO.P,U6,29,BC1*%
%TO.N,Net-(U6-Pad29)*%
X120650000Y-111760000D03*
%TO.P,U6,30,D7*%
%TO.N,Net-(U6-Pad30)*%
X120650000Y-109220000D03*
%TO.P,U6,31,D6*%
%TO.N,Net-(U6-Pad31)*%
X120650000Y-106680000D03*
%TO.P,U6,32,D5*%
%TO.N,Net-(U6-Pad32)*%
X120650000Y-104140000D03*
%TO.P,U6,33,D4*%
%TO.N,Net-(U6-Pad33)*%
X120650000Y-101600000D03*
%TO.P,U6,34,D3*%
%TO.N,Net-(U6-Pad34)*%
X120650000Y-99060000D03*
%TO.P,U6,35,D2*%
%TO.N,Net-(U6-Pad35)*%
X120650000Y-96520000D03*
%TO.P,U6,36,D1*%
%TO.N,Net-(U6-Pad36)*%
X120650000Y-93980000D03*
%TO.P,U6,37,D0*%
%TO.N,Net-(U6-Pad37)*%
X120650000Y-91440000D03*
%TO.P,U6,38,ch_C*%
%TO.N,Net-(R6-Pad1)*%
X120650000Y-88900000D03*
%TO.P,U6,39,TEST1*%
%TO.N,unconnected-(U6-Pad39)*%
X120650000Y-86360000D03*
%TO.P,U6,40,Vcc*%
%TO.N,VCC*%
X120650000Y-83820000D03*
%TD*%
D29*
%TO.P,J1,a1,Vin*%
%TO.N,+9V*%
X190500000Y-53340000D03*
D30*
%TO.P,J1,a2,-12V*%
%TO.N,unconnected-(J1-Pada2)*%
X190500000Y-55880000D03*
%TO.P,J1,a3,+12V*%
%TO.N,unconnected-(J1-Pada3)*%
X190500000Y-58420000D03*
%TO.P,J1,a4,SP0*%
%TO.N,/SP0*%
X190500000Y-60960000D03*
%TO.P,J1,a5,SP1*%
%TO.N,/SP1*%
X190500000Y-63500000D03*
%TO.P,J1,a6,~{DSMC}*%
%TO.N,/DSMC*%
X190500000Y-66040000D03*
%TO.P,J1,a7,SP2*%
%TO.N,/SP2*%
X190500000Y-68580000D03*
%TO.P,J1,a8,~{DBG}*%
%TO.N,unconnected-(J1-Pada8)*%
X190500000Y-71120000D03*
%TO.P,J1,a9,A3*%
%TO.N,/A3*%
X190500000Y-73660000D03*
%TO.P,J1,a10,A4*%
%TO.N,/A4*%
X190500000Y-76200000D03*
%TO.P,J1,a11,A5*%
%TO.N,/A5*%
X190500000Y-78740000D03*
%TO.P,J1,a12,A6*%
%TO.N,/A6*%
X190500000Y-81280000D03*
%TO.P,J1,a13,A7*%
%TO.N,/A7*%
X190500000Y-83820000D03*
%TO.P,J1,a14,A8*%
%TO.N,/A8*%
X190500000Y-86360000D03*
%TO.P,J1,a15,A9*%
%TO.N,/A9*%
X190500000Y-88900000D03*
%TO.P,J1,a16,A10*%
%TO.N,/A10*%
X190500000Y-91440000D03*
%TO.P,J1,a17,A11*%
%TO.N,/A11*%
X190500000Y-93980000D03*
%TO.P,J1,a18,A12*%
%TO.N,/A12*%
X190500000Y-96520000D03*
%TO.P,J1,a19,A13*%
%TO.N,/A13*%
X190500000Y-99060000D03*
%TO.P,J1,a20,A14*%
%TO.N,/A14*%
X190500000Y-101600000D03*
%TO.P,J1,a21,RED*%
%TO.N,unconnected-(J1-Pada21)*%
X190500000Y-104140000D03*
%TO.P,J1,a22,CLKCPU*%
%TO.N,unconnected-(J1-Pada22)*%
X190500000Y-106680000D03*
%TO.P,J1,a23,A16*%
%TO.N,/A16*%
X190500000Y-109220000D03*
%TO.P,J1,a24,A17*%
%TO.N,/A17*%
X190500000Y-111760000D03*
%TO.P,J1,a25,A18*%
%TO.N,/A18*%
X190500000Y-114300000D03*
%TO.P,J1,a26,A19*%
%TO.N,/A19*%
X190500000Y-116840000D03*
%TO.P,J1,a27,D7*%
%TO.N,/D7*%
X190500000Y-119380000D03*
%TO.P,J1,a28,D6*%
%TO.N,/D6*%
X190500000Y-121920000D03*
%TO.P,J1,a29,D5*%
%TO.N,/D5*%
X190500000Y-124460000D03*
%TO.P,J1,a30,D4*%
%TO.N,/D4*%
X190500000Y-127000000D03*
%TO.P,J1,a31,D3*%
%TO.N,/D3*%
X190500000Y-129540000D03*
%TO.P,J1,a32,GND*%
%TO.N,GND*%
X190500000Y-132080000D03*
%TO.P,J1,b1,Vin*%
%TO.N,+9V*%
X187960000Y-53340000D03*
%TO.P,J1,b2,Vin*%
X187960000Y-55880000D03*
%TO.P,J1,b3,~{EXTINT}*%
%TO.N,unconnected-(J1-Padb3)*%
X187960000Y-58420000D03*
%TO.P,J1,b4,~{IPL1}*%
%TO.N,unconnected-(J1-Padb4)*%
X187960000Y-60960000D03*
%TO.P,J1,b5,~{BERR}*%
%TO.N,unconnected-(J1-Padb5)*%
X187960000Y-63500000D03*
%TO.P,J1,b6,~{IPLO}*%
%TO.N,unconnected-(J1-Padb6)*%
X187960000Y-66040000D03*
%TO.P,J1,b7,SP3*%
%TO.N,/SP3*%
X187960000Y-68580000D03*
%TO.P,J1,b8,A2*%
%TO.N,/A2*%
X187960000Y-71120000D03*
%TO.P,J1,b9,G9*%
%TO.N,/A1*%
X187960000Y-73660000D03*
%TO.P,J1,b10,ROMOEH*%
%TO.N,unconnected-(J1-Padb10)*%
X187960000Y-76200000D03*
%TO.P,J1,b11,A0*%
%TO.N,/A0*%
X187960000Y-78740000D03*
%TO.P,J1,b12,FC0*%
%TO.N,unconnected-(J1-Padb12)*%
X187960000Y-81280000D03*
%TO.P,J1,b13,FC1*%
%TO.N,unconnected-(J1-Padb13)*%
X187960000Y-83820000D03*
%TO.P,J1,b14,FC2*%
%TO.N,unconnected-(J1-Padb14)*%
X187960000Y-86360000D03*
%TO.P,J1,b15,BLUE*%
%TO.N,unconnected-(J1-Padb15)*%
X187960000Y-88900000D03*
%TO.P,J1,b16,GREEN*%
%TO.N,unconnected-(J1-Padb16)*%
X187960000Y-91440000D03*
%TO.P,J1,b17,~{VPA}*%
%TO.N,/VPA*%
X187960000Y-93980000D03*
%TO.P,J1,b18,VSYNCH*%
%TO.N,unconnected-(J1-Padb18)*%
X187960000Y-96520000D03*
%TO.P,J1,b19,E*%
%TO.N,/E*%
X187960000Y-99060000D03*
%TO.P,J1,b20,~{CSYNC}*%
%TO.N,unconnected-(J1-Padb20)*%
X187960000Y-101600000D03*
%TO.P,J1,b21,~{RESETCPU}*%
%TO.N,/RESET*%
X187960000Y-104140000D03*
%TO.P,J1,b22,A15*%
%TO.N,/A15*%
X187960000Y-106680000D03*
%TO.P,J1,b23,~{BR}*%
%TO.N,unconnected-(J1-Padb23)*%
X187960000Y-109220000D03*
%TO.P,J1,b24,~{BG}*%
%TO.N,unconnected-(J1-Padb24)*%
X187960000Y-111760000D03*
%TO.P,J1,b25,~{DTACK}*%
%TO.N,/DTACK*%
X187960000Y-114300000D03*
%TO.P,J1,b26,~{DRW}*%
%TO.N,/RW*%
X187960000Y-116840000D03*
%TO.P,J1,b27,~{DS}*%
%TO.N,/DS*%
X187960000Y-119380000D03*
%TO.P,J1,b28,~{AS}*%
%TO.N,unconnected-(J1-Padb28)*%
X187960000Y-121920000D03*
%TO.P,J1,b29,D0*%
%TO.N,/D0*%
X187960000Y-124460000D03*
%TO.P,J1,b30,D1*%
%TO.N,/D1*%
X187960000Y-127000000D03*
%TO.P,J1,b31,D2*%
%TO.N,/D2*%
X187960000Y-129540000D03*
%TO.P,J1,b32,GND*%
%TO.N,GND*%
X187960000Y-132080000D03*
%TD*%
D31*
%TO.P,C4,1*%
%TO.N,VCC*%
X129540000Y-46492349D03*
D21*
%TO.P,C4,2*%
%TO.N,GND*%
X129540000Y-51492349D03*
%TD*%
D19*
%TO.P,U4,1,A15*%
%TO.N,VCC*%
X160020000Y-99060000D03*
D20*
%TO.P,U4,2,A12*%
%TO.N,/A12*%
X160020000Y-101600000D03*
%TO.P,U4,3,A7*%
%TO.N,/A7*%
X160020000Y-104140000D03*
%TO.P,U4,4,A6*%
%TO.N,/A6*%
X160020000Y-106680000D03*
%TO.P,U4,5,A5*%
%TO.N,/A5*%
X160020000Y-109220000D03*
%TO.P,U4,6,A4*%
%TO.N,/A4*%
X160020000Y-111760000D03*
%TO.P,U4,7,A3*%
%TO.N,/A3*%
X160020000Y-114300000D03*
%TO.P,U4,8,A2*%
%TO.N,/A2*%
X160020000Y-116840000D03*
%TO.P,U4,9,A1*%
%TO.N,/A1*%
X160020000Y-119380000D03*
%TO.P,U4,10,A0*%
%TO.N,/A0*%
X160020000Y-121920000D03*
%TO.P,U4,11,D0*%
%TO.N,/D0*%
X160020000Y-124460000D03*
%TO.P,U4,12,D1*%
%TO.N,/D1*%
X160020000Y-127000000D03*
%TO.P,U4,13,D2*%
%TO.N,/D2*%
X160020000Y-129540000D03*
%TO.P,U4,14,GND*%
%TO.N,GND*%
X160020000Y-132080000D03*
%TO.P,U4,15,D3*%
%TO.N,/D3*%
X175260000Y-132080000D03*
%TO.P,U4,16,D4*%
%TO.N,/D4*%
X175260000Y-129540000D03*
%TO.P,U4,17,D5*%
%TO.N,/D5*%
X175260000Y-127000000D03*
%TO.P,U4,18,D6*%
%TO.N,/D6*%
X175260000Y-124460000D03*
%TO.P,U4,19,D7*%
%TO.N,/D7*%
X175260000Y-121920000D03*
%TO.P,U4,20,~{CE}*%
%TO.N,/CS2{slash}OE*%
X175260000Y-119380000D03*
%TO.P,U4,21,A10*%
%TO.N,/A10*%
X175260000Y-116840000D03*
%TO.P,U4,22,~{OE/Vpp}*%
%TO.N,/A13*%
X175260000Y-114300000D03*
%TO.P,U4,23,A11*%
%TO.N,/A11*%
X175260000Y-111760000D03*
%TO.P,U4,24,A9*%
%TO.N,/A9*%
X175260000Y-109220000D03*
%TO.P,U4,25,A8*%
%TO.N,/A8*%
X175260000Y-106680000D03*
%TO.P,U4,26,A13*%
%TO.N,VCC*%
X175260000Y-104140000D03*
%TO.P,U4,27,A14*%
X175260000Y-101600000D03*
%TO.P,U4,28,VCC*%
X175260000Y-99060000D03*
%TD*%
D32*
%TO.N,GND*%
X149860000Y-48260000D03*
X144780000Y-50800000D03*
X162560000Y-48260000D03*
X160020000Y-48260000D03*
X142240000Y-45720000D03*
X149860000Y-50800000D03*
X139700000Y-48260000D03*
X165100000Y-50800000D03*
X149860000Y-45720000D03*
X147320000Y-48260000D03*
X134620000Y-48260000D03*
X137160000Y-48260000D03*
X165100000Y-45720000D03*
X134620000Y-45720000D03*
X160020000Y-45720000D03*
X139700000Y-45720000D03*
X152400000Y-50800000D03*
X134620000Y-50800000D03*
X162560000Y-50800000D03*
X157480000Y-50800000D03*
X162560000Y-45720000D03*
X137160000Y-50800000D03*
X154940000Y-50800000D03*
X154940000Y-45720000D03*
X132080000Y-48260000D03*
X157480000Y-48260000D03*
X144780000Y-48260000D03*
X157480000Y-45720000D03*
X152400000Y-45720000D03*
X160020000Y-50800000D03*
X132080000Y-50800000D03*
X147320000Y-50800000D03*
X144780000Y-45720000D03*
X139700000Y-50800000D03*
X165100000Y-48260000D03*
X147320000Y-45720000D03*
X142240000Y-50800000D03*
X142240000Y-48260000D03*
X137160000Y-45720000D03*
D33*
%TO.N,VCC*%
X144780000Y-80010000D03*
X140970000Y-78105000D03*
X144780000Y-76835000D03*
D32*
%TO.N,/DSMC*%
X180340000Y-63373000D03*
%TO.N,/CS2{slash}OE*%
X129540000Y-129540000D03*
%TO.N,Net-(R2-Pad1)*%
X107315000Y-87630000D03*
%TD*%
D34*
%TO.N,+9V*%
X170180000Y-50800000D02*
X182840000Y-50800000D01*
%TO.N,GND*%
X142240000Y-45720000D02*
X144780000Y-45720000D01*
X99065000Y-119375000D02*
X99060000Y-119380000D01*
X152400000Y-45720000D02*
X154940000Y-45720000D01*
X105410000Y-81280000D02*
X105410000Y-83820000D01*
X182880000Y-45760000D02*
X180420000Y-48220000D01*
X99060000Y-119380000D02*
X100330000Y-120650000D01*
X111800000Y-73660000D02*
X113070000Y-74930000D01*
X138430000Y-44450000D02*
X114935000Y-44450000D01*
X100330000Y-120650000D02*
X110490000Y-120650000D01*
X139700000Y-45720000D02*
X142240000Y-45720000D01*
X170180000Y-48260000D02*
X180420000Y-48260000D01*
X99065000Y-116840000D02*
X99065000Y-119375000D01*
X111760000Y-73660000D02*
X111800000Y-73660000D01*
X110490000Y-120650000D02*
X113050480Y-123210480D01*
X109220000Y-79375000D02*
X111125000Y-81280000D01*
X113050480Y-123210480D02*
X119400480Y-123210480D01*
X111760000Y-71120000D02*
X111760000Y-73660000D01*
X147320000Y-45720000D02*
X149860000Y-45720000D01*
X180420000Y-48220000D02*
X180420000Y-48260000D01*
X160020000Y-45720000D02*
X162560000Y-48260000D01*
X114935000Y-44450000D02*
X113030000Y-46355000D01*
X149860000Y-45720000D02*
X152400000Y-45720000D01*
X114300000Y-81280000D02*
X125730000Y-81280000D01*
X109220000Y-81280000D02*
X105410000Y-81280000D01*
X115570000Y-134620000D02*
X113030000Y-132080000D01*
X111125000Y-81280000D02*
X113030000Y-81280000D01*
X154940000Y-45720000D02*
X157480000Y-45720000D01*
X160020000Y-132080000D02*
X157480000Y-134620000D01*
X105410000Y-81280000D02*
X110490000Y-81280000D01*
X113030000Y-81280000D02*
X114300000Y-81280000D01*
X114300000Y-76160000D02*
X114300000Y-81280000D01*
X144780000Y-45720000D02*
X147320000Y-45720000D01*
X113030000Y-132080000D02*
X113030000Y-123190000D01*
X165100000Y-48260000D02*
X170180000Y-48260000D01*
X113070000Y-74930000D02*
X114300000Y-76160000D01*
X113030000Y-69850000D02*
X111760000Y-71120000D01*
X125730000Y-81280000D02*
X125730000Y-83820000D01*
X139700000Y-45720000D02*
X138430000Y-44450000D01*
X162560000Y-48260000D02*
X165100000Y-48260000D01*
X125730000Y-81280000D02*
X125690000Y-77470000D01*
X113030000Y-46355000D02*
X113030000Y-69850000D01*
X115570000Y-134620000D02*
X157480000Y-134620000D01*
X110490000Y-81280000D02*
X111125000Y-81280000D01*
X157480000Y-45720000D02*
X160020000Y-45720000D01*
X105410000Y-83820000D02*
X101600000Y-83820000D01*
X101600000Y-83820000D02*
X99060000Y-86360000D01*
X119400480Y-123210480D02*
X120650000Y-124460000D01*
%TO.N,VCC*%
X137160000Y-78105000D02*
X137160000Y-83185000D01*
X143473813Y-80046187D02*
X144743813Y-80046187D01*
X143473813Y-80046187D02*
X143473813Y-78141187D01*
X143510000Y-99060000D02*
X160020000Y-99060000D01*
X140970000Y-78105000D02*
X143437626Y-78105000D01*
X140970000Y-78105000D02*
X137160000Y-78105000D01*
X143510000Y-99060000D02*
X143473813Y-99023813D01*
X118150000Y-74930000D02*
X120690000Y-77470000D01*
X144743813Y-80046187D02*
X144780000Y-80010000D01*
X143473813Y-99023813D02*
X143473813Y-80046187D01*
X143437626Y-78105000D02*
X143473813Y-78141187D01*
X148590000Y-99060000D02*
X148590000Y-102870000D01*
D35*
%TO.N,/D7*%
X170815000Y-121920000D02*
X175260000Y-121920000D01*
X147320000Y-123190000D02*
X169545000Y-123190000D01*
X140970000Y-119380000D02*
X143510000Y-119380000D01*
X143510000Y-119380000D02*
X147320000Y-123190000D01*
X169545000Y-123190000D02*
X170815000Y-121920000D01*
%TO.N,/A19*%
X173990000Y-92710000D02*
X178435000Y-97155000D01*
X172720000Y-75565000D02*
X173990000Y-76835000D01*
X189230000Y-118110000D02*
X190500000Y-116840000D01*
X149860000Y-66040000D02*
X151765000Y-67945000D01*
X178435000Y-97155000D02*
X178435000Y-112395000D01*
X184150000Y-118110000D02*
X189230000Y-118110000D01*
X156210000Y-75565000D02*
X172720000Y-75565000D01*
X151765000Y-67945000D02*
X151765000Y-71120000D01*
X178435000Y-112395000D02*
X184150000Y-118110000D01*
X151765000Y-71120000D02*
X156210000Y-75565000D01*
X173990000Y-76835000D02*
X173990000Y-92710000D01*
%TO.N,/A18*%
X175260000Y-92075000D02*
X179705000Y-96520000D01*
X179705000Y-96520000D02*
X179705000Y-107315000D01*
X157480000Y-74295000D02*
X173355000Y-74295000D01*
X153035000Y-66675000D02*
X153035000Y-69850000D01*
X179705000Y-107315000D02*
X185420000Y-113030000D01*
X185420000Y-113030000D02*
X189230000Y-113030000D01*
X175260000Y-76200000D02*
X175260000Y-92075000D01*
X173355000Y-74295000D02*
X175260000Y-76200000D01*
X189230000Y-113030000D02*
X190500000Y-114300000D01*
X149860000Y-63500000D02*
X153035000Y-66675000D01*
X153035000Y-69850000D02*
X157480000Y-74295000D01*
%TO.N,/A17*%
X185420000Y-110490000D02*
X189230000Y-110490000D01*
X189230000Y-110490000D02*
X190500000Y-111760000D01*
X180975000Y-95885000D02*
X180975000Y-106045000D01*
X163830000Y-72390000D02*
X164782500Y-73342500D01*
X176530000Y-74930000D02*
X176530000Y-91440000D01*
X161925000Y-68580000D02*
X163830000Y-70485000D01*
X160020000Y-68580000D02*
X161925000Y-68580000D01*
X174942500Y-73342500D02*
X176530000Y-74930000D01*
X163830000Y-70485000D02*
X163830000Y-72390000D01*
X176530000Y-91440000D02*
X180975000Y-95885000D01*
X180975000Y-106045000D02*
X185420000Y-110490000D01*
X164782500Y-73342500D02*
X174942500Y-73342500D01*
%TO.N,/A16*%
X176530000Y-71120000D02*
X177800000Y-72390000D01*
X185420000Y-107950000D02*
X189230000Y-107950000D01*
X167640000Y-71120000D02*
X176530000Y-71120000D01*
X177800000Y-90805000D02*
X182245000Y-95250000D01*
X182245000Y-104775000D02*
X185420000Y-107950000D01*
X177800000Y-72390000D02*
X177800000Y-90805000D01*
X189230000Y-107950000D02*
X190500000Y-109220000D01*
X182245000Y-95250000D02*
X182245000Y-104775000D01*
%TO.N,/A14*%
X180340000Y-89535000D02*
X184785000Y-93980000D01*
X184785000Y-101600000D02*
X186055000Y-102870000D01*
X189230000Y-102870000D02*
X190500000Y-101600000D01*
X180340000Y-66040000D02*
X180340000Y-89535000D01*
X186055000Y-102870000D02*
X189230000Y-102870000D01*
X175260000Y-60960000D02*
X180340000Y-66040000D01*
X184785000Y-93980000D02*
X184785000Y-101600000D01*
X167640000Y-60960000D02*
X175260000Y-60960000D01*
%TO.N,/A13*%
X163830000Y-96520000D02*
X163830000Y-111760000D01*
X142875000Y-129540000D02*
X140970000Y-129540000D01*
X132715000Y-121920000D02*
X132715000Y-74930000D01*
X146685000Y-95885000D02*
X163195000Y-95885000D01*
X192405000Y-99695000D02*
X191770000Y-99060000D01*
X143510000Y-128905000D02*
X142875000Y-129540000D01*
X176530000Y-114300000D02*
X182880000Y-120650000D01*
X140970000Y-124460000D02*
X142875000Y-124460000D01*
X132715000Y-74930000D02*
X146685000Y-74930000D01*
X191770000Y-99060000D02*
X190500000Y-99060000D01*
X175260000Y-114300000D02*
X176530000Y-114300000D01*
X182880000Y-120650000D02*
X190785635Y-120650000D01*
X163830000Y-111760000D02*
X166370000Y-114300000D01*
X142875000Y-124460000D02*
X143510000Y-125095000D01*
X192405000Y-119030635D02*
X192405000Y-99695000D01*
X135255000Y-124460000D02*
X132715000Y-121920000D01*
X163195000Y-95885000D02*
X163830000Y-96520000D01*
X143510000Y-125095000D02*
X143510000Y-128905000D01*
X166370000Y-114300000D02*
X175260000Y-114300000D01*
X190785635Y-120650000D02*
X192405000Y-119030635D01*
X140970000Y-124460000D02*
X135255000Y-124460000D01*
X146685000Y-74930000D02*
X146685000Y-95885000D01*
X175260000Y-114300000D02*
X172720000Y-114300000D01*
%TO.N,/VPA*%
X185420000Y-55880000D02*
X182880000Y-53340000D01*
X131445000Y-58420000D02*
X129540000Y-58420000D01*
X187960000Y-93980000D02*
X185420000Y-91440000D01*
X182880000Y-53340000D02*
X136525000Y-53340000D01*
X136525000Y-53340000D02*
X131445000Y-58420000D01*
X185420000Y-91440000D02*
X185420000Y-55880000D01*
%TO.N,/E*%
X127635000Y-59690000D02*
X125095000Y-62230000D01*
X125095000Y-62230000D02*
X120015000Y-62230000D01*
X130175000Y-76835000D02*
X130175000Y-121920000D01*
X143510000Y-130810000D02*
X126365000Y-130810000D01*
X128270000Y-123825000D02*
X128270000Y-129540000D01*
X143510000Y-121920000D02*
X144780000Y-123190000D01*
X184150000Y-91440000D02*
X184150000Y-57785000D01*
X121920000Y-130810000D02*
X126365000Y-130810000D01*
X130175000Y-121920000D02*
X128270000Y-123825000D01*
X135890000Y-55880000D02*
X132080000Y-59690000D01*
X186690000Y-99060000D02*
X185420000Y-97790000D01*
X119380000Y-65405000D02*
X120015000Y-66040000D01*
X140970000Y-121920000D02*
X143510000Y-121920000D01*
X185420000Y-97790000D02*
X185420000Y-92710000D01*
X144780000Y-129540000D02*
X143510000Y-130810000D01*
X127000000Y-130810000D02*
X126365000Y-130810000D01*
X132080000Y-59690000D02*
X127635000Y-59690000D01*
X144780000Y-123190000D02*
X144780000Y-129540000D01*
X119380000Y-62865000D02*
X119380000Y-65405000D01*
X184150000Y-57785000D02*
X184150000Y-55880000D01*
X137795000Y-53975000D02*
X176530000Y-53975000D01*
X120650000Y-129540000D02*
X121920000Y-130810000D01*
X184150000Y-57785000D02*
X184150000Y-57150000D01*
X176530000Y-53975000D02*
X175260000Y-53975000D01*
X120015000Y-62230000D02*
X119380000Y-62865000D01*
X121920000Y-68580000D02*
X130175000Y-76835000D01*
X187960000Y-99060000D02*
X186690000Y-99060000D01*
X185420000Y-92710000D02*
X184150000Y-91440000D01*
X128270000Y-129540000D02*
X127000000Y-130810000D01*
X135890000Y-55880000D02*
X137795000Y-53975000D01*
X184150000Y-55880000D02*
X182245000Y-53975000D01*
X120015000Y-66040000D02*
X121920000Y-66040000D01*
X135890000Y-55880000D02*
X136525000Y-55245000D01*
X182245000Y-53975000D02*
X176530000Y-53975000D01*
%TO.N,/DS*%
X172085000Y-76835000D02*
X172720000Y-77470000D01*
X172720000Y-77470000D02*
X172720000Y-93345000D01*
X131445000Y-71120000D02*
X132715000Y-69850000D01*
X129540000Y-71120000D02*
X131445000Y-71120000D01*
X144780000Y-69850000D02*
X151765000Y-76835000D01*
X177165000Y-97790000D02*
X177165000Y-113030000D01*
X172720000Y-93345000D02*
X177165000Y-97790000D01*
X132715000Y-69850000D02*
X144780000Y-69850000D01*
X183515000Y-119380000D02*
X187960000Y-119380000D01*
X177165000Y-113030000D02*
X183515000Y-119380000D01*
X151765000Y-76835000D02*
X172085000Y-76835000D01*
%TO.N,/A15*%
X179069302Y-74295698D02*
X179070000Y-74296396D01*
X179070000Y-74930000D02*
X179070000Y-90170000D01*
X179070000Y-74296396D02*
X179070000Y-74930000D01*
X185420000Y-106680000D02*
X187960000Y-106680000D01*
X179070000Y-66675000D02*
X179070000Y-74930000D01*
X183515000Y-94615000D02*
X183515000Y-104775000D01*
X160020000Y-58420000D02*
X161925000Y-58420000D01*
X179070000Y-90170000D02*
X183515000Y-94615000D01*
X165735000Y-62230000D02*
X174625000Y-62230000D01*
X183515000Y-104775000D02*
X185420000Y-106680000D01*
X174625000Y-62230000D02*
X179070000Y-66675000D01*
X161925000Y-58420000D02*
X165735000Y-62230000D01*
%TO.N,/DSMC*%
X180340000Y-58420000D02*
X180340000Y-63373000D01*
%TO.N,/P_Strobe*%
X127635000Y-118110000D02*
X102875000Y-118110000D01*
X128270000Y-114935000D02*
X128270000Y-117475000D01*
X128270000Y-117475000D02*
X127635000Y-118110000D01*
X127635000Y-114300000D02*
X128270000Y-114935000D01*
X125730000Y-114300000D02*
X127635000Y-114300000D01*
X102875000Y-118110000D02*
X101605000Y-116840000D01*
%TO.N,/P_Busy*%
X125730000Y-116840000D02*
X124460000Y-116840000D01*
X124460000Y-116840000D02*
X123190000Y-115570000D01*
X110490000Y-92710000D02*
X113665000Y-95885000D01*
X113665000Y-114300000D02*
X114935000Y-115570000D01*
X102870000Y-92710000D02*
X110490000Y-92710000D01*
X113665000Y-95885000D02*
X113665000Y-114300000D01*
X114935000Y-115570000D02*
X123190000Y-115570000D01*
X101600000Y-91440000D02*
X102870000Y-92710000D01*
%TO.N,/CS2{slash}OE*%
X127635000Y-68494010D02*
X127635000Y-72390000D01*
X132080000Y-127000000D02*
X131445000Y-127635000D01*
X140970000Y-127000000D02*
X132080000Y-127000000D01*
X149860000Y-58420000D02*
X142240000Y-58420000D01*
X133985000Y-67310000D02*
X137795000Y-63500000D01*
X137795000Y-63500000D02*
X142240000Y-63500000D01*
X128819010Y-67310000D02*
X127635000Y-68494010D01*
X131445000Y-76200000D02*
X131445000Y-127635000D01*
X142240000Y-58420000D02*
X142240000Y-60960000D01*
X129540000Y-67310000D02*
X133985000Y-67310000D01*
X131445000Y-127635000D02*
X129540000Y-129540000D01*
X128819010Y-67310000D02*
X129540000Y-67310000D01*
X127635000Y-72390000D02*
X127635000Y-68580000D01*
X127635000Y-72390000D02*
X131445000Y-76200000D01*
%TO.N,Net-(Q1-Pad2)*%
X146050000Y-54610000D02*
X144780000Y-55880000D01*
X132080000Y-60960000D02*
X129540000Y-60960000D01*
X142240000Y-55880000D02*
X137160000Y-55880000D01*
X180340000Y-57150000D02*
X165100000Y-57150000D01*
X165100000Y-57150000D02*
X162560000Y-54610000D01*
X162560000Y-54610000D02*
X146050000Y-54610000D01*
X144780000Y-55880000D02*
X142240000Y-55880000D01*
X137160000Y-55880000D02*
X132080000Y-60960000D01*
%TO.N,Net-(R2-Pad1)*%
X112395000Y-87630000D02*
X107315000Y-87630000D01*
X116840000Y-91440000D02*
X116840000Y-88900000D01*
X116840000Y-88900000D02*
X113665000Y-88900000D01*
X116840000Y-88900000D02*
X116840000Y-86360000D01*
X113665000Y-88900000D02*
X112395000Y-87630000D01*
%TO.N,Net-(U5-Pad11)*%
X129540000Y-63500000D02*
X121920000Y-63500000D01*
%TO.N,Net-(R3-Pad1)*%
X105410000Y-91440000D02*
X109220000Y-91440000D01*
%TO.N,Net-(R4-Pad1)*%
X105410000Y-88900000D02*
X109220000Y-88900000D01*
%TO.N,Net-(R6-Pad1)*%
X118364000Y-87884000D02*
X118364000Y-85852000D01*
X119380000Y-88900000D02*
X118364000Y-87884000D01*
X112268000Y-84836000D02*
X110744000Y-86360000D01*
X120650000Y-88900000D02*
X119380000Y-88900000D01*
X117348000Y-84836000D02*
X112268000Y-84836000D01*
X118364000Y-85852000D02*
X117348000Y-84836000D01*
X110744000Y-86360000D02*
X109220000Y-86360000D01*
%TD*%
%TA.AperFunction,Conductor*%
%TO.N,GND*%
G36*
X116205000Y-52705000D02*
G01*
X116205000Y-81154000D01*
X116184998Y-81222121D01*
X116131342Y-81268614D01*
X116079000Y-81280000D01*
X96646500Y-81280000D01*
X96578379Y-81259998D01*
X96531886Y-81206342D01*
X96520500Y-81154000D01*
X96520500Y-79375003D01*
X100594659Y-79375003D01*
X100613974Y-79571124D01*
X100613974Y-79571126D01*
X100671186Y-79759728D01*
X100764090Y-79933538D01*
X100889117Y-80085883D01*
X101041462Y-80210910D01*
X101215273Y-80303814D01*
X101403868Y-80361024D01*
X101403872Y-80361024D01*
X101403874Y-80361025D01*
X101599997Y-80380341D01*
X101600000Y-80380341D01*
X101600003Y-80380341D01*
X101796124Y-80361025D01*
X101796126Y-80361025D01*
X101796127Y-80361024D01*
X101796132Y-80361024D01*
X101984727Y-80303814D01*
X102158538Y-80210910D01*
X102310883Y-80085883D01*
X102435910Y-79933538D01*
X102528814Y-79759727D01*
X102586024Y-79571132D01*
X102605341Y-79375000D01*
X107907004Y-79375000D01*
X107926951Y-79603002D01*
X107986186Y-79824068D01*
X107986188Y-79824073D01*
X108082913Y-80031501D01*
X108132899Y-80102888D01*
X108821272Y-79414516D01*
X108834835Y-79500148D01*
X108892359Y-79613045D01*
X108981955Y-79702641D01*
X109094852Y-79760165D01*
X109180482Y-79773727D01*
X108492110Y-80462098D01*
X108492110Y-80462100D01*
X108563498Y-80512086D01*
X108770926Y-80608811D01*
X108770931Y-80608813D01*
X108991999Y-80668048D01*
X108991995Y-80668048D01*
X109220000Y-80687995D01*
X109448002Y-80668048D01*
X109669068Y-80608813D01*
X109669073Y-80608811D01*
X109876497Y-80512088D01*
X109947888Y-80462099D01*
X109947888Y-80462097D01*
X109259518Y-79773727D01*
X109345148Y-79760165D01*
X109458045Y-79702641D01*
X109547641Y-79613045D01*
X109605165Y-79500148D01*
X109618727Y-79414518D01*
X110307097Y-80102888D01*
X110307099Y-80102888D01*
X110357088Y-80031497D01*
X110453811Y-79824073D01*
X110453813Y-79824068D01*
X110513048Y-79603002D01*
X110532995Y-79375000D01*
X110513048Y-79146997D01*
X110453813Y-78925931D01*
X110453811Y-78925926D01*
X110357086Y-78718498D01*
X110307100Y-78647110D01*
X110307098Y-78647110D01*
X109618727Y-79335481D01*
X109605165Y-79249852D01*
X109547641Y-79136955D01*
X109458045Y-79047359D01*
X109345148Y-78989835D01*
X109259517Y-78976272D01*
X109947888Y-78287899D01*
X109947888Y-78287898D01*
X109876501Y-78237913D01*
X109669073Y-78141188D01*
X109669068Y-78141186D01*
X109448000Y-78081951D01*
X109448004Y-78081951D01*
X109220000Y-78062004D01*
X108991997Y-78081951D01*
X108770931Y-78141186D01*
X108770926Y-78141188D01*
X108563500Y-78237913D01*
X108492109Y-78287900D01*
X109180481Y-78976272D01*
X109094852Y-78989835D01*
X108981955Y-79047359D01*
X108892359Y-79136955D01*
X108834835Y-79249852D01*
X108821272Y-79335481D01*
X108132900Y-78647109D01*
X108082913Y-78718500D01*
X107986188Y-78925926D01*
X107986186Y-78925931D01*
X107926951Y-79146997D01*
X107907004Y-79375000D01*
X102605341Y-79375000D01*
X102593015Y-79249852D01*
X102586025Y-79178875D01*
X102586025Y-79178873D01*
X102586024Y-79178870D01*
X102586024Y-79178868D01*
X102528814Y-78990273D01*
X102435910Y-78816462D01*
X102310883Y-78664117D01*
X102158538Y-78539090D01*
X101984728Y-78446186D01*
X101796125Y-78388974D01*
X101600003Y-78369659D01*
X101599997Y-78369659D01*
X101403875Y-78388974D01*
X101403873Y-78388974D01*
X101215271Y-78446186D01*
X101041461Y-78539090D01*
X100889117Y-78664117D01*
X100764090Y-78816461D01*
X100671186Y-78990271D01*
X100613974Y-79178873D01*
X100613974Y-79178875D01*
X100594659Y-79374996D01*
X100594659Y-79375003D01*
X96520500Y-79375003D01*
X96520500Y-76200003D01*
X100594659Y-76200003D01*
X100613974Y-76396124D01*
X100613974Y-76396126D01*
X100671186Y-76584728D01*
X100764090Y-76758538D01*
X100889117Y-76910883D01*
X101041462Y-77035910D01*
X101215273Y-77128814D01*
X101403868Y-77186024D01*
X101403872Y-77186024D01*
X101403874Y-77186025D01*
X101599997Y-77205341D01*
X101600000Y-77205341D01*
X101600003Y-77205341D01*
X101796124Y-77186025D01*
X101796126Y-77186025D01*
X101796127Y-77186024D01*
X101796132Y-77186024D01*
X101984727Y-77128814D01*
X102158538Y-77035910D01*
X102310883Y-76910883D01*
X102435910Y-76758538D01*
X102528814Y-76584727D01*
X102586024Y-76396132D01*
X102586025Y-76396124D01*
X102605341Y-76200003D01*
X102605341Y-76199996D01*
X102586025Y-76003875D01*
X102586025Y-76003873D01*
X102586024Y-76003870D01*
X102586024Y-76003868D01*
X102528814Y-75815273D01*
X102435910Y-75641462D01*
X102310883Y-75489117D01*
X102158538Y-75364090D01*
X101984728Y-75271186D01*
X101796125Y-75213974D01*
X101600003Y-75194659D01*
X101599997Y-75194659D01*
X101403875Y-75213974D01*
X101403873Y-75213974D01*
X101215271Y-75271186D01*
X101041461Y-75364090D01*
X100889117Y-75489117D01*
X100764090Y-75641461D01*
X100671186Y-75815271D01*
X100613974Y-76003873D01*
X100613974Y-76003875D01*
X100594659Y-76199996D01*
X100594659Y-76200003D01*
X96520500Y-76200003D01*
X96520500Y-73660000D01*
X107907004Y-73660000D01*
X107926951Y-73888002D01*
X107986186Y-74109068D01*
X107986188Y-74109073D01*
X108082913Y-74316501D01*
X108132899Y-74387888D01*
X108821272Y-73699516D01*
X108834835Y-73785148D01*
X108892359Y-73898045D01*
X108981955Y-73987641D01*
X109094852Y-74045165D01*
X109180482Y-74058727D01*
X108492110Y-74747098D01*
X108492110Y-74747100D01*
X108563498Y-74797086D01*
X108770926Y-74893811D01*
X108770931Y-74893813D01*
X108991999Y-74953048D01*
X108991996Y-74953048D01*
X109061990Y-74959171D01*
X109128109Y-74985034D01*
X109169749Y-75042537D01*
X109173690Y-75113424D01*
X109138682Y-75175189D01*
X109075838Y-75208222D01*
X109063362Y-75210085D01*
X109023874Y-75213974D01*
X109023873Y-75213974D01*
X108835271Y-75271186D01*
X108661461Y-75364090D01*
X108509117Y-75489117D01*
X108384090Y-75641461D01*
X108291186Y-75815271D01*
X108233974Y-76003873D01*
X108233974Y-76003875D01*
X108214659Y-76199996D01*
X108214659Y-76200003D01*
X108233974Y-76396124D01*
X108233974Y-76396126D01*
X108291186Y-76584728D01*
X108384090Y-76758538D01*
X108509117Y-76910883D01*
X108661462Y-77035910D01*
X108835273Y-77128814D01*
X109023868Y-77186024D01*
X109023872Y-77186024D01*
X109023874Y-77186025D01*
X109219997Y-77205341D01*
X109220000Y-77205341D01*
X109220003Y-77205341D01*
X109416124Y-77186025D01*
X109416126Y-77186025D01*
X109416127Y-77186024D01*
X109416132Y-77186024D01*
X109604727Y-77128814D01*
X109778538Y-77035910D01*
X109930883Y-76910883D01*
X110055910Y-76758538D01*
X110148814Y-76584727D01*
X110206024Y-76396132D01*
X110206025Y-76396124D01*
X110225341Y-76200003D01*
X110225341Y-76199996D01*
X110206025Y-76003875D01*
X110206025Y-76003873D01*
X110206024Y-76003870D01*
X110206024Y-76003868D01*
X110148814Y-75815273D01*
X110055910Y-75641462D01*
X109930883Y-75489117D01*
X109778538Y-75364090D01*
X109604728Y-75271186D01*
X109416125Y-75213974D01*
X109376637Y-75210085D01*
X109310805Y-75183502D01*
X109269796Y-75125547D01*
X109266630Y-75054621D01*
X109302312Y-74993242D01*
X109365513Y-74960898D01*
X109378009Y-74959171D01*
X109448002Y-74953048D01*
X109534018Y-74930000D01*
X111757004Y-74930000D01*
X111776951Y-75158002D01*
X111836186Y-75379068D01*
X111836188Y-75379073D01*
X111932913Y-75586501D01*
X111982899Y-75657888D01*
X112671272Y-74969516D01*
X112684835Y-75055148D01*
X112742359Y-75168045D01*
X112831955Y-75257641D01*
X112944852Y-75315165D01*
X113030482Y-75328727D01*
X112342110Y-76017098D01*
X112342110Y-76017100D01*
X112413498Y-76067086D01*
X112620926Y-76163811D01*
X112620931Y-76163813D01*
X112841999Y-76223048D01*
X112841995Y-76223048D01*
X113070000Y-76242995D01*
X113298002Y-76223048D01*
X113519068Y-76163813D01*
X113519073Y-76163811D01*
X113726497Y-76067088D01*
X113797888Y-76017099D01*
X113797888Y-76017097D01*
X113109518Y-75328727D01*
X113195148Y-75315165D01*
X113308045Y-75257641D01*
X113397641Y-75168045D01*
X113455165Y-75055148D01*
X113468727Y-74969518D01*
X114157097Y-75657888D01*
X114157099Y-75657888D01*
X114207088Y-75586497D01*
X114303811Y-75379073D01*
X114303813Y-75379068D01*
X114363048Y-75158002D01*
X114382995Y-74930000D01*
X114363048Y-74701997D01*
X114303813Y-74480931D01*
X114303811Y-74480926D01*
X114207086Y-74273498D01*
X114157100Y-74202110D01*
X114157098Y-74202110D01*
X113468727Y-74890481D01*
X113455165Y-74804852D01*
X113397641Y-74691955D01*
X113308045Y-74602359D01*
X113195148Y-74544835D01*
X113109517Y-74531272D01*
X113797888Y-73842899D01*
X113797888Y-73842898D01*
X113726501Y-73792913D01*
X113519073Y-73696188D01*
X113519068Y-73696186D01*
X113298000Y-73636951D01*
X113298004Y-73636951D01*
X113070000Y-73617004D01*
X112841997Y-73636951D01*
X112620931Y-73696186D01*
X112620926Y-73696188D01*
X112413500Y-73792913D01*
X112342109Y-73842900D01*
X113030481Y-74531272D01*
X112944852Y-74544835D01*
X112831955Y-74602359D01*
X112742359Y-74691955D01*
X112684835Y-74804852D01*
X112671272Y-74890481D01*
X111982900Y-74202109D01*
X111932913Y-74273500D01*
X111836188Y-74480926D01*
X111836186Y-74480931D01*
X111776951Y-74701997D01*
X111757004Y-74930000D01*
X109534018Y-74930000D01*
X109669068Y-74893813D01*
X109669073Y-74893811D01*
X109876497Y-74797088D01*
X109947888Y-74747099D01*
X109947888Y-74747097D01*
X109259518Y-74058727D01*
X109345148Y-74045165D01*
X109458045Y-73987641D01*
X109547641Y-73898045D01*
X109605165Y-73785148D01*
X109618727Y-73699518D01*
X110307097Y-74387888D01*
X110307099Y-74387888D01*
X110357088Y-74316497D01*
X110453811Y-74109073D01*
X110453813Y-74109068D01*
X110513048Y-73888002D01*
X110532995Y-73660000D01*
X110513048Y-73431997D01*
X110453813Y-73210931D01*
X110453811Y-73210926D01*
X110357086Y-73003498D01*
X110307100Y-72932110D01*
X110307098Y-72932110D01*
X109618727Y-73620481D01*
X109605165Y-73534852D01*
X109547641Y-73421955D01*
X109458045Y-73332359D01*
X109345148Y-73274835D01*
X109259517Y-73261272D01*
X109947888Y-72572899D01*
X109947888Y-72572898D01*
X109876501Y-72522913D01*
X109669073Y-72426188D01*
X109669068Y-72426186D01*
X109448002Y-72366951D01*
X109378007Y-72360828D01*
X109311889Y-72334964D01*
X109270250Y-72277461D01*
X109266309Y-72206574D01*
X109301318Y-72144809D01*
X109364163Y-72111777D01*
X109376640Y-72109914D01*
X109416123Y-72106025D01*
X109416126Y-72106025D01*
X109416127Y-72106024D01*
X109416132Y-72106024D01*
X109604727Y-72048814D01*
X109778538Y-71955910D01*
X109930883Y-71830883D01*
X110055910Y-71678538D01*
X110148814Y-71504727D01*
X110206024Y-71316132D01*
X110225341Y-71120000D01*
X110206025Y-70923875D01*
X110206025Y-70923873D01*
X110206024Y-70923870D01*
X110206024Y-70923868D01*
X110148814Y-70735273D01*
X110055910Y-70561462D01*
X109930883Y-70409117D01*
X109778538Y-70284090D01*
X109604728Y-70191186D01*
X109416125Y-70133974D01*
X109220003Y-70114659D01*
X109219997Y-70114659D01*
X109023875Y-70133974D01*
X109023873Y-70133974D01*
X108835271Y-70191186D01*
X108661461Y-70284090D01*
X108509117Y-70409117D01*
X108384090Y-70561461D01*
X108291186Y-70735271D01*
X108233974Y-70923873D01*
X108233974Y-70923875D01*
X108214659Y-71119996D01*
X108214659Y-71120003D01*
X108233974Y-71316124D01*
X108233974Y-71316126D01*
X108291186Y-71504728D01*
X108384090Y-71678538D01*
X108509117Y-71830883D01*
X108661462Y-71955910D01*
X108835273Y-72048814D01*
X109023868Y-72106024D01*
X109023873Y-72106024D01*
X109023875Y-72106025D01*
X109063359Y-72109914D01*
X109129192Y-72136496D01*
X109170202Y-72194450D01*
X109173370Y-72265376D01*
X109137689Y-72326755D01*
X109074488Y-72359100D01*
X109061992Y-72360828D01*
X108991997Y-72366951D01*
X108770931Y-72426186D01*
X108770926Y-72426188D01*
X108563500Y-72522913D01*
X108492109Y-72572900D01*
X109180481Y-73261272D01*
X109094852Y-73274835D01*
X108981955Y-73332359D01*
X108892359Y-73421955D01*
X108834835Y-73534852D01*
X108821272Y-73620481D01*
X108132900Y-72932109D01*
X108082913Y-73003500D01*
X107986188Y-73210926D01*
X107986186Y-73210931D01*
X107926951Y-73431997D01*
X107907004Y-73660000D01*
X96520500Y-73660000D01*
X96520500Y-71120003D01*
X100594659Y-71120003D01*
X100613974Y-71316124D01*
X100613974Y-71316126D01*
X100671186Y-71504728D01*
X100764090Y-71678538D01*
X100889117Y-71830883D01*
X101041462Y-71955910D01*
X101215273Y-72048814D01*
X101403868Y-72106024D01*
X101403872Y-72106024D01*
X101403874Y-72106025D01*
X101599997Y-72125341D01*
X101600000Y-72125341D01*
X101600003Y-72125341D01*
X101796124Y-72106025D01*
X101796126Y-72106025D01*
X101796127Y-72106024D01*
X101796132Y-72106024D01*
X101984727Y-72048814D01*
X102158538Y-71955910D01*
X102310883Y-71830883D01*
X102435910Y-71678538D01*
X102528814Y-71504727D01*
X102586024Y-71316132D01*
X102605341Y-71120000D01*
X102586025Y-70923875D01*
X102586025Y-70923873D01*
X102586024Y-70923870D01*
X102586024Y-70923868D01*
X102528814Y-70735273D01*
X102435910Y-70561462D01*
X102310883Y-70409117D01*
X102158538Y-70284090D01*
X101984728Y-70191186D01*
X101796125Y-70133974D01*
X101600003Y-70114659D01*
X101599997Y-70114659D01*
X101403875Y-70133974D01*
X101403873Y-70133974D01*
X101215271Y-70191186D01*
X101041461Y-70284090D01*
X100889117Y-70409117D01*
X100764090Y-70561461D01*
X100671186Y-70735271D01*
X100613974Y-70923873D01*
X100613974Y-70923875D01*
X100594659Y-71119996D01*
X100594659Y-71120003D01*
X96520500Y-71120003D01*
X96520500Y-58340000D01*
X104667362Y-58340000D01*
X104687076Y-58565335D01*
X104745618Y-58783815D01*
X104745619Y-58783818D01*
X104841213Y-58988819D01*
X104970952Y-59174106D01*
X105130894Y-59334048D01*
X105316181Y-59463787D01*
X105521182Y-59559381D01*
X105739668Y-59617924D01*
X105965000Y-59637638D01*
X106190332Y-59617924D01*
X106408818Y-59559381D01*
X106613819Y-59463787D01*
X106799106Y-59334048D01*
X106959048Y-59174106D01*
X107088787Y-58988819D01*
X107184381Y-58783818D01*
X107242924Y-58565332D01*
X107262638Y-58340000D01*
X107242924Y-58114668D01*
X107184381Y-57896182D01*
X107088787Y-57691181D01*
X106959048Y-57505894D01*
X106799106Y-57345952D01*
X106799102Y-57345949D01*
X106613817Y-57216211D01*
X106588047Y-57204195D01*
X106534761Y-57157278D01*
X106515300Y-57089001D01*
X106535842Y-57021041D01*
X106588047Y-56975805D01*
X106613817Y-56963788D01*
X106613817Y-56963787D01*
X106613819Y-56963787D01*
X106799106Y-56834048D01*
X106959048Y-56674106D01*
X107088787Y-56488819D01*
X107184381Y-56283818D01*
X107242924Y-56065332D01*
X107262638Y-55840000D01*
X107242924Y-55614668D01*
X107184381Y-55396182D01*
X107088787Y-55191181D01*
X106959048Y-55005894D01*
X106799106Y-54845952D01*
X106613819Y-54716213D01*
X106408818Y-54620619D01*
X106408816Y-54620618D01*
X106408815Y-54620618D01*
X106190335Y-54562076D01*
X105965000Y-54542362D01*
X105739664Y-54562076D01*
X105521184Y-54620618D01*
X105521179Y-54620620D01*
X105316180Y-54716213D01*
X105130897Y-54845949D01*
X105130891Y-54845954D01*
X104970954Y-55005891D01*
X104970949Y-55005897D01*
X104841213Y-55191180D01*
X104745620Y-55396179D01*
X104745618Y-55396184D01*
X104687076Y-55614664D01*
X104667362Y-55840000D01*
X104687076Y-56065335D01*
X104745618Y-56283815D01*
X104745619Y-56283818D01*
X104841213Y-56488819D01*
X104970952Y-56674106D01*
X105130894Y-56834048D01*
X105130897Y-56834050D01*
X105316182Y-56963788D01*
X105341954Y-56975806D01*
X105395239Y-57022723D01*
X105414699Y-57091001D01*
X105394157Y-57158960D01*
X105341954Y-57204194D01*
X105316182Y-57216211D01*
X105130897Y-57345949D01*
X105130891Y-57345954D01*
X104970954Y-57505891D01*
X104970949Y-57505897D01*
X104841213Y-57691180D01*
X104745620Y-57896179D01*
X104745618Y-57896184D01*
X104687076Y-58114664D01*
X104667362Y-58340000D01*
X96520500Y-58340000D01*
X96520500Y-53340000D01*
X99359852Y-53340000D01*
X99379614Y-53591099D01*
X99438413Y-53836016D01*
X99534804Y-54068723D01*
X99664848Y-54280938D01*
X99664850Y-54280938D01*
X100361065Y-53584723D01*
X100372188Y-53618956D01*
X100460186Y-53757619D01*
X100579903Y-53870040D01*
X100718160Y-53946048D01*
X100024060Y-54640148D01*
X100024060Y-54640149D01*
X100236279Y-54770197D01*
X100468983Y-54866586D01*
X100713900Y-54925385D01*
X100965000Y-54945147D01*
X101216099Y-54925385D01*
X101461016Y-54866586D01*
X101693720Y-54770197D01*
X101905938Y-54640149D01*
X101905938Y-54640148D01*
X101208481Y-53942691D01*
X101280629Y-53914126D01*
X101413492Y-53817595D01*
X101518175Y-53691055D01*
X101568442Y-53584232D01*
X102265148Y-54280938D01*
X102265149Y-54280938D01*
X102395197Y-54068720D01*
X102491586Y-53836016D01*
X102550385Y-53591099D01*
X102570147Y-53340000D01*
X102550385Y-53088900D01*
X102491586Y-52843983D01*
X102395197Y-52611279D01*
X102265149Y-52399060D01*
X102265148Y-52399060D01*
X101568934Y-53095274D01*
X101557812Y-53061044D01*
X101469814Y-52922381D01*
X101350097Y-52809960D01*
X101211838Y-52733951D01*
X101905938Y-52039850D01*
X101905938Y-52039848D01*
X101693723Y-51909804D01*
X101461016Y-51813413D01*
X101216099Y-51754614D01*
X100965000Y-51734852D01*
X100713900Y-51754614D01*
X100468983Y-51813413D01*
X100236281Y-51909802D01*
X100236267Y-51909809D01*
X100024060Y-52039848D01*
X100024060Y-52039850D01*
X100721518Y-52737308D01*
X100649371Y-52765874D01*
X100516508Y-52862405D01*
X100411825Y-52988945D01*
X100361557Y-53095767D01*
X99664850Y-52399060D01*
X99664848Y-52399060D01*
X99534809Y-52611267D01*
X99534802Y-52611281D01*
X99438413Y-52843983D01*
X99379614Y-53088900D01*
X99359852Y-53340000D01*
X96520500Y-53340000D01*
X96520500Y-50840000D01*
X104667362Y-50840000D01*
X104687076Y-51065335D01*
X104745618Y-51283815D01*
X104745619Y-51283818D01*
X104841213Y-51488819D01*
X104970952Y-51674106D01*
X105130894Y-51834048D01*
X105316181Y-51963787D01*
X105521182Y-52059381D01*
X105739668Y-52117924D01*
X105965000Y-52137638D01*
X106190332Y-52117924D01*
X106408818Y-52059381D01*
X106613819Y-51963787D01*
X106799106Y-51834048D01*
X106959048Y-51674106D01*
X107088787Y-51488819D01*
X107184381Y-51283818D01*
X107242924Y-51065332D01*
X107262638Y-50840000D01*
X107242924Y-50614668D01*
X107184381Y-50396182D01*
X107088787Y-50191181D01*
X106959048Y-50005894D01*
X106799106Y-49845952D01*
X106799102Y-49845949D01*
X106613817Y-49716211D01*
X106588047Y-49704195D01*
X106534761Y-49657278D01*
X106515300Y-49589001D01*
X106535842Y-49521041D01*
X106588047Y-49475805D01*
X106613817Y-49463788D01*
X106613817Y-49463787D01*
X106613819Y-49463787D01*
X106799106Y-49334048D01*
X106959048Y-49174106D01*
X107088787Y-48988819D01*
X107184381Y-48783818D01*
X107242924Y-48565332D01*
X107262638Y-48340000D01*
X107242924Y-48114668D01*
X107184381Y-47896182D01*
X107088787Y-47691181D01*
X106959048Y-47505894D01*
X106799106Y-47345952D01*
X106613819Y-47216213D01*
X106408818Y-47120619D01*
X106408816Y-47120618D01*
X106408815Y-47120618D01*
X106190335Y-47062076D01*
X105965000Y-47042362D01*
X105739664Y-47062076D01*
X105521184Y-47120618D01*
X105521179Y-47120620D01*
X105316180Y-47216213D01*
X105130897Y-47345949D01*
X105130891Y-47345954D01*
X104970954Y-47505891D01*
X104970949Y-47505897D01*
X104841213Y-47691180D01*
X104745620Y-47896179D01*
X104745618Y-47896184D01*
X104687076Y-48114664D01*
X104667362Y-48340000D01*
X104687076Y-48565335D01*
X104745618Y-48783815D01*
X104745619Y-48783818D01*
X104841213Y-48988819D01*
X104970952Y-49174106D01*
X105130894Y-49334048D01*
X105130897Y-49334050D01*
X105316182Y-49463788D01*
X105341954Y-49475806D01*
X105395239Y-49522723D01*
X105414699Y-49591001D01*
X105394157Y-49658960D01*
X105341954Y-49704194D01*
X105316182Y-49716211D01*
X105130897Y-49845949D01*
X105130891Y-49845954D01*
X104970954Y-50005891D01*
X104970949Y-50005897D01*
X104841213Y-50191180D01*
X104745620Y-50396179D01*
X104745618Y-50396184D01*
X104687076Y-50614664D01*
X104667362Y-50840000D01*
X96520500Y-50840000D01*
X96520500Y-45720000D01*
X116205000Y-45720000D01*
X116205000Y-52705000D01*
G37*
%TD.AperFunction*%
%TD*%
%TA.AperFunction,Conductor*%
%TO.N,GND*%
G36*
X167582121Y-43200502D02*
G01*
X167628614Y-43254158D01*
X167640000Y-43306500D01*
X167640000Y-52579000D01*
X167619998Y-52647121D01*
X167566342Y-52693614D01*
X167514000Y-52705000D01*
X130394409Y-52705000D01*
X130326288Y-52684998D01*
X130279795Y-52631342D01*
X130271474Y-52583032D01*
X129579518Y-51891076D01*
X129665148Y-51877514D01*
X129778045Y-51819990D01*
X129867641Y-51730394D01*
X129925165Y-51617497D01*
X129938727Y-51531867D01*
X130627097Y-52220237D01*
X130627099Y-52220237D01*
X130677088Y-52148846D01*
X130773811Y-51941422D01*
X130773813Y-51941417D01*
X130833048Y-51720351D01*
X130852995Y-51492349D01*
X130833048Y-51264346D01*
X130773813Y-51043280D01*
X130773811Y-51043275D01*
X130677086Y-50835847D01*
X130627100Y-50764459D01*
X130627098Y-50764459D01*
X129938727Y-51452830D01*
X129925165Y-51367201D01*
X129867641Y-51254304D01*
X129778045Y-51164708D01*
X129665148Y-51107184D01*
X129579517Y-51093621D01*
X130267888Y-50405248D01*
X130267888Y-50405247D01*
X130196501Y-50355262D01*
X129989073Y-50258537D01*
X129989068Y-50258535D01*
X129768000Y-50199300D01*
X129768004Y-50199300D01*
X129540000Y-50179353D01*
X129311997Y-50199300D01*
X129090931Y-50258535D01*
X129090926Y-50258537D01*
X128883500Y-50355262D01*
X128812109Y-50405249D01*
X129500481Y-51093621D01*
X129414852Y-51107184D01*
X129301955Y-51164708D01*
X129212359Y-51254304D01*
X129154835Y-51367201D01*
X129141272Y-51452830D01*
X128452900Y-50764458D01*
X128402913Y-50835849D01*
X128306188Y-51043275D01*
X128306186Y-51043280D01*
X128246951Y-51264346D01*
X128227004Y-51492349D01*
X128246951Y-51720351D01*
X128306186Y-51941417D01*
X128306188Y-51941422D01*
X128402913Y-52148850D01*
X128452899Y-52220237D01*
X129141272Y-51531865D01*
X129154835Y-51617497D01*
X129212359Y-51730394D01*
X129301955Y-51819990D01*
X129414852Y-51877514D01*
X129500482Y-51891076D01*
X128807984Y-52583573D01*
X128797122Y-52637623D01*
X128747723Y-52688615D01*
X128685590Y-52705000D01*
X102434017Y-52705000D01*
X102395197Y-52611279D01*
X102265149Y-52399060D01*
X102265148Y-52399060D01*
X101959208Y-52705000D01*
X101240789Y-52705000D01*
X101905938Y-52039850D01*
X101905938Y-52039848D01*
X101693723Y-51909804D01*
X101461016Y-51813413D01*
X101216099Y-51754614D01*
X100965000Y-51734852D01*
X100713900Y-51754614D01*
X100468983Y-51813413D01*
X100236281Y-51909802D01*
X100236267Y-51909809D01*
X100024060Y-52039848D01*
X100024060Y-52039850D01*
X100689210Y-52705000D01*
X99970790Y-52705000D01*
X99664850Y-52399060D01*
X99664848Y-52399060D01*
X99534809Y-52611267D01*
X99534802Y-52611281D01*
X99495982Y-52705000D01*
X96520500Y-52705000D01*
X96520500Y-50840000D01*
X104667362Y-50840000D01*
X104687076Y-51065335D01*
X104745618Y-51283815D01*
X104745619Y-51283818D01*
X104841213Y-51488819D01*
X104970952Y-51674106D01*
X105130894Y-51834048D01*
X105316181Y-51963787D01*
X105521182Y-52059381D01*
X105739668Y-52117924D01*
X105965000Y-52137638D01*
X106190332Y-52117924D01*
X106408818Y-52059381D01*
X106613819Y-51963787D01*
X106799106Y-51834048D01*
X106959048Y-51674106D01*
X107088787Y-51488819D01*
X107184381Y-51283818D01*
X107242924Y-51065332D01*
X107262638Y-50840000D01*
X107242924Y-50614668D01*
X107184381Y-50396182D01*
X107088787Y-50191181D01*
X106959048Y-50005894D01*
X106799106Y-49845952D01*
X106799102Y-49845949D01*
X106613817Y-49716211D01*
X106588047Y-49704195D01*
X106534761Y-49657278D01*
X106515300Y-49589001D01*
X106535842Y-49521041D01*
X106588047Y-49475805D01*
X106613817Y-49463788D01*
X106613817Y-49463787D01*
X106613819Y-49463787D01*
X106799106Y-49334048D01*
X106959048Y-49174106D01*
X107088787Y-48988819D01*
X107184381Y-48783818D01*
X107242924Y-48565332D01*
X107262638Y-48340000D01*
X107242924Y-48114668D01*
X107184381Y-47896182D01*
X107088787Y-47691181D01*
X106959048Y-47505894D01*
X106799106Y-47345952D01*
X106750759Y-47312099D01*
X128539500Y-47312099D01*
X128546234Y-47345954D01*
X128551133Y-47370580D01*
X128595448Y-47436901D01*
X128661769Y-47481216D01*
X128720252Y-47492849D01*
X128720253Y-47492849D01*
X130359747Y-47492849D01*
X130359748Y-47492849D01*
X130418231Y-47481216D01*
X130484552Y-47436901D01*
X130528867Y-47370580D01*
X130540500Y-47312097D01*
X130540500Y-45672601D01*
X130528867Y-45614118D01*
X130484552Y-45547797D01*
X130418231Y-45503482D01*
X130418228Y-45503481D01*
X130359750Y-45491849D01*
X130359748Y-45491849D01*
X128720252Y-45491849D01*
X128720249Y-45491849D01*
X128661771Y-45503481D01*
X128661768Y-45503482D01*
X128595448Y-45547797D01*
X128551133Y-45614117D01*
X128551132Y-45614120D01*
X128539500Y-45672598D01*
X128539500Y-47312099D01*
X106750759Y-47312099D01*
X106613819Y-47216213D01*
X106408818Y-47120619D01*
X106408816Y-47120618D01*
X106408815Y-47120618D01*
X106190335Y-47062076D01*
X105965000Y-47042362D01*
X105739664Y-47062076D01*
X105521184Y-47120618D01*
X105521179Y-47120620D01*
X105316180Y-47216213D01*
X105130897Y-47345949D01*
X105130891Y-47345954D01*
X104970954Y-47505891D01*
X104970949Y-47505897D01*
X104841213Y-47691180D01*
X104745620Y-47896179D01*
X104745618Y-47896184D01*
X104687076Y-48114664D01*
X104667362Y-48340000D01*
X104687076Y-48565335D01*
X104745618Y-48783815D01*
X104745619Y-48783818D01*
X104841213Y-48988819D01*
X104970952Y-49174106D01*
X105130894Y-49334048D01*
X105130897Y-49334050D01*
X105316182Y-49463788D01*
X105341954Y-49475806D01*
X105395239Y-49522723D01*
X105414699Y-49591001D01*
X105394157Y-49658960D01*
X105341954Y-49704194D01*
X105316182Y-49716211D01*
X105130897Y-49845949D01*
X105130891Y-49845954D01*
X104970954Y-50005891D01*
X104970949Y-50005897D01*
X104841213Y-50191180D01*
X104745620Y-50396179D01*
X104745618Y-50396184D01*
X104687076Y-50614664D01*
X104667362Y-50840000D01*
X96520500Y-50840000D01*
X96520500Y-43306500D01*
X96540502Y-43238379D01*
X96594158Y-43191886D01*
X96646500Y-43180500D01*
X167514000Y-43180500D01*
X167582121Y-43200502D01*
G37*
%TD.AperFunction*%
%TD*%
%TA.AperFunction,Conductor*%
%TO.N,VCC*%
G36*
X154882121Y-101620002D02*
G01*
X154928614Y-101673658D01*
X154940000Y-101726000D01*
X154940000Y-117984000D01*
X154919998Y-118052121D01*
X154866342Y-118098614D01*
X154814000Y-118110000D01*
X146176000Y-118110000D01*
X146107879Y-118089998D01*
X146061386Y-118036342D01*
X146050000Y-117984000D01*
X146050000Y-101726000D01*
X146070002Y-101657879D01*
X146123658Y-101611386D01*
X146176000Y-101600000D01*
X154814000Y-101600000D01*
X154882121Y-101620002D01*
G37*
%TD.AperFunction*%
%TD*%
%TA.AperFunction,Conductor*%
%TO.N,VCC*%
G36*
X137737121Y-82570002D02*
G01*
X137783614Y-82623658D01*
X137795000Y-82676000D01*
X137795000Y-115444000D01*
X137774998Y-115512121D01*
X137721342Y-115558614D01*
X137669000Y-115570000D01*
X134746000Y-115570000D01*
X134677879Y-115549998D01*
X134631386Y-115496342D01*
X134620000Y-115444000D01*
X134620000Y-82676000D01*
X134640002Y-82607879D01*
X134693658Y-82561386D01*
X134746000Y-82550000D01*
X137669000Y-82550000D01*
X137737121Y-82570002D01*
G37*
%TD.AperFunction*%
%TD*%
M02*
