M48
; DRILL file {KiCad 8.0.3+1} date 2024-07-17T07:58:33+0200
; FORMAT={-:-/ absolute / metric / decimal}
; #@! TF.CreationDate,2024-07-17T07:58:33+02:00
; #@! TF.GenerationSoftware,Kicad,Pcbnew,8.0.3+1
; #@! TF.FileFunction,Plated,1,2,PTH
FMAT,2
METRIC
; #@! TA.AperFunction,Plated,PTH,ViaDrill
T1C0.400
; #@! TA.AperFunction,Plated,PTH,ComponentDrill
T2C0.750
; #@! TA.AperFunction,Plated,PTH,ViaDrill
T3C0.800
; #@! TA.AperFunction,Plated,PTH,ComponentDrill
T4C0.800
; #@! TA.AperFunction,Plated,PTH,ComponentDrill
T5C1.000
; #@! TA.AperFunction,Plated,PTH,ComponentDrill
T6C1.100
; #@! TA.AperFunction,Plated,PTH,ComponentDrill
T7C1.300
%
G90
G05
T1
X107.315Y-87.63
X129.54Y-129.54
X132.08Y-48.895
X132.08Y-51.435
X134.62Y-46.355
X134.62Y-48.895
X134.62Y-51.435
X134.62Y-53.975
X137.16Y-46.355
X137.16Y-48.895
X137.16Y-51.435
X137.16Y-53.975
X139.7Y-46.355
X139.7Y-48.895
X139.7Y-51.435
X139.7Y-53.975
X142.24Y-46.355
X142.24Y-48.895
X142.24Y-51.435
X142.24Y-53.975
X144.78Y-46.355
X144.78Y-48.895
X144.78Y-51.435
X144.78Y-53.975
X147.32Y-46.355
X147.32Y-48.895
X147.32Y-51.435
X147.32Y-53.975
X149.86Y-46.355
X149.86Y-48.895
X149.86Y-51.435
X149.86Y-53.975
X152.4Y-46.355
X152.4Y-53.975
X154.94Y-46.355
X154.94Y-53.975
X157.48Y-46.355
X157.48Y-48.895
X157.48Y-51.435
X157.48Y-53.975
X160.02Y-46.355
X160.02Y-48.895
X160.02Y-51.435
X160.02Y-53.975
X162.56Y-46.355
X162.56Y-48.895
X162.56Y-51.435
X162.56Y-53.975
X165.1Y-46.355
X165.1Y-48.895
X165.1Y-51.435
X165.1Y-53.975
X180.34Y-63.373
T2
X180.34Y-55.88
X180.34Y-57.15
X180.34Y-58.42
T3
X140.97Y-78.105
X144.78Y-76.835
X144.78Y-80.01
T4
X101.6Y-71.12
X101.6Y-76.2
X101.6Y-79.375
X105.41Y-83.82
X105.41Y-86.36
X105.41Y-88.9
X105.41Y-91.44
X105.41Y-93.98
X105.41Y-96.52
X105.41Y-99.06
X105.41Y-101.6
X105.41Y-104.14
X105.41Y-106.68
X105.41Y-109.22
X105.41Y-111.76
X105.41Y-114.3
X105.41Y-116.84
X105.41Y-119.38
X105.41Y-121.92
X105.41Y-124.46
X105.41Y-127.0
X105.41Y-129.54
X105.41Y-132.08
X109.22Y-71.12
X109.22Y-73.66
X109.22Y-76.2
X109.22Y-79.375
X109.22Y-86.36
X109.22Y-88.9
X109.22Y-91.44
X113.07Y-74.93
X116.84Y-86.36
X116.84Y-88.9
X116.84Y-91.44
X118.07Y-74.93
X120.65Y-83.82
X120.65Y-86.36
X120.65Y-88.9
X120.65Y-91.44
X120.65Y-93.98
X120.65Y-96.52
X120.65Y-99.06
X120.65Y-101.6
X120.65Y-104.14
X120.65Y-106.68
X120.65Y-109.22
X120.65Y-111.76
X120.65Y-114.3
X120.65Y-116.84
X120.65Y-119.38
X120.65Y-121.92
X120.65Y-124.46
X120.65Y-127.0
X120.65Y-129.54
X120.65Y-132.08
X120.69Y-77.47
X121.92Y-57.785
X121.92Y-60.325
X121.92Y-62.865
X121.92Y-65.405
X121.92Y-67.945
X121.92Y-70.485
X121.92Y-73.025
X125.69Y-77.47
X125.73Y-83.82
X125.73Y-86.36
X125.73Y-88.9
X125.73Y-91.44
X125.73Y-93.98
X125.73Y-96.52
X125.73Y-99.06
X125.73Y-101.6
X125.73Y-104.14
X125.73Y-106.68
X125.73Y-109.22
X125.73Y-111.76
X125.73Y-114.3
X125.73Y-116.84
X125.73Y-119.38
X125.73Y-121.92
X125.73Y-124.46
X125.73Y-127.0
X125.73Y-129.54
X125.73Y-132.08
X129.54Y-47.762
X129.54Y-52.762
X129.54Y-57.785
X129.54Y-60.325
X129.54Y-62.865
X129.54Y-65.405
X129.54Y-67.945
X129.54Y-70.485
X129.54Y-73.025
X140.97Y-83.82
X140.97Y-86.36
X140.97Y-88.9
X140.97Y-91.44
X140.97Y-93.98
X140.97Y-96.52
X140.97Y-99.06
X140.97Y-101.6
X140.97Y-104.14
X140.97Y-106.68
X140.97Y-109.22
X140.97Y-111.76
X140.97Y-114.3
X140.97Y-116.84
X140.97Y-119.38
X140.97Y-121.92
X140.97Y-124.46
X140.97Y-127.0
X140.97Y-129.54
X140.97Y-132.08
X142.24Y-57.785
X142.24Y-60.325
X142.24Y-62.865
X142.24Y-65.405
X142.24Y-67.945
X142.24Y-70.485
X142.24Y-73.025
X149.86Y-57.785
X149.86Y-60.325
X149.86Y-62.865
X149.86Y-65.405
X149.86Y-67.945
X149.86Y-70.485
X149.86Y-73.025
X154.94Y-62.865
X154.94Y-70.485
X160.02Y-57.785
X160.02Y-60.325
X160.02Y-62.865
X160.02Y-65.405
X160.02Y-67.945
X160.02Y-70.485
X160.02Y-73.025
X160.02Y-99.06
X160.02Y-101.6
X160.02Y-104.14
X160.02Y-106.68
X160.02Y-109.22
X160.02Y-111.76
X160.02Y-114.3
X160.02Y-116.84
X160.02Y-119.38
X160.02Y-121.92
X160.02Y-124.46
X160.02Y-127.0
X160.02Y-129.54
X160.02Y-132.08
X167.64Y-57.785
X167.64Y-60.325
X167.64Y-62.865
X167.64Y-65.405
X167.64Y-67.945
X167.64Y-70.485
X167.64Y-73.025
X175.26Y-99.06
X175.26Y-101.6
X175.26Y-104.14
X175.26Y-106.68
X175.26Y-109.22
X175.26Y-111.76
X175.26Y-114.3
X175.26Y-116.84
X175.26Y-119.38
X175.26Y-121.92
X175.26Y-124.46
X175.26Y-127.0
X175.26Y-129.54
X175.26Y-132.08
X182.88Y-45.76
X182.88Y-50.76
T5
X99.065Y-86.36
X99.065Y-88.9
X99.065Y-91.44
X99.065Y-93.98
X99.065Y-96.52
X99.065Y-99.06
X99.065Y-101.6
X99.065Y-104.14
X99.065Y-106.68
X99.065Y-109.22
X99.065Y-111.76
X99.065Y-114.3
X99.065Y-116.84
X101.605Y-86.36
X101.605Y-88.9
X101.605Y-91.44
X101.605Y-93.98
X101.605Y-96.52
X101.605Y-99.06
X101.605Y-101.6
X101.605Y-104.14
X101.605Y-106.68
X101.605Y-109.22
X101.605Y-111.76
X101.605Y-114.3
X101.605Y-116.84
X187.96Y-53.34
X187.96Y-55.88
X187.96Y-58.42
X187.96Y-60.96
X187.96Y-63.5
X187.96Y-66.04
X187.96Y-68.58
X187.96Y-71.12
X187.96Y-73.66
X187.96Y-76.2
X187.96Y-78.74
X187.96Y-81.28
X187.96Y-83.82
X187.96Y-86.36
X187.96Y-88.9
X187.96Y-91.44
X187.96Y-93.98
X187.96Y-96.52
X187.96Y-99.06
X187.96Y-101.6
X187.96Y-104.14
X187.96Y-106.68
X187.96Y-109.22
X187.96Y-111.76
X187.96Y-114.3
X187.96Y-116.84
X187.96Y-119.38
X187.96Y-121.92
X187.96Y-124.46
X187.96Y-127.0
X187.96Y-129.54
X187.96Y-132.08
X190.5Y-53.34
X190.5Y-55.88
X190.5Y-58.42
X190.5Y-60.96
X190.5Y-63.5
X190.5Y-66.04
X190.5Y-68.58
X190.5Y-71.12
X190.5Y-73.66
X190.5Y-76.2
X190.5Y-78.74
X190.5Y-81.28
X190.5Y-83.82
X190.5Y-86.36
X190.5Y-88.9
X190.5Y-91.44
X190.5Y-93.98
X190.5Y-96.52
X190.5Y-99.06
X190.5Y-101.6
X190.5Y-104.14
X190.5Y-106.68
X190.5Y-109.22
X190.5Y-111.76
X190.5Y-114.3
X190.5Y-116.84
X190.5Y-119.38
X190.5Y-121.92
X190.5Y-124.46
X190.5Y-127.0
X190.5Y-129.54
X190.5Y-132.08
T6
X170.18Y-47.625
X170.18Y-50.165
X170.18Y-52.705
T7
X100.965Y-53.34
X105.965Y-48.34
X105.965Y-50.84
X105.965Y-55.84
X105.965Y-58.34
M30
